<?xml version="1.0" encoding="UTF-8" ?>
<!DOCTYPE svg PUBLIC "-//W3C//DTD SVG 1.1//EN" "http://www.w3.org/Graphics/SVG/1.1/DTD/svg11.dtd">
<svg width="65pt" height="48pt" viewBox="0 0 65 48" version="1.1" xmlns="http://www.w3.org/2000/svg">
<g id="#000f24ff">
<path fill="#000f24" opacity="1.00" d=" M 64.76 0.00 L 65.00 0.00 L 65.00 48.00 L 64.82 48.00 C 43.23 39.94 21.57 32.09 0.00 23.99 L 0.00 23.95 C 21.59 15.97 43.20 8.06 64.76 0.00 M 55.37 7.44 C 40.78 12.89 26.13 18.19 11.55 23.67 C 11.53 23.84 11.49 24.18 11.46 24.35 C 27.93 29.87 44.08 36.30 60.43 42.18 C 60.69 30.08 59.96 17.95 60.81 5.88 C 58.93 6.15 57.10 6.68 55.37 7.44 Z" />
</g>
<g id="#00aeefff">
<path fill="#00aeef" opacity="1.00" d=" M 55.37 7.44 C 57.10 6.68 58.93 6.15 60.81 5.88 C 59.96 17.95 60.69 30.08 60.43 42.18 C 44.08 36.30 27.93 29.87 11.46 24.35 C 11.49 24.18 11.53 23.84 11.55 23.67 C 26.13 18.19 40.78 12.89 55.37 7.44 Z" />
</g>
</svg>
