<?xml version="1.0" encoding="UTF-8" ?>
<!DOCTYPE svg PUBLIC "-//W3C//DTD SVG 1.1//EN" "http://www.w3.org/Graphics/SVG/1.1/DTD/svg11.dtd">
<svg width="65pt" height="48pt" viewBox="0 0 65 48" version="1.1" xmlns="http://www.w3.org/2000/svg">
<g id="#000f24ff">
<path fill="#000f24" opacity="1.00" d=" M 64.78 0.00 L 65.00 0.00 L 65.00 48.00 L 64.83 48.00 C 43.23 39.98 21.61 32.03 0.00 24.05 L 0.00 24.00 C 21.56 15.92 43.22 8.07 64.78 0.00 M 10.99 24.02 C 12.04 24.36 13.05 25.11 14.19 25.04 C 29.56 30.87 45.02 36.46 60.43 42.17 C 60.54 30.65 60.25 19.13 60.57 7.61 L 60.73 5.74 C 44.05 11.53 27.52 17.80 10.99 24.02 Z" />
</g>
<g id="#92d6f4ff">
<path fill="#92d6f4" opacity="1.00" d=" M 10.99 24.02 C 27.52 17.80 44.05 11.53 60.73 5.74 L 60.57 7.61 C 58.12 8.96 55.46 9.86 52.83 10.79 C 39.94 15.52 27.08 20.32 14.19 25.04 C 13.05 25.11 12.04 24.36 10.99 24.02 Z" />
</g>
<g id="#00aeefff">
<path fill="#00aeef" opacity="1.00" d=" M 52.83 10.79 C 55.46 9.86 58.12 8.96 60.57 7.61 C 60.25 19.13 60.54 30.65 60.43 42.17 C 45.02 36.46 29.56 30.87 14.19 25.04 C 27.08 20.32 39.94 15.52 52.83 10.79 Z" />
</g>
</svg>
