<?xml version="1.0" encoding="utf-8"?>
<!-- Generator: Adobe Illustrator 16.0.0, SVG Export Plug-In . SVG Version: 6.00 Build 0)  -->
<!DOCTYPE svg PUBLIC "-//W3C//DTD SVG 1.1//EN" "http://www.w3.org/Graphics/SVG/1.1/DTD/svg11.dtd">
<svg version="1.1" id="Layer_1" xmlns="http://www.w3.org/2000/svg" xmlns:xlink="http://www.w3.org/1999/xlink" x="0px" y="0px"
	 width="181px" height="181px" viewBox="0 0 181 181" enable-background="new 0 0 181 181" xml:space="preserve">
<ellipse fill="#FFFFFF" cx="80.257" cy="79.879" rx="77.257" ry="77.879"/>
<path fill="#01ADE0" d="M158.098,83.614c0,41.372-33.867,73.895-75.628,73.895c-41.753,0-75.608-33.534-75.608-74.907
	c0-41.367,33.854-74.901,75.608-74.901C124.229,7.701,158.098,42.247,158.098,83.614z"/>
<g id="_x23_000000ff">
	<path d="M69.481,0.689c16.212-2.151,33.074,0.76,47.544,8.381c15.752,8.191,28.604,21.782,35.887,37.965
		c7.63,16.722,9.141,36.114,4.331,53.847c-4.142,15.481-13.112,29.604-25.324,39.984c-12.502,10.722-28.403,17.433-44.816,18.813
		c-15.872,1.438-32.164-1.98-46.066-9.802c-14.442-8.021-26.264-20.644-33.324-35.585C0.142,98.491-1.918,80.148,1.812,63.037
		c3.511-16.533,12.542-31.825,25.224-42.985C38.837,9.57,53.819,2.708,69.481,0.689 M36.827,18.781
		c-11.332,7.841-19.953,19.052-25.713,31.494c-11.521,25.543-6.471,57.167,11.741,78.339c8.032,9.512,18.513,16.923,30.135,21.374
		c18.832,7.279,40.654,6.539,58.887-2.17c14.521-6.793,26.725-18.395,34.244-32.555c15.184-27.515,10.411-64.54-11.801-86.902
		C123.418,16.861,108.756,8.59,93.033,6.219C73.602,2.919,52.889,7.239,36.827,18.781z"/>
</g>
<g id="_x23_ffffffff">
	<path fill="#FFFFFF" d="M93.033,6.219"/>
	<path fill="#FFFFFF" d="M34.226,56.246c3.53-3.811,9.271-3.61,13.962-2.661c6.011,2.301,7.511,9.192,7.531,14.942
		c-2.7-0.04-5.401-0.08-8.101-0.16c-0.44-2.321,0.48-5.75-2.03-7.091c-2.13-1.46-4.701,0.41-5.891,2.22
		c-1.17,4.36,1.23,8.591,4.39,11.432c4.541,4.23,9.822,8.58,10.932,15.063c1.04,5.191,0.49,11.842-4.181,15.172
		c-2.75,2.171-6.531,1.54-9.792,1.54c-3.64,0.149-6.61-2.45-8.531-5.28c-1.891-3.381-1.83-7.411-1.96-11.172
		c2.681-0.04,5.351-0.05,8.021-0.05c0.06,2.261-0.03,4.551,0.34,6.801c1.79,2.399,4.741,2.142,7.251,1.188
		c0.8-2.778,1.04-5.709-0.07-8.44c-3.86-6.571-11.452-10.151-14.342-17.472C30.625,66.977,30.176,60.466,34.226,56.246z"/>
	<path fill="#FFFFFF" d="M60.05,53.395c6.571,0.27,13.342-0.8,19.673,1.48c6.13,5.241,5.071,13.822,4.841,21.033
		c-0.061,3.3-1.361,6.661-4.012,8.742c-3.28,2.91-8.001,1.779-12.001,2.02c-0.09,6.643-0.15,13.292,0.07,19.932
		c-2.851-0.068-5.691-0.14-8.541-0.278C59.92,88.679,59.99,71.038,60.05,53.395 M68.501,61.516c-0.09,5.651,0.22,11.321-0.25,16.962
		c2.6,0.06,7.041,1.15,7.731-2.46c0.48-4.34,0.32-8.751-0.13-13.082C74.142,60.566,70.961,61.756,68.501,61.516z"/>
	<path fill="#FFFFFF" d="M88.003,53.435c2.79,0,5.571,0,8.351,0.02c0.399,17.703-0.141,35.424,0.26,53.137
		c-2.83-0.07-5.65-0.14-8.469-0.279C87.824,88.7,88.093,71.058,88.003,53.435z"/>
	<path fill="#FFFFFF" d="M103.005,53.445c3.491,0,6.972,0,10.462-0.05c2.801,10.231,5.479,20.493,8.161,30.755
		c0.06-10.232,0-20.463,0.04-30.695c2.471-0.01,4.949-0.01,7.421,0c0.55,17.703-0.29,35.435,0.399,53.137
		c-2.932-0.06-5.852-0.09-8.78-0.18c-2.69-10.143-5.491-20.262-8.122-30.434c-0.43-1.44-0.801-2.971-1.79-4.141
		c-0.29,11.611-0.06,23.233-0.13,34.854c-2.561-0.119-5.111-0.221-7.661-0.409C103.016,88.669,103.005,71.058,103.005,53.445z"/>
</g>
</svg>
