<?xml version="1.0" encoding="UTF-8" ?>
<!DOCTYPE svg PUBLIC "-//W3C//DTD SVG 1.1//EN" "http://www.w3.org/Graphics/SVG/1.1/DTD/svg11.dtd">
<svg width="614pt" height="614pt" viewBox="0 0 614 614" version="1.1" xmlns="http://www.w3.org/2000/svg">
<g id="#000000ff">
<path fill="#000000" opacity="1.00" d=" M 299.44 0.00 L 314.53 0.00 C 382.96 1.65 450.51 26.98 503.06 70.87 C 556.59 114.99 593.99 177.97 607.60 245.96 C 612.02 267.00 613.86 288.52 613.43 310.01 C 613.76 352.21 604.00 394.25 586.83 432.72 C 559.40 494.17 511.24 546.20 451.75 577.75 C 409.66 600.27 362.27 612.62 314.57 614.00 L 299.48 614.00 C 287.61 613.56 275.73 612.72 263.97 611.00 C 192.97 601.08 125.92 565.27 78.31 511.67 C 33.01 461.34 5.50 395.50 0.98 327.99 C 0.42 313.67 0.41 299.33 1.01 285.01 C 4.73 231.36 23.13 178.86 53.35 134.40 C 78.25 97.60 111.25 66.30 149.42 43.52 C 194.59 16.43 246.83 1.52 299.44 0.00 Z" />
</g>
</svg>
