<?xml version="1.0" encoding="utf-8"?>
<!-- Generator: Adobe Illustrator 16.0.0, SVG Export Plug-In . SVG Version: 6.00 Build 0)  -->
<!DOCTYPE svg PUBLIC "-//W3C//DTD SVG 1.1//EN" "http://www.w3.org/Graphics/SVG/1.1/DTD/svg11.dtd">
<svg version="1.1" xmlns="http://www.w3.org/2000/svg" xmlns:xlink="http://www.w3.org/1999/xlink" x="0px" y="0px" width="614px"
	 height="614px" viewBox="0 0 614 614" enable-background="new 0 0 614 614" xml:space="preserve">
<g id="Layer_2">
	<ellipse fill="#FFFFFF" stroke="#000000" stroke-miterlimit="10" cx="306.998" cy="306.994" rx="294.355" ry="294.604"/>
</g>
<g id="Layer_1">
	<g id="_x23_aae0faff">
		<path fill="#AAE0FA" d="M302.27,0h12.31c68.67,1.67,136.439,27.19,189.06,71.36c29.101,24.2,53.561,53.93,71.841,87.07
			c20.13,36.49,32.689,77.12,36.819,118.58c1.05,9.63,1.03,19.33,1.141,29.01c1.359,80.32-32.051,160.02-88.391,216.99
			c-26.24,26.63-57.45,48.351-91.55,63.71c-38.15,17.21-79.83,26.561-121.69,27.28H299.43c-36.69-1.02-73.21-8.5-107.23-22.31
			c-37.48-15.131-71.91-37.73-100.69-66.11C56.46,491.06,29.98,447.93,15.03,401.06C5.69,371.67,0.28,340.88,0.57,309.98
			C-1.16,234.92,27.42,160.13,76.93,103.94c22.9-26.16,50.38-48.28,80.75-65.18C201.73,14.24,251.87,0.87,302.27,0 M296.42,12.61
			C257,14.07,217.9,23.52,182.17,40.21c-40,18.58-75.54,46.51-103.33,80.73c-34.35,42.2-56.76,94.03-63.73,148.01
			c-6.17,46.75-0.68,94.909,15.48,139.189c16.94,46.78,46.06,89.04,83.72,121.54c27.8,24.141,60.21,42.91,94.91,55.17
			c36.97,13.08,76.58,18.641,115.72,16.181c43.34-2.69,86.069-15.04,124.13-35.971c32.59-17.859,61.58-42.14,85.17-70.84
			c24.88-30.31,43.67-65.62,54.859-103.21c11.69-39.039,15.08-80.539,9.891-120.96c-4.99-39.07-17.78-77.13-37.561-111.19
			c-20.04-34.61-47.34-64.97-79.489-88.75C428.93,30.77,362.41,10,296.42,12.61z"/>
		<path fill="#AAE0FA" d="M231.31,173.56c1.22-1.02,2.27-2.22,3.35-3.38c-0.16,1.64-0.28,3.29-0.42,4.94
			c1.28,0.81,2.57,1.65,3.85,2.47c-1.47,0.38-2.95,0.76-4.42,1.14c-0.13,1.48-0.26,2.97-0.39,4.45c-0.84-1.22-1.71-2.42-2.54-3.65
			c-1.53,0.06-3.07,0.15-4.6,0.229c0.87-1.21,1.94-2.33,2.45-3.75c-0.67-1.35-1.47-2.63-2.27-3.9
			C227.94,172.66,229.54,173.67,231.31,173.56z"/>
		<path fill="#AAE0FA" d="M242.07,192.8c0.8-0.96,1.62-1.91,2.44-2.86c0.17,1.3,0.41,2.6,0.71,3.88c1.14,1,2.51,1.7,3.81,2.49
			c-1.45,0.36-2.92,0.68-4.36,1.06c-0.41,1.61-0.81,3.23-1.22,4.84c-0.5-1.32-0.99-2.65-1.48-3.97c-2,0.33-3.99,0.68-5.97,1.02
			c1.28-1.37,2.56-2.75,3.81-4.16c-0.92-1.36-1.75-2.77-2.63-4.14C238.77,191.67,240.48,192.05,242.07,192.8z"/>
		<path fill="#AAE0FA" d="M252.34,211.73c1.09-1.23,2.3-2.36,3.4-3.59c0.02,1.58,0.06,3.16,0.08,4.75c1.48,0.77,2.92,1.62,4.41,2.4
			c-1.5,0.15-3,0.29-4.49,0.42c-0.35,1.78-0.89,3.52-1.24,5.31c-0.66-1.29-1.35-2.57-2-3.85c-1.78,0.19-3.57,0.36-5.34,0.57
			c1.13-1.2,2.25-2.41,3.39-3.6c-0.85-1.62-1.67-3.25-2.52-4.86C249.47,210.09,250.9,210.91,252.34,211.73z"/>
		<path fill="#AAE0FA" d="M412.08,304.51c0.7-1.57,1.52-3.09,2.25-4.66c0.5,1.53,1.06,3.05,1.56,4.59c1.7-0.02,3.41-0.01,5.12-0.02
			c-1.21,1.03-2.45,2.03-3.51,3.21c-0.16,1.55,0.23,3.091,0.41,4.63c-1.29-0.73-2.55-1.52-3.93-2.06
			c-1.44,0.71-2.73,1.68-4.04,2.579c0.39-1.629,0.77-3.25,1.159-4.869c-1.34-1.2-2.729-2.33-4.06-3.53
			C408.72,304.42,410.4,304.46,412.08,304.51z"/>
		<path fill="#AAE0FA" d="M435.62,299.86c0.75,1.55,1.49,3.1,2.21,4.68c1.71-0.08,3.439-0.09,5.17-0.15
			c-1.43,1.16-2.86,2.32-4.28,3.48c0.44,1.659,0.891,3.319,1.351,4.979c-1.33-0.92-2.641-1.899-4.09-2.609
			c-1.5,0.5-2.891,1.279-4.301,1.97c0.36-1.42,0.78-2.81,1.15-4.22c-1.22-1.08-2.311-2.31-3.521-3.38c1.5-0.04,3-0.07,4.511-0.08
			C434.41,302.96,435.04,301.42,435.62,299.86z"/>
		<path fill="#AAE0FA" d="M455.69,304.35c0.649-1.57,1.239-3.15,1.909-4.71c0.49,1.57,0.99,3.15,1.49,4.72
			c1.92,0.02,3.83,0.09,5.76,0.1c-1.52,1.13-3.06,2.22-4.569,3.351c0.55,1.699,1.109,3.399,1.689,5.09
			c-1.399-0.92-2.77-1.9-4.27-2.621c-1.771,0.371-3.181,1.65-4.7,2.551c0.55-1.65,1.07-3.301,1.62-4.939
			c-1.46-1.161-2.96-2.271-4.41-3.431C452.03,304.45,453.86,304.36,455.69,304.35z"/>
		<path fill="#AAE0FA" d="M152.01,301.12c1.41,0.92,2.79,1.89,4.31,2.64c1.75-0.49,3.18-1.67,4.72-2.59
			c-0.57,1.66-1.12,3.33-1.66,5.01c1.49,1.11,2.99,2.22,4.48,3.349c-1.87,0.011-3.73,0.111-5.59,0.141
			c-0.58,1.58-1.25,3.13-1.84,4.71c-0.52-1.569-1.04-3.14-1.53-4.71c-1.69-0.08-3.37-0.141-5.05-0.21c1.27-1.14,2.53-2.3,3.81-3.43
			C153.11,304.39,152.57,302.75,152.01,301.12z"/>
		<path fill="#AAE0FA" d="M173.96,301.19c1.33,0.91,2.64,1.87,4.09,2.58c1.41-0.54,2.72-1.31,4.06-2.01
			c-0.28,1.51-0.54,3.02-0.8,4.53c1.11,1.02,2.24,2.021,3.35,3.06c-1.51,0.051-3.01,0.101-4.51,0.16
			c-0.58,1.551-1.22,3.07-1.78,4.641c-0.8-1.541-1.46-3.16-2.24-4.7c-1.71,0.079-3.42,0.079-5.12,0.17
			c1.41-1.149,2.84-2.3,4.27-3.44C174.84,304.51,174.4,302.85,173.96,301.19z"/>
		<path fill="#AAE0FA" d="M200,303.79c1.46-0.7,2.78-1.66,4.13-2.55c-0.43,1.61-0.85,3.22-1.25,4.84c1.32,1.2,2.72,2.3,4.04,3.52
			c-1.67-0.039-3.33-0.07-5-0.09c-0.7,1.57-1.52,3.09-2.25,4.66c-0.49-1.561-1.09-3.07-1.57-4.62c-1.7,0.011-3.39,0.021-5.08,0.04
			c1.22-1.14,2.72-2.11,3.58-3.57c-0.04-1.45-0.37-2.88-0.59-4.3C197.31,302.46,198.6,303.25,200,303.79z"/>
		<path fill="#AAE0FA" d="M359.66,393.02c0.56,1.28,1.17,2.53,1.76,3.811c1.8-0.19,3.61-0.33,5.41-0.53
			c-1.13,1.2-2.28,2.391-3.41,3.59c0.87,1.61,1.74,3.23,2.62,4.851c-1.48-0.83-2.95-1.66-4.41-2.48c-1.1,1.24-2.28,2.41-3.36,3.65
			c-0.039-1.63-0.149-3.26-0.17-4.891c-1.38-0.75-2.81-1.38-4.18-2.109c1.41-0.25,2.811-0.55,4.2-0.9
			C358.84,396.41,359.2,394.689,359.66,393.02z"/>
		<path fill="#AAE0FA" d="M368.77,416.81c0.74-1.579,1.23-3.26,1.79-4.899c0.49,1.28,0.99,2.57,1.49,3.85
			c1.94-0.33,3.88-0.67,5.811-1.04c-1.23,1.41-2.46,2.82-3.641,4.271c0.9,1.26,1.69,2.609,2.59,3.88c-1.63-0.55-3.3-0.99-4.92-1.55
			c-0.819,0.91-1.64,1.85-2.449,2.779c-0.181-1.319-0.381-2.63-0.61-3.93c-1.15-0.979-2.521-1.63-3.8-2.41
			C366.28,417.48,367.53,417.16,368.77,416.81z"/>
		<path fill="#AAE0FA" d="M380.65,430.89c1.04,1.29,2.109,2.57,3.159,3.87c1.33-0.22,2.671-0.439,4.021-0.649
			c-0.86,1.25-1.73,2.479-2.46,3.819c0.67,1.4,1.51,2.73,2.32,4.07c-1.58-0.69-3.21-1.28-4.79-1.94
			c-1.181,1.271-2.37,2.53-3.54,3.82c0.14-1.71,0.27-3.42,0.42-5.11c-1.3-0.67-2.59-1.319-3.87-1.979c1.49-0.53,2.99-1.05,4.49-1.57
			C380.48,433.77,380.56,432.33,380.65,430.89z"/>
	</g>
	<g id="_x23_000f24ff">
		<path fill="#000F24" d="M296.42,12.61C362.41,10,428.93,30.77,481.94,70.11c32.149,23.78,59.449,54.14,79.489,88.75
			c19.78,34.06,32.57,72.12,37.561,111.19c5.189,40.421,1.8,81.921-9.891,120.96c-11.189,37.59-29.979,72.9-54.859,103.21
			c-23.59,28.7-52.58,52.98-85.17,70.84c-38.061,20.931-80.79,33.28-124.13,35.971c-39.141,2.46-78.75-3.101-115.72-16.181
			c-34.7-12.26-67.11-31.029-94.91-55.17c-37.66-32.5-66.78-74.76-83.72-121.54C14.43,363.859,8.94,315.7,15.11,268.95
			c6.97-53.98,29.38-105.81,63.73-148.01c27.79-34.22,63.33-62.15,103.33-80.73C217.9,23.52,257,14.07,296.42,12.61 M231.56,26.71
			c-3.98,1.41-4.78,7.52-1.2,9.8c3.3,2.67,9.22-0.15,8.58-4.56C239.41,28.14,234.96,25.26,231.56,26.71 M378.17,27.18
			c-3.49,1.61-3.91,7.13-0.75,9.31c3.08,2.53,8.36,0.58,8.93-3.42C387.33,28.73,381.99,24.73,378.17,27.18 M286.06,33.16
			c-66.42,4.96-130.73,34.97-176.66,83.31c-33.51,34.74-57.53,78.51-68.98,125.39c-11.33,45.9-10.33,94.71,2.65,140.16
			c14.24,50.73,43.51,97.11,83.27,131.7c32.5,28.54,71.89,49.141,113.83,59.69c43.54,11.04,89.8,11,133.35,0.02
			c38.421-9.55,74.74-27.5,105.53-52.399c28.391-22.91,52.15-51.54,69.42-83.67c19.471-36.03,30.771-76.45,32.66-117.36
			c2.101-43.9-6.649-88.24-25.02-128.16c-17.38-37.91-43.66-71.66-76.021-97.95C426.32,49.89,355.37,27.48,286.06,33.16
			 M103.27,100.26c-1.26,1.73-3.23,3.39-2.81,5.76c0.03,3.13,3.18,4.46,5.55,5.63c3.5-1.11,7.11-4.57,5.05-8.49
			C109.76,99.91,106.15,100.2,103.27,100.26 M506.43,100.54c-3.979,1.27-5.1,7.18-1.59,9.62c3.2,3.09,9.141,0.25,8.99-4.13
			C514.1,102.25,510,99.21,506.43,100.54 M29.36,228.45c-3.43,1.89-3.49,7.32-0.17,9.35c3.48,2.65,9-0.44,8.64-4.77
			C38.04,228.9,32.71,226.04,29.36,228.45 M579.39,228.57c-3.899,1.64-4.13,7.54-0.6,9.73c3.1,1.44,7.62,0.48,8.44-3.3
			C588.61,230.51,583.47,226.61,579.39,228.57 M31.64,374.811c-3.63,0.39-6.29,4.689-4.49,8.01c1.72,4.18,8.67,4.029,10.2-0.24
			C39.03,378.859,35.59,374.41,31.64,374.811 M579.51,375.641c-3.84,1.59-4.609,7.52-1,9.77c3.4,2.66,8.86-0.189,8.8-4.45
			C587.47,377.061,583.1,374.08,579.51,375.641 M103.24,503.24c-3.45,1.399-4.14,6.54-1.35,8.93c2.59,2.93,8.09,1.58,9.1-2.21
			C112.82,505.59,107.32,500.72,103.24,503.24 M505.4,503.58c-2.87,1.37-3.971,5.45-2,8c2.54,4.189,10.17,2.36,10.149-2.74
			C514.03,504.54,509.08,501.84,505.4,503.58 M231.45,576.64c-3.83,1.04-5.23,6.471-2.27,9.181c2.84,3.33,8.99,1.439,9.46-2.9
			C239.59,578.92,235.26,575.27,231.45,576.64 M379.43,576.57c-4.8,0.52-6.04,7.67-2.1,10.109c3.39,2.641,8.97-0.37,8.58-4.67
			C386.17,578.64,382.65,575.88,379.43,576.57z"/>
	</g>
	<g id="_x23_3fc8f4ff">
		<path fill="#3FC8F4" d="M231.56,26.71c3.4-1.45,7.85,1.43,7.38,5.24c0.64,4.41-5.28,7.23-8.58,4.56
			C226.78,34.23,227.58,28.12,231.56,26.71z"/>
		<path fill="#3FC8F4" d="M378.17,27.18c3.82-2.45,9.16,1.55,8.18,5.89c-0.569,4-5.85,5.95-8.93,3.42
			C374.26,34.31,374.68,28.79,378.17,27.18z"/>
		<path fill="#3FC8F4" d="M243.04,50.35c42.21-10.81,87.2-10.65,129.38,0.28c-20.78,77.77-41.64,155.52-62.43,233.28
			c-0.88,3.5-1.8,6.99-3.101,10.37c-21.7-80.14-42.939-160.4-64.52-240.57C242.24,52.45,240.99,50.5,243.04,50.35 M298.49,56.77
			c-10.03,2.13-19.11,8.31-24.81,16.83c-5.21,7.65-7.61,17.14-6.72,26.35c1,11.82,7.65,22.96,17.49,29.56
			c8.3,5.61,18.72,8.11,28.64,6.48c12.23-1.84,23.41-9.67,29.25-20.58c5.01-9.11,6.2-20.18,3.38-30.17
			c-2.609-9.4-8.79-17.73-16.989-22.99C319.9,56.5,308.77,54.54,298.49,56.77z"/>
		<path fill="#3FC8F4" d="M294.36,72.51c3.36-1.38,7.09-0.74,10.63-0.87c4.319,0.17,8.72-0.46,12.979,0.48
			c4.63,1.35,5.66,7.6,3.521,11.39c-1.29,2.29-3.95,3.26-6.471,3.12c-6.319-0.06-12.669,0.25-18.979-0.18
			C289.59,85.52,288.84,75.21,294.36,72.51 M295.41,81.39c7.39,0.5,14.81,0.37,22.21,0.09c-0.101-1.48,1.08-3.65-0.851-4.35
			c-1.779-0.86-3.869-0.44-5.779-0.56c-4.63,0.17-9.29-0.29-13.9,0.25C294.71,77.22,295.59,79.7,295.41,81.39z"/>
		<path fill="#3FC8F4" d="M293.26,91.23c3.12-2.24,7.41-1.89,10.75-0.34c5.17,2.11,8.09,7.63,13.61,9.1
			c0.11-3.17,0.13-6.34,0.13-9.51c1.5,0,3,0,4.51,0c0.01,4.7,0.01,9.41,0.01,14.11c-2.96-0.14-6.119,0.22-8.829-1.24
			c-4.25-2.22-6.91-6.85-11.65-8.25c-2.13-0.84-4.37-0.15-6.48,0.3c0.08,1.33,0.18,2.65,0.29,3.98c1.93,0.14,3.87,0.32,5.81,0.43
			c0.03,1.61,0.06,3.22,0.09,4.83c-3.02-0.27-6.66,0.26-8.95-2.17C289.91,99.33,290.02,93.92,293.26,91.23z"/>
		<path fill="#3FC8F4" d="M103.27,100.26c2.88-0.06,6.49-0.35,7.79,2.9c2.06,3.92-1.55,7.38-5.05,8.49
			c-2.37-1.17-5.52-2.5-5.55-5.63C100.04,103.65,102.01,101.99,103.27,100.26z"/>
		<path fill="#3FC8F4" d="M506.43,100.54c3.57-1.33,7.67,1.71,7.4,5.49c0.15,4.38-5.79,7.22-8.99,4.13
			C501.33,107.72,502.45,101.81,506.43,100.54z"/>
		<path fill="#3FC8F4" d="M294.8,107.82c1.66-0.52,3.41-0.59,5.13-0.83c0.02,1.43,0.05,2.87,0.08,4.31
			c-2.47,0.19-5.96,1.84-4.09,4.84c1.89,0.55,4.08,0.73,5.83-0.38c3.65-2.25,5.21-7.18,9.64-8.29c2.45-0.4,5.21-0.61,7.49,0.55
			c1.86,1.62,3.061,3.92,5.23,5.2c0.069,0.76,0.199,2.28,0.26,3.04c-0.521,0.15-1.57,0.44-2.09,0.58
			c-1.12,1.59-1.99,3.71-4.021,4.32c-1.97,0.51-4.02,0.5-6.029,0.69c0.029-1.72,0.06-3.43,0.1-5.14c2.55,0.17,6.84-0.49,5.01-4.02
			c-4.97-2.35-8.12,2.68-10.99,5.75c-3.979,4.64-12.5,4.38-15.379-1.33c-2.24-0.46-1.92-2.7-2.24-4.42
			c0.59-0.08,1.76-0.24,2.35-0.33C292.16,110.76,292.87,108.61,294.8,107.82z"/>
		<path fill="#3FC8F4" d="M29.36,228.45c3.35-2.41,8.68,0.45,8.47,4.58c0.36,4.33-5.16,7.42-8.64,4.77
			C25.87,235.77,25.93,230.34,29.36,228.45z"/>
		<path fill="#3FC8F4" d="M579.39,228.57c4.08-1.96,9.221,1.94,7.841,6.43c-0.82,3.78-5.341,4.74-8.44,3.3
			C575.26,236.11,575.49,230.21,579.39,228.57z"/>
		<path fill="#3FC8F4" d="M50.87,372.52c-10.98-42.77-11.05-88.29-0.03-131.06c78.08,20.84,156.12,41.82,234.19,62.69
			c3.41,0.88,6.81,1.78,10.14,2.92C213.76,328.99,132.32,350.79,50.87,372.52 M94.55,260.71c-0.81,2.76-1.6,5.53-2.42,8.3
			c-1.47-2.479-2.89-4.979-4.38-7.45c-0.44,2.86-0.81,5.72-1.17,8.59c-1.88-2.28-3.71-4.6-5.56-6.9c0.04,2.96,0.12,5.92,0.16,8.89
			c-2.15-2.01-4.29-4.02-6.47-5.99c0.47,2.89,0.96,5.78,1.41,8.68c-2.41-1.66-4.82-3.32-7.25-4.94c0.9,2.78,1.83,5.55,2.71,8.34
			c-2.6-1.21-5.19-2.44-7.82-3.57c1.28,2.58,2.62,5.13,3.94,7.7c-2.85-0.83-5.69-1.66-8.55-2.46c1.79,2.37,3.58,4.74,5.32,7.14
			c-2.92-0.39-5.85-0.8-8.78-1.17c2.07,2.09,4.15,4.16,6.2,6.27c-2.99,0.07-5.97,0.1-8.96,0.12c2.45,1.74,4.89,3.51,7.28,5.33
			c-2.88,0.47-5.76,0.94-8.62,1.48c2.54,1.39,5.12,2.72,7.7,4.05c-2.66,0.93-5.33,1.85-7.95,2.88c2.64,1.02,5.31,1.93,7.99,2.859
			c-2.56,1.311-5.12,2.591-7.67,3.91c2.84,0.67,5.71,1.19,8.58,1.721c-2.41,1.72-4.82,3.43-7.23,5.16
			c2.97,0.09,5.94,0.129,8.92,0.18c-2.07,2.109-4.17,4.189-6.24,6.29c2.91-0.38,5.83-0.78,8.74-1.149
			c-1.72,2.389-3.49,4.75-5.27,7.109c2.86-0.801,5.7-1.641,8.55-2.471c-1.33,2.58-2.67,5.17-3.97,7.771
			c2.61-1.17,5.19-2.399,7.78-3.601c-0.82,2.791-1.74,5.551-2.65,8.311c2.44-1.64,4.87-3.3,7.32-4.949
			c-0.5,2.909-1.01,5.799-1.5,8.709c2.19-1.97,4.33-3.99,6.48-5.99c-0.04,2.961-0.1,5.91-0.15,8.871c1.86-2.311,3.7-4.631,5.58-6.92
			c0.34,2.83,0.67,5.67,1.08,8.489c1.37-2.31,2.82-4.56,4.4-6.739c1.09,2.489,1.75,5.119,2.48,7.729
			c1.09-2.63,2.15-5.271,3.17-7.931c1.37,2.57,2.65,5.181,3.91,7.811c0.58-2.88,1.15-5.76,1.72-8.641
			c1.61,2.33,3.28,4.611,5.06,6.82c0.2-2.82,0.34-5.64,0.49-8.449c2,2.18,4,4.359,6.04,6.51c-0.27-2.939-0.57-5.87-0.84-8.801
			c2.32,1.83,4.63,3.69,6.95,5.531c-0.71-2.861-1.45-5.711-2.15-8.57c2.56,1.42,5.1,2.859,7.67,4.26c-1.14-2.68-2.3-5.34-3.43-8.02
			c2.74,0.969,5.47,2,8.2,3.029c-1.53-2.5-3.06-5-4.51-7.54c2.83,0.63,5.66,1.271,8.5,1.87c-1.86-2.24-3.76-4.46-5.61-6.72
			c2.92,0.159,5.85,0.34,8.77,0.51c-2.25-1.95-4.51-3.87-6.76-5.81c2.85-0.25,5.7-0.49,8.55-0.791c-2.36-1.709-4.82-3.26-7.31-4.75
			c2.86-0.67,5.71-1.359,8.56-2.069c-2.61-1.229-5.27-2.38-7.91-3.55c2.66-1.17,5.32-2.31,7.94-3.55c-2.85-0.71-5.69-1.38-8.55-2.03
			c2.46-1.53,4.91-3.1,7.27-4.79c-2.85-0.29-5.71-0.54-8.56-0.79c2.26-1.94,4.53-3.87,6.79-5.82c-2.92,0.18-5.85,0.36-8.77,0.52
			c1.83-2.26,3.72-4.47,5.58-6.71c-2.84,0.59-5.67,1.22-8.5,1.83c1.47-2.51,3-4.99,4.47-7.51c-2.73,1.03-5.45,2.08-8.18,3.12
			c1.14-2.71,2.31-5.4,3.44-8.1c-2.57,1.4-5.11,2.85-7.66,4.28c0.7-2.85,1.44-5.68,2.15-8.52c-2.34,1.78-4.64,3.62-6.95,5.44
			c0.28-2.92,0.58-5.83,0.85-8.75c-2.06,2.12-4.05,4.3-6.04,6.49c-0.16-2.84-0.3-5.67-0.5-8.5c-1.76,2.21-3.41,4.5-5.06,6.79
			c-0.58-2.87-1.14-5.74-1.7-8.61c-1.27,2.66-2.56,5.31-3.92,7.92C96.72,266.02,95.68,263.34,94.55,260.71 M152.01,301.12
			c0.56,1.63,1.1,3.27,1.65,4.91c-1.28,1.13-2.54,2.291-3.81,3.43c1.68,0.069,3.36,0.13,5.05,0.21c0.49,1.57,1.01,3.141,1.53,4.71
			c0.59-1.58,1.26-3.13,1.84-4.71c1.86-0.029,3.72-0.13,5.59-0.141c-1.49-1.129-2.99-2.239-4.48-3.349
			c0.54-1.68,1.09-3.35,1.66-5.01c-1.54,0.92-2.97,2.1-4.72,2.59C154.8,303.01,153.42,302.04,152.01,301.12 M173.96,301.19
			c0.44,1.66,0.88,3.32,1.32,4.99c-1.43,1.14-2.86,2.291-4.27,3.44c1.7-0.091,3.41-0.091,5.12-0.17c0.78,1.54,1.44,3.159,2.24,4.7
			c0.56-1.57,1.2-3.09,1.78-4.641c1.5-0.06,3-0.109,4.51-0.16c-1.11-1.039-2.24-2.04-3.35-3.06c0.26-1.51,0.52-3.02,0.8-4.53
			c-1.34,0.7-2.65,1.47-4.06,2.01C176.6,303.06,175.29,302.1,173.96,301.19 M200,303.79c-1.4-0.54-2.69-1.33-3.99-2.07
			c0.22,1.42,0.55,2.85,0.59,4.3c-0.86,1.46-2.36,2.43-3.58,3.57c1.69-0.02,3.38-0.029,5.08-0.04c0.48,1.55,1.08,3.06,1.57,4.62
			c0.73-1.57,1.55-3.09,2.25-4.66c1.67,0.02,3.33,0.051,5,0.09c-1.32-1.22-2.72-2.32-4.04-3.52c0.4-1.62,0.82-3.23,1.25-4.84
			C202.78,302.13,201.46,303.09,200,303.79z"/>
		<path fill="#3FC8F4" d="M439.36,274.6c41.26-11.02,82.489-22.18,123.77-33.11c10.98,42.77,11.05,88.27,0.04,131.039
			C481.69,350.79,400.24,328.99,318.81,307.07C358.89,295.88,399.19,285.48,439.36,274.6 M512.13,260.62
			c-0.67,2.8-1.28,5.62-1.939,8.43c-1.7-2.39-3.341-4.81-4.98-7.22c-0.14,2.99-0.28,5.97-0.43,8.96c-2.011-2.16-4-4.33-6.04-6.45
			c0.25,2.9,0.55,5.81,0.83,8.72c-2.301-1.8-4.58-3.61-6.9-5.36c0.67,2.82,1.4,5.63,2.12,8.44c-2.58-1.44-5.15-2.89-7.73-4.3
			c1.15,2.68,2.33,5.35,3.5,8.03c-2.8-0.98-5.569-2.02-8.359-3c1.609,2.47,3.18,4.96,4.72,7.49c-2.85-0.61-5.689-1.23-8.54-1.8
			c1.851,2.25,3.74,4.46,5.62,6.69c-2.88-0.17-5.76-0.35-8.63-0.52c1.76,1.61,3.51,3.24,5.13,5c0.94,0.18,1.9,0.37,2.85,0.55
			c-0.949-3.11,2.091-4.79,4.25-6.13c0.101-0.54,0.311-1.64,0.42-2.18c1.261-0.02,2.521-0.02,3.79-0.01
			c0.131,0.58,0.4,1.76,0.53,2.34c3.92,1.38,5.03,5.36,5.19,9.12c-1.561,0.02-3.11,0.03-4.65,0.05c-0.21-1.19-0.479-2.35-0.82-3.49
			c-1.189-1.76-4.199-1.28-4.34,1.01c-0.84,4.26,3.48,6.7,6.101,9.21c3.149,2.48,4.17,6.88,3.09,10.649
			c-0.69,3.15-4.5,4.08-5.46,7.131c-1.15,0.029-2.3,0.049-3.44,0.08c-0.09-0.551-0.29-1.65-0.38-2.201
			c-1.61-1.069-3.72-1.869-4.38-3.859c-0.72-2.08-0.7-4.311-0.91-6.471c1.55,0,3.11,0.011,4.67,0.031
			c0.431,1.93-0.189,5.84,2.92,5.459c2.431,0.24,2.801-3.299,2.021-5c-1.891-3.919-6.55-5.66-8.42-9.629
			c-0.761-1.73-0.771-3.67-0.92-5.51c-3.21-0.03-6.41,0.1-9.591,0.39c2.25,1.47,4.62,2.76,6.801,4.35
			c-1.75,1.93-5.36,1.65-7.801,2.69c2.7,1.12,5.421,2.2,8.15,3.27c-2.71,1.25-5.45,2.439-8.18,3.641
			c2.85,0.689,5.7,1.379,8.55,2.059c-2.38,1.551-4.76,3.08-7.07,4.73c2.79,0.34,5.59,0.6,8.391,0.881
			c-2.25,1.969-4.54,3.899-6.83,5.819c3.01-0.21,6.04-0.41,9.06-0.61c-1.97,2.301-3.96,4.561-5.95,6.82
			c2.95-0.62,5.891-1.279,8.851-1.92c-1.58,2.49-3.15,4.99-4.681,7.52c2.74-0.99,5.45-2.039,8.171-3.069
			c-1.101,2.7-2.24,5.39-3.311,8.11c2.55-1.44,5.09-2.92,7.63-4.391c-0.729,2.859-1.47,5.721-2.17,8.58
			c2.33-1.79,4.63-3.62,6.94-5.439c-0.29,2.91-0.58,5.81-0.83,8.729c2.05-2.11,4.05-4.261,6.04-6.42
			c0.149,2.97,0.279,5.93,0.439,8.899c1.561-2.34,3.09-4.709,4.91-6.869c0.8,2.55,1.34,5.18,1.96,7.789
			c1.351-2.479,2.58-5.01,3.811-7.549c1.01,2.739,2.08,5.469,3.199,8.17c0.801-2.791,1.57-5.601,2.36-8.391
			c1.521,2.46,2.95,4.98,4.36,7.51c0.52-2.89,0.93-5.789,1.31-8.689c1.8,2.31,3.63,4.6,5.54,6.83c-0.07-2.87-0.15-5.74-0.18-8.61
			c2.21,1.92,4.359,3.91,6.52,5.88c-0.52-2.9-1.05-5.79-1.529-8.689c2.449,1.6,4.869,3.26,7.3,4.91
			c-0.91-2.811-1.84-5.61-2.721-8.42c2.65,1.279,5.301,2.569,7.971,3.81c-1.37-2.66-2.75-5.3-4.11-7.95
			c2.76,0.85,5.53,1.721,8.311,2.529c-1.591-2.439-3.301-4.799-4.99-7.159c2.93,0.42,5.88,0.84,8.819,1.26
			c-2.109-2.09-4.21-4.19-6.239-6.36c2.83-0.049,5.68-0.069,8.52-0.119c-2.22-1.801-4.479-3.53-6.72-5.28
			c2.87-0.511,5.729-1.011,8.6-1.54c-2.64-1.33-5.26-2.68-7.859-4.061c2.72-0.899,5.43-1.85,8.09-2.939
			c-2.63-0.9-5.26-1.75-7.88-2.66c2.479-1.47,5-2.85,7.529-4.23c-2.819-0.45-5.64-0.9-8.439-1.39c2.24-1.84,4.55-3.58,6.87-5.31
			c-2.94-0.07-5.891-0.09-8.82-0.11c2.06-2.09,4.14-4.17,6.18-6.3c-2.909,0.37-5.819,0.77-8.72,1.16c1.75-2.35,3.5-4.71,5.19-7.1
			c-2.83,0.78-5.63,1.62-8.44,2.46c1.37-2.63,2.74-5.26,4.08-7.9c-2.69,1.26-5.36,2.55-8.03,3.84c0.94-2.82,1.91-5.62,2.87-8.43
			c-2.46,1.6-4.89,3.24-7.33,4.86c0.48-2.92,0.99-5.83,1.48-8.74c-2.181,2.04-4.36,4.08-6.55,6.11c0.069-2.99,0.17-5.98,0.26-8.96
			c-1.88,2.33-3.73,4.69-5.58,7.05c-0.36-2.82-0.74-5.64-1.19-8.45c-1.59,2.39-3.029,4.86-4.43,7.36c-0.76-2.74-1.53-5.48-2.37-8.19
			c-1.149,2.55-2.29,5.11-3.399,7.68C514.52,265.76,513.34,263.18,512.13,260.62 M412.08,304.51c-1.68-0.05-3.36-0.09-5.04-0.13
			c1.33,1.2,2.72,2.33,4.06,3.53c-0.39,1.619-0.77,3.24-1.159,4.869c1.31-0.899,2.6-1.869,4.04-2.579
			c1.38,0.54,2.64,1.329,3.93,2.06c-0.18-1.539-0.57-3.08-0.41-4.63c1.06-1.18,2.3-2.18,3.51-3.21c-1.71,0.01-3.42,0-5.12,0.02
			c-0.5-1.54-1.06-3.06-1.56-4.59C413.6,301.42,412.78,302.94,412.08,304.51 M435.62,299.86c-0.58,1.56-1.21,3.1-1.8,4.67
			c-1.511,0.01-3.011,0.04-4.511,0.08c1.21,1.07,2.301,2.3,3.521,3.38c-0.37,1.41-0.79,2.8-1.15,4.22
			c1.41-0.69,2.801-1.47,4.301-1.97c1.449,0.71,2.76,1.689,4.09,2.609c-0.46-1.66-0.91-3.32-1.351-4.979
			c1.42-1.16,2.851-2.32,4.28-3.48c-1.73,0.06-3.46,0.07-5.17,0.15C437.11,302.96,436.37,301.41,435.62,299.86 M455.69,304.35
			c-1.83,0.01-3.66,0.1-5.48,0.11c1.45,1.16,2.95,2.27,4.41,3.431c-0.55,1.639-1.07,3.289-1.62,4.939c1.52-0.9,2.93-2.18,4.7-2.551
			c1.5,0.721,2.87,1.701,4.27,2.621c-0.58-1.69-1.14-3.391-1.689-5.09c1.51-1.13,3.05-2.221,4.569-3.351
			c-1.93-0.01-3.84-0.08-5.76-0.1c-0.5-1.57-1-3.15-1.49-4.72C456.93,301.2,456.34,302.78,455.69,304.35z"/>
		<path fill="#3FC8F4" d="M501.45,288.08c4.34-0.15,8.68-0.14,13.02-0.11c-0.01,1.67-0.02,3.34-0.02,5.01c-2.83,0-5.67,0-8.5,0.01
			c-0.181,1.89-0.38,3.78-0.58,5.67c2.12-1.15,4.74-2.54,7.1-1.09c3.28,1.86,2.8,6.18,2.99,9.4c-0.18,3.959,0.64,8.98-2.91,11.74
			c-2.89,1.99-7.22,1.851-9.92-0.399c-2.29-2.09-1.89-5.49-2.189-8.281c1.52-0.02,3.05-0.02,4.579-0.029
			c0.211,1.43,0.32,2.9,0.69,4.311c1.5,1.189,4.43,1.119,4.49-1.301c0.06-3.58,1.34-8.15-1.28-11.03c-2.28-0.58-3.5,1.07-4.22,2.95
			c-1.38,0.03-2.76,0.06-4.141,0.1C500.86,299.38,501.21,293.73,501.45,288.08z"/>
		<path fill="#3FC8F4" d="M521.37,288.58c3.93-1.73,9.729-0.2,10.71,4.43c0.68,4.29,0.18,8.67,0.33,13.01
			c-0.09,3.259,0.359,6.63-0.58,9.8c-2.271,6.209-13.29,5.539-14.22-1.24c-0.5-6.189-0.12-12.43-0.21-18.63
			C517.25,293.02,518.43,289.71,521.37,288.58 M523.29,293.46l-0.55,0.42c-0.75,6.3-0.311,12.72-0.24,19.05
			c-0.12,2.771,4.8,2.91,4.82,0.12c0.39-6.01,0.39-12.08,0-18.09C527.37,293.01,524.56,292.27,523.29,293.46z"/>
		<path fill="#3FC8F4" d="M539.43,288.56c3.67-1.51,8.91-0.45,10.4,3.62c1.06,3.84,0.42,7.88,0.57,11.81
			c-0.141,3.91,0.47,7.92-0.54,11.74c-2.19,6.319-13.38,5.67-14.25-1.201c-0.49-6.159-0.13-12.359-0.21-18.539
			C535.23,293.03,536.44,289.68,539.43,288.56 M541.3,293.39c-0.17,0.24-0.52,0.72-0.689,0.96c-0.46,6.16-0.25,12.39-0.12,18.57
			c-0.12,2.76,4.77,2.939,4.83,0.15c0.39-6.021,0.39-12.12,0-18.15C545.29,292.95,542.66,292.38,541.3,293.39z"/>
		<path fill="#3FC8F4" d="M121.83,290.06c1.16-0.05,2.32-0.1,3.49-0.13c0.05,0.54,0.15,1.6,0.2,2.13c1.66,1.09,3.8,1.93,4.5,3.98
			c0.75,2.05,0.66,4.27,0.85,6.41c-1.51,0.04-3.02,0.07-4.53,0.12c-0.48-2.07,0-6.33-3.32-5.52c-2.55,0.12-2.33,3.82-1.5,5.54
			c2.67,4.06,8.27,6.16,8.91,11.49c0.98,4.061-0.98,8.29-4.89,9.891c-0.06,0.529-0.17,1.579-0.22,2.109
			c-1.17-0.03-2.34-0.07-3.51-0.12c-0.96-2.2-3-3.489-4.61-5.13c-1.15-1.84-1.02-4.16-1.45-6.221c1.55-0.039,3.09-0.09,4.64-0.129
			c0.56,1.529,0.38,4.85,2.68,4.549c2.66,0.341,2.92-3.09,2.26-4.899c-1.72-3.88-6.2-5.489-8.23-9.13c-1.46-2.79-1.5-6.26-0.3-9.14
			C118.29,293.77,120.68,292.44,121.83,290.06z"/>
		<path fill="#3FC8F4" d="M67.47,292.54c3.92-1.66,9.7-0.09,10.59,4.54c0.74,4.92,0.17,9.93,0.37,14.891
			c-0.08,2.819,0.28,5.799-0.89,8.459c-2.76,5.58-12.99,4.7-13.95-1.81c-0.46-6.181-0.09-12.41-0.2-18.6
			C63.17,297,64.49,293.69,67.47,292.54 M69.29,297.43c-0.18,0.23-0.55,0.68-0.74,0.91c-0.64,5.2-0.16,10.471-0.31,15.7
			c0.27,1.681-0.5,4.46,1.82,4.899c1.91,0.891,3.61-1.129,3.29-2.949c0.08-5.68,0.26-11.38-0.12-17.05
			C73.23,297.01,70.64,296.32,69.29,297.43z"/>
		<path fill="#3FC8F4" d="M86.2,292.15c3.64-0.93,8.46,0.7,9.32,4.74c0.73,4.33,0.2,8.76,0.36,13.129
			c-0.11,3.351,0.39,6.83-0.67,10.07c-2.29,5.32-11.19,5.37-13.63,0.131c-1.04-2.611-0.65-5.521-0.74-8.261
			c0.14-4.65-0.21-9.31,0.17-13.94C81.15,295.14,83.48,292.8,86.2,292.15 M87.19,297.18l-0.72,0.32C85,301.81,86,306.52,85.7,311
			c0.26,2.62-0.71,5.91,1.35,7.98c1.59,0.24,3.7,0.049,3.68-2c0.27-5.98,0.28-12.01-0.01-17.99
			C90.74,297.17,88.63,296.49,87.19,297.18z"/>
		<path fill="#3FC8F4" d="M99.31,296.15c1.74-4.71,8.46-5.48,12.02-2.47c2.34,2.07,1.93,5.51,2.22,8.32c-1.52,0-3.05-0.01-4.56-0.01
			c-0.09-2.47-0.5-5.93-3.94-5.03c-2.6,3.15-1.45,8.11-1.02,11.91c1.57,2.64,4.8,0.58,5.27-1.79c1.38-0.04,2.75-0.08,4.13-0.12
			c-0.29,5.66-0.64,11.31-0.88,16.97c-4.34,0.141-8.68,0.131-13.02,0.11c0-1.67,0.01-3.34,0.01-5.011c2.83,0,5.67-0.01,8.51-0.01
			c0.18-1.899,0.37-3.789,0.58-5.67c-2.13,1.131-4.72,2.521-7.08,1.11c-2.68-1.41-2.84-4.75-2.96-7.4
			C98.57,303.42,98.27,299.67,99.31,296.15z"/>
		<path fill="#3FC8F4" d="M306.91,319.721c4.49,14.289,7.85,28.92,11.89,43.34C335.65,426,352.51,488.94,369.36,551.88
			c1.069,3.84,2.149,7.68,2.819,11.62c-41.569,10.55-85.68,10.92-127.37,0.76c-0.92-0.66-3.77-0.34-2.84-2.13
			c10.47-39.74,21.24-79.41,31.82-119.12C284.86,401.92,295.67,360.76,306.91,319.721 M299.58,475.86
			c-10.64,1.96-20.5,8.27-26.42,17.37c-6.44,9.539-8.35,21.899-5.28,32.97c4.13,15.85,18.79,28.21,35.14,29.45
			c13.62,1.369,27.66-4.87,35.77-15.891c7.64-10,10.08-23.689,6.43-35.729c-3.27-11.351-11.92-20.971-22.8-25.54
			C315.29,475.29,307.24,474.75,299.58,475.86z"/>
		<path fill="#3FC8F4" d="M31.64,374.811c3.95-0.4,7.39,4.049,5.71,7.77c-1.53,4.27-8.48,4.42-10.2,0.24
			C25.35,379.5,28.01,375.2,31.64,374.811z"/>
		<path fill="#3FC8F4" d="M579.51,375.641c3.59-1.561,7.96,1.42,7.8,5.319c0.061,4.261-5.399,7.11-8.8,4.45
			C574.9,383.16,575.67,377.23,579.51,375.641z"/>
		<path fill="#3FC8F4" d="M295.02,491.03c2.06-0.761,4.31-0.62,6.47-0.851c-0.01,1.75-0.02,3.511-0.02,5.271
			c-1.67,0.01-3.34,0.069-5,0.1c-0.08,1.4-0.14,2.8-0.19,4.22c2.32-0.17,5.17,0.471,6.83-1.609c3.36-3.311,6.42-8.32,11.871-7.76
			c4.52-0.83,6.38,3.819,9.75,5.649c-0.04,0.94-0.07,1.9-0.091,2.87c-2.34,1.16-3.51,3.62-5.5,5.19c-1.71,0.68-3.62,0.56-5.42,0.8
			c-0.01-1.41-0.01-2.82-0.01-4.23c1.51-0.729,4.34-0.319,4.4-2.569c-0.15-0.73-0.46-2.181-0.62-2.91
			c-2.7,0.27-5.771,0.45-7.561,2.81c-2.88,3.271-5.939,7.641-10.959,6.82c-4.58,0.82-6.03-4.19-9.38-5.99
			c0.01-0.67,0.03-2.01,0.04-2.689C291.76,494.8,293,492.48,295.02,491.03z"/>
		<path fill="#3FC8F4" d="M103.24,503.24c4.08-2.521,9.58,2.35,7.75,6.72c-1.01,3.79-6.51,5.14-9.1,2.21
			C99.1,509.78,99.79,504.64,103.24,503.24z"/>
		<path fill="#3FC8F4" d="M505.4,503.58c3.68-1.74,8.63,0.96,8.149,5.26c0.021,5.101-7.609,6.93-10.149,2.74
			C501.43,509.03,502.53,504.95,505.4,503.58z"/>
		<path fill="#3FC8F4" d="M312.23,507.39c2.859,0.25,6.22-0.359,8.539,1.78c2.931,2.771,3.011,7.99,0.4,11.01
			c-2.939,2.761-7.56,2.63-11.07,1.09c-5.41-1.949-8.26-7.909-14.05-9.119c-0.07,3.119-0.07,6.239-0.07,9.369
			c-1.49,0-2.97,0.011-4.46,0.021c0.02-4.71,0.02-9.42,0-14.13c3.65,0.06,7.71-0.15,10.66,2.41c4.12,3.26,7.99,8.31,13.91,7.51
			c2.5-0.19,2.41-2.83,2.36-4.69c-2.04-0.159-4.07-0.29-6.101-0.39C312.3,510.62,312.27,509.01,312.23,507.39z"/>
		<path fill="#3FC8F4" d="M296.41,524.58c4.51-0.521,9.07-0.08,13.609-0.23c2.961,0.091,6.03-0.33,8.91,0.561
			c5.99,2.229,5.351,12.85-1.029,14.12c-4.591,0.7-9.271,0.16-13.891,0.34c-2.94-0.09-6.02,0.35-8.84-0.69
			C289.43,536.18,289.94,525.76,296.41,524.58 M297.34,529.51c-2.48,0.44-2.01,4.91,0.62,4.76c5.01,0.33,10.04,0.051,15.07,0.16
			c1.87-0.12,4.149,0.311,5.38-1.489c0.8-1.74-0.55-3.78-2.46-3.54C309.75,529.3,303.52,529.13,297.34,529.51z"/>
		<path fill="#3FC8F4" d="M231.45,576.64c3.81-1.37,8.14,2.28,7.19,6.28c-0.47,4.34-6.62,6.23-9.46,2.9
			C226.22,583.11,227.62,577.68,231.45,576.64z"/>
		<path fill="#3FC8F4" d="M379.43,576.57c3.221-0.69,6.74,2.069,6.48,5.439c0.39,4.3-5.19,7.311-8.58,4.67
			C373.39,584.24,374.63,577.09,379.43,576.57z"/>
	</g>
	<g id="_x23_ffffffff">
		<path fill="#FFFFFF" d="M286.06,33.16c69.31-5.68,140.26,16.73,194.03,60.73c32.36,26.29,58.641,60.04,76.021,97.95
			c18.37,39.92,27.12,84.26,25.02,128.16c-1.89,40.91-13.189,81.33-32.66,117.36c-17.27,32.13-41.029,60.76-69.42,83.67
			c-30.79,24.899-67.109,42.85-105.53,52.399c-43.55,10.98-89.81,11.021-133.35-0.02c-41.94-10.55-81.33-31.15-113.83-59.69
			c-39.76-34.59-69.03-80.97-83.27-131.7c-12.98-45.449-13.98-94.26-2.65-140.16c11.45-46.88,35.47-90.65,68.98-125.39
			C155.33,68.13,219.64,38.12,286.06,33.16 M243.04,50.35c-2.05,0.15-0.8,2.1-0.67,3.36c21.58,80.17,42.82,160.43,64.52,240.57
			c1.301-3.38,2.221-6.87,3.101-10.37c20.79-77.76,41.649-155.51,62.43-233.28C330.24,39.7,285.25,39.54,243.04,50.35 M378.28,52.14
			c-21.79,81.62-43.87,163.16-65.431,244.84c59.761-59.63,119.41-119.35,179.04-179.11C460.32,86.9,420.83,64.14,378.28,52.14
			 M122.13,117.88c59.57,59.76,119.26,119.41,178.94,179.07c-1.45-7.05-3.61-13.92-5.38-20.88
			c-20.08-74.64-39.81-149.37-60.1-223.94C193.12,64.23,153.54,86.75,122.13,117.88 M52.41,235.57
			c81.33,21.93,162.75,43.59,244.1,65.44C237.04,241.3,177.42,181.72,117.92,122.03C87.12,153.68,64.41,193.07,52.41,235.57
			 M317.65,300.96c81.3-21.83,162.659-43.44,243.909-65.42c-11.939-42.51-34.579-81.96-65.479-113.51
			C436.65,181.72,376.96,241.15,317.65,300.96 M50.87,372.52c81.45-21.729,162.89-43.529,244.3-65.45
			c-3.33-1.14-6.73-2.04-10.14-2.92c-78.07-20.87-156.11-41.85-234.19-62.69C39.82,284.23,39.89,329.75,50.87,372.52 M439.36,274.6
			c-40.17,10.88-80.471,21.28-120.551,32.47c81.431,21.92,162.881,43.72,244.36,65.459c11.01-42.77,10.94-88.27-0.04-131.039
			C521.85,252.42,480.62,263.58,439.36,274.6 M52.44,378.48c11.94,42.5,34.57,81.97,65.49,113.5
			C177.38,432.3,237.05,372.82,296.4,313.04C215.09,334.88,133.71,356.49,52.44,378.48 M317.49,312.99
			c59.46,59.74,119.08,119.319,178.59,178.99c30.81-31.631,53.51-71.03,65.51-113.521C480.26,356.51,398.84,334.87,317.49,312.99
			 M122.11,496.14c31.56,30.98,71.06,53.75,113.62,65.73c21.77-81.62,43.87-163.16,65.41-244.83
			C241.39,376.67,181.74,436.4,122.11,496.14 M312.88,317.04c8.99,35.05,18.67,69.92,27.93,104.91
			c12.49,46.63,24.94,93.27,37.46,139.89c42.57-11.91,82.16-34.59,113.601-65.7C432.26,436.38,372.6,376.68,312.88,317.04
			 M306.91,319.721c-11.24,41.039-22.05,82.199-33.12,123.289c-10.58,39.71-21.35,79.38-31.82,119.12
			c-0.93,1.79,1.92,1.47,2.84,2.13c41.69,10.16,85.8,9.79,127.37-0.76c-0.67-3.94-1.75-7.78-2.819-11.62
			C352.51,488.94,335.65,426,318.8,363.061C314.76,348.641,311.4,334.01,306.91,319.721z"/>
		<path fill="#FFFFFF" d="M298.49,56.77c10.279-2.23,21.41-0.27,30.24,5.48c8.199,5.26,14.38,13.59,16.989,22.99
			c2.82,9.99,1.63,21.06-3.38,30.17c-5.84,10.91-17.02,18.74-29.25,20.58c-9.92,1.63-20.34-0.87-28.64-6.48
			c-9.84-6.6-16.49-17.74-17.49-29.56c-0.89-9.21,1.51-18.7,6.72-26.35C279.38,65.08,288.46,58.9,298.49,56.77 M294.36,72.51
			c-5.52,2.7-4.77,13.01,1.68,13.94c6.31,0.43,12.66,0.12,18.979,0.18c2.521,0.14,5.181-0.83,6.471-3.12
			c2.14-3.79,1.109-10.04-3.521-11.39c-4.26-0.94-8.66-0.31-12.979-0.48C301.45,71.77,297.72,71.13,294.36,72.51 M293.26,91.23
			c-3.24,2.69-3.35,8.1-0.71,11.24c2.29,2.43,5.93,1.9,8.95,2.17c-0.03-1.61-0.06-3.22-0.09-4.83c-1.94-0.11-3.88-0.29-5.81-0.43
			c-0.11-1.33-0.21-2.65-0.29-3.98c2.11-0.45,4.35-1.14,6.48-0.3c4.74,1.4,7.4,6.03,11.65,8.25c2.71,1.46,5.869,1.1,8.829,1.24
			c0-4.7,0-9.41-0.01-14.11c-1.51,0-3.01,0-4.51,0c0,3.17-0.02,6.34-0.13,9.51c-5.521-1.47-8.44-6.99-13.61-9.1
			C300.67,89.34,296.38,88.99,293.26,91.23 M294.8,107.82c-1.93,0.79-2.64,2.94-3.72,4.54c-0.59,0.09-1.76,0.25-2.35,0.33
			c0.32,1.72,0,3.96,2.24,4.42c2.88,5.71,11.4,5.97,15.379,1.33c2.87-3.07,6.021-8.1,10.99-5.75c1.83,3.53-2.46,4.19-5.01,4.02
			c-0.04,1.71-0.07,3.42-0.1,5.14c2.01-0.19,4.06-0.18,6.029-0.69c2.03-0.61,2.9-2.73,4.021-4.32c0.52-0.14,1.569-0.43,2.09-0.58
			c-0.061-0.76-0.19-2.28-0.26-3.04c-2.17-1.28-3.37-3.58-5.23-5.2c-2.28-1.16-5.04-0.95-7.49-0.55c-4.43,1.11-5.99,6.04-9.64,8.29
			c-1.75,1.11-3.94,0.93-5.83,0.38c-1.87-3,1.62-4.65,4.09-4.84c-0.03-1.44-0.06-2.88-0.08-4.31
			C298.21,107.23,296.46,107.3,294.8,107.82z"/>
		<path fill="#FFFFFF" d="M295.41,81.39c0.18-1.69-0.7-4.17,1.68-4.57c4.61-0.54,9.271-0.08,13.9-0.25c1.91,0.12,4-0.3,5.779,0.56
			c1.931,0.7,0.75,2.87,0.851,4.35C310.22,81.76,302.8,81.89,295.41,81.39z"/>
		<path fill="#FFFFFF" d="M408.6,81.93c9.511-0.88,19.29,1.88,26.99,7.52c9.521,6.77,15.68,17.96,16.49,29.59
			c0.74,8.9-1.66,18-6.63,25.41c-6.13,9.38-16.42,15.89-27.5,17.46c-13.58,2.27-28.04-3.38-36.8-13.93
			c-11.891-13.81-12.5-35.73-1.28-50.12C386.56,88.73,397.34,82.84,408.6,81.93 M413.27,89.37c-3.189,1.34-5.17,5.18-4.71,8.57
			c0.641,3.74,4.5,5.29,7.381,7.04c4.55,2.36,8.72,5.47,13.47,7.41c6.28,2.25,11.96-6.68,7.729-11.54
			c-3.279-3.27-7.729-4.95-11.58-7.41C421.8,91.35,417.88,88.06,413.27,89.37 M404.35,104.46c-4.17,1.98-6.479,8.49-2.71,11.94
			c3.78,3.08,8.33,5,12.42,7.61c2.551,1.34,4.96,3.34,7.931,3.64c6.189,1.05,10.59-8.34,5.77-12.4c-3.359-2.83-7.47-4.55-11.16-6.88
			C412.87,106.25,408.93,103.02,404.35,104.46 M395.31,117.92c-0.329,0.91-0.68,1.81-1.04,2.71c2.29,2.68-0.529,7.33,3.44,8.66
			c0.58-1.1,1.17-2.19,1.76-3.29c7.101,3.76,13.891,8.09,20.96,11.92c0.771-1.41,1.54-2.81,2.32-4.21
			C413.63,128.41,404.59,122.94,395.31,117.92 M386.65,133.81c-0.61-0.09-1.82-0.28-2.42-0.38c-0.311,0.67-0.91,2.01-1.211,2.68
			c0.94,2.43,1.141,5.14,2.33,7.47c2.261,2.83,6.011,4.66,9.66,3.92c3.83-0.7,7.57-3.14,11.57-1.9c2.05,0.78,2.71,3.06,1.55,4.89
			c-2.08,0.01-4.01-0.81-5.95-1.43c-0.729,1.46-1.43,2.93-2.14,4.4c3.49,1.93,7.89,3.24,11.26,0.3c0.641,0.021,1.9,0.05,2.53,0.07
			c0.41-0.95,0.82-1.88,1.24-2.82c-0.36-0.3-1.08-0.91-1.45-1.21c0.67-4.99-3.64-9.53-8.57-9.52c-3.91-0.4-7.34,1.88-11.109,2.31
			c-2.11,0.24-4.971-1.03-4.95-3.45c0.04-3.15,3.76-1.34,5.62-1.38c0.689-1.3,1.37-2.61,2.05-3.91
			C393.43,132.36,389.75,131.61,386.65,133.81z"/>
		<path fill="#FFFFFF" d="M195.39,84.57c7.48-0.95,15.28-0.28,22.21,2.83c12.49,5.28,21.75,17.3,23.8,30.69
			c1.62,10.24-0.84,21.06-6.84,29.53c-7.82,11.32-21.81,18.08-35.56,16.96c-17.15-0.78-32.64-13.98-36.44-30.67
			c-2.73-11.22-0.36-23.56,6.39-32.93C175.06,92.23,184.89,86.28,195.39,84.57 M197.41,99.53c-5.72,3.2-11.57,6.27-16.98,9.99
			c-5.57,4.01-0.94,14.06,5.67,12.88c3.91-1,7.12-3.65,10.65-5.51c3.47-2.21,7.61-3.67,10.27-6.92
			C210.71,104.41,203.57,95.5,197.41,99.53 M199.96,118.02c-2.31,1.43-5.11,3.08-5.48,6.07c-0.09,2.49,2.23,4.04,3.43,5.98
			c-1.56,1.04-3.24,1.89-4.87,2.82c-1.38-2.44-2.79-4.85-4.18-7.27c-1.21,0.58-2.44,1.13-3.61,1.81c0.93,4.27,4.1,7.68,6.02,11.55
			c5.36-2.52,10.58-5.34,15.88-7.99c-0.66-1.28-1.37-2.521-2.03-3.79c-1.57,0.15-3.13,0.26-4.69,0.38c-0.12-1.14-0.19-2.29-0.2-3.45
			c2.87-2.75,6.66-4.23,10.12-6.1c0.55,1.24,1.58,2.37,1.63,3.78c-1.2,1.18-2.62,2.11-3.81,3.31c0.54,1.43,1.31,2.76,2,4.13
			c1.66-1.02,3.45-1.87,4.86-3.25c4.23-4.28-0.07-13.02-6.01-12.35C205.72,114.41,202.87,116.36,199.96,118.02 M210.28,133.26
			c-2.11,3.2-1.92,7.24-3.36,10.69c-0.99,1.63-2.61,2.73-3.97,4.01c-0.85-0.74-1.64-1.52-2.39-2.35c-1.03-1.88,1.72-2.86,2.58-4.17
			c-0.69-1.2-1.45-2.36-2.23-3.49c-4.95,1.15-4.77,6.64-6.56,10.36c0.47,0.74,0.95,1.47,1.42,2.21c1.86,0.01,3.62,0.61,5.34,1.25
			c2.87,1.37,5.94-0.71,8.15-2.48c3.92-3.5,2.61-9.52,5.47-13.6c1.19-1.77,3.61-1.25,5.42-1.68c0.72,2.88-1.56,4.55-3.59,6.06
			c0.72,1.33,1.43,2.66,2.16,3.99c2.09-1.13,4.63-2.1,5.71-4.41c0.66-2.31,1.09-4.68,1.83-6.97c-0.43-0.81-0.86-1.63-1.29-2.44
			c-0.8,0.13-1.6,0.26-2.4,0.39c-1.51-0.74-3.04-1.47-4.56-2.19C215.26,129.68,211.98,130.55,210.28,133.26z"/>
		<path fill="#FFFFFF" d="M413.85,93.83c4.521,0.39,8.08,3.33,11.91,5.41c2.5,1.479,5.2,2.69,7.37,4.65
			c1.54,1.24,0.08,4.29-1.87,3.78c-3.74-1.19-6.88-3.71-10.33-5.52c-2.569-1.58-5.55-2.7-7.54-5.05
			C413.5,96.28,413.74,94.64,413.85,93.83z"/>
		<path fill="#FFFFFF" d="M190.19,109.28c3.62-1.94,6.98-4.41,10.85-5.86c1.03,0.8,2.01,1.66,2.94,2.59
			c-3.35,3.59-7.98,5.43-12.06,8.01c-2.46,1.56-5.09,2.85-7.85,3.77c-0.45-0.78-1.34-2.36-1.79-3.14
			C184.59,112.41,187.38,110.8,190.19,109.28z"/>
		<path fill="#FFFFFF" d="M405.38,109c4.101,0.22,7.32,2.93,10.78,4.81c2.89,1.76,6.07,3.13,8.6,5.43c0,1.19-0.029,2.38-0.069,3.57
			c-2.03-0.18-4.061-0.54-5.79-1.67c-4.87-2.97-10.011-5.54-14.65-8.9C404.54,111.43,405.1,109.81,405.38,109z"/>
		<path fill="#FFFFFF" d="M477.42,160.74c10.58-2.9,22.5-1.94,32,3.81c8.65,4.94,15.17,13.32,18.11,22.82
			c3.04,9.72,2.17,20.58-2.351,29.71c-4.59,9.47-13.08,16.98-23.06,20.35c-10.66,3.73-22.87,2.57-32.69-2.99
			c-8.989-4.96-15.819-13.57-18.79-23.38c-3.33-10.73-1.85-22.83,3.95-32.45C459.64,170.09,467.97,163.67,477.42,160.74 M495.14,177
			c-2.85,1.12-5.62,3.72-5.29,7.04c0.551,3.56,2.841,6.49,4.521,9.58c2.32,3.71,4.03,7.83,6.899,11.18
			c4.091,4.71,13.15,0.29,12.25-5.8c-0.439-3.19-2.479-5.83-3.97-8.59c-2.319-3.74-4.16-7.76-6.77-11.3
			C501.09,176.77,497.79,175.84,495.14,177 M478.7,192.05c0.359,0.49,1.069,1.48,1.42,1.97c1.2-0.35,2.41-0.69,3.62-1.02
			c3.939,6.81,7.779,13.68,11.88,20.4c1.36-0.78,2.72-1.56,4.1-2.33c-5.14-9.3-10.6-18.42-15.85-27.66
			C480.73,185.32,481.3,189.61,478.7,192.05 M467.26,191.22c-0.779,0.561-1.55,1.13-2.31,1.7c-0.61,3.8-2.91,7.92-0.3,11.5
			c2.09,4.37,7.159,5.13,11.399,6c2.86,0.4,5.58,2.6,5.58,5.68c-1.899,3.77-4.95-0.18-6.13-2.32c-1.43,0.8-2.86,1.59-4.28,2.39
			c1.42,2.08,2.58,4.6,4.91,5.84c1.48,0.51,3.08,0.41,4.63,0.54c0.4,0.41,1.19,1.22,1.59,1.63c3.16-1.87,3.341-5.96,4.101-9.17
			c-0.391-3.5-2.57-6.95-5.891-8.32c-2.819-1.13-5.88-1.35-8.729-2.34c-2.5-0.83-4.65-3.97-2.97-6.45
			c2.37-1.44,3.71,1.09,5.189,2.47c1.28-0.76,2.561-1.53,3.851-2.29c-2.011-3.25-5.051-5.76-9.08-5.49
			C468.29,192.13,467.77,191.67,467.26,191.22z"/>
		<path fill="#FFFFFF" d="M118.03,161.89c8.82-1.39,18.08,0.04,25.87,4.46c10.44,5.53,17.96,16.03,20.13,27.62
			c1.89,9.6,0.13,19.85-4.91,28.24c-5.39,9.27-14.69,16.11-25.11,18.59c-9.7,2.27-20.26,1.02-28.95-3.93
			c-11.07-6-18.82-17.54-20.36-30.01c-1.34-9.61,1.04-19.64,6.47-27.68C97.16,169.97,107.24,163.7,118.03,161.89 M112.58,191.6
			c-1.38,2.65-3.64,5.87-1.93,8.87c1.13,2.48,4.12,2.22,6.37,2.53c-1.19,1.84-2.37,3.69-3.54,5.54c-2.46-1.47-4.96-2.89-7.47-4.26
			c-0.65,1.39-1.32,2.78-1.96,4.189c3.73,2.04,7.39,4.2,11.06,6.35c3.3-4.99,6.52-10.02,9.83-15c-1.28-0.82-2.58-1.58-3.86-2.39
			c-1.28,1.81-4.27,3.53-5.6,0.77c0.46-3.62,2.77-6.84,4.92-9.71c1.47-2.26,3.13,0.229,4.51,1.17c-0.81,1.5-1.6,3.01-2.42,4.5
			c1.35,0.9,2.71,1.81,4.06,2.72c1.34-2.45,3.21-5,2.71-7.95c-0.67-3.8-4.71-6.19-8.34-6.21
			C116.45,183.52,114.68,188.16,112.58,191.6 M138.31,192.2c-4.51-0.76-8.34,2.6-9.38,6.81c-1.9,5.67,4.59,11.41,0.91,16.79
			c-1.12,1.88-3.32,0.43-4.73-0.24c0.5-1.46,1-2.92,1.51-4.37c-1.34-0.7-2.68-1.4-4.01-2.09c-1.95,3.2-2.54,7.03-0.15,10.19
			c-0.09,0.61-0.25,1.84-0.34,2.46c0.99,0.45,1.97,0.91,2.96,1.36c0.33-0.37,0.99-1.11,1.32-1.48c4.78,0.8,8.7-3.02,9.53-7.49
			c1.44-5.36-4.35-10.53-1.41-15.68c0.78-1.75,2.99-0.94,4.48-1.31c-0.12,2.14-0.7,4.21-1.54,6.18c1.36,0.84,2.71,1.68,4.08,2.53
			c2.28-3.38,3.63-7.87,0.8-11.36c0.06-0.6,0.18-1.78,0.23-2.37c-0.72-0.43-2.17-1.29-2.89-1.72
			C139.34,190.86,138.65,191.75,138.31,192.2z"/>
		<path fill="#FFFFFF" d="M383.36,169.68c0.1,1.9,0.069,3.81,0.14,5.71c1.91,0.19,3.83,0.38,5.74,0.65
			c-1.61,0.19-3.221,0.37-4.83,0.53c0.03,2.22,0.05,4.44,0.05,6.66c-0.43-1.26-0.83-2.53-1.21-3.8c-1.42,0-2.84,0.01-4.26,0.02
			c-0.641,0.82-1.28,1.65-1.92,2.48c0.97-1.98,1.939-3.96,2.85-5.97c-1.29-1-2.74-1.73-4.01-2.73c1.78,0.62,3.56,1.34,5.479,1.42
			C382.73,173.39,382.68,171.31,383.36,169.68z"/>
		<path fill="#FFFFFF" d="M495.43,182.28c1.021-1.99,3.69-0.62,4.32,1.09c2.98,5.2,6.38,10.22,8.74,15.74
			c0.87,1.98-1.59,3.07-3.2,2.71c-2.22-2.32-3.521-5.3-5.14-8.02c-1.78-3.28-4-6.35-5.4-9.84
			C494.92,183.54,495.26,182.7,495.43,182.28z"/>
		<path fill="#FFFFFF" d="M372.36,187.83c0.1,2.13,0.1,4.28,0.319,6.41c1.811,0.27,3.641,0.45,5.471,0.65
			c-1.561,0.31-3.15,0.46-4.7,0.72c0.02,2.17,0.03,4.34,0.03,6.51c-0.4-1.28-0.79-2.57-1.15-3.85c-1.43,0.07-2.84,0.15-4.26,0.24
			c-0.71,0.75-1.41,1.5-2.11,2.25c0.8-1.26,1.68-2.47,2.54-3.69c-0.01-0.82-0.03-2.45-0.04-3.27c-1.21-0.42-2.41-0.83-3.6-1.27
			c2.159,0.05,4.319,0.13,6.489,0.2C371.66,191.09,372,189.45,372.36,187.83z"/>
		<path fill="#FFFFFF" d="M361.34,206.87c0.13,2.1,0.141,4.21,0.4,6.3c1.8,0.29,3.62,0.43,5.43,0.64c-1.57,0.28-3.15,0.56-4.729,0.8
			c0.029,1.87,0.05,3.74,0.06,5.62c-0.41-0.99-0.8-1.97-1.18-2.96c-1.21,0.01-2.4,0.03-3.601,0.05c-0.88,0.61-1.75,1.21-2.63,1.81
			c0.82-0.95,1.66-1.89,2.5-2.82c-0.01-0.89-0.02-2.65-0.03-3.54c-0.96-0.43-1.909-0.88-2.859-1.32c1.88,0.08,3.76,0.15,5.649,0.26
			C360.66,210.09,360.99,208.48,361.34,206.87z"/>
		<path fill="#FFFFFF" d="M94.55,260.71c1.13,2.63,2.17,5.31,3.18,7.99c1.36-2.61,2.65-5.26,3.92-7.92c0.56,2.87,1.12,5.74,1.7,8.61
			c1.65-2.29,3.3-4.58,5.06-6.79c0.2,2.83,0.34,5.66,0.5,8.5c1.99-2.19,3.98-4.37,6.04-6.49c-0.27,2.92-0.57,5.83-0.85,8.75
			c2.31-1.82,4.61-3.66,6.95-5.44c-0.71,2.84-1.45,5.67-2.15,8.52c2.55-1.43,5.09-2.88,7.66-4.28c-1.13,2.7-2.3,5.39-3.44,8.1
			c2.73-1.04,5.45-2.09,8.18-3.12c-1.47,2.52-3,5-4.47,7.51c2.83-0.61,5.66-1.24,8.5-1.83c-1.86,2.24-3.75,4.45-5.58,6.71
			c2.92-0.16,5.85-0.34,8.77-0.52c-2.26,1.95-4.53,3.88-6.79,5.82c2.85,0.25,5.71,0.5,8.56,0.79c-2.36,1.69-4.81,3.26-7.27,4.79
			c2.86,0.65,5.7,1.32,8.55,2.03c-2.62,1.24-5.28,2.38-7.94,3.55c2.64,1.17,5.3,2.32,7.91,3.55c-2.85,0.71-5.7,1.399-8.56,2.069
			c2.49,1.49,4.95,3.041,7.31,4.75c-2.85,0.301-5.7,0.541-8.55,0.791c2.25,1.939,4.51,3.859,6.76,5.81
			c-2.92-0.17-5.85-0.351-8.77-0.51c1.85,2.26,3.75,4.479,5.61,6.72c-2.84-0.6-5.67-1.24-8.5-1.87c1.45,2.54,2.98,5.04,4.51,7.54
			c-2.73-1.029-5.46-2.061-8.2-3.029c1.13,2.68,2.29,5.34,3.43,8.02c-2.57-1.4-5.11-2.84-7.67-4.26c0.7,2.859,1.44,5.709,2.15,8.57
			c-2.32-1.841-4.63-3.701-6.95-5.531c0.27,2.931,0.57,5.861,0.84,8.801c-2.04-2.15-4.04-4.33-6.04-6.51
			c-0.15,2.81-0.29,5.629-0.49,8.449c-1.78-2.209-3.45-4.49-5.06-6.82c-0.57,2.881-1.14,5.761-1.72,8.641
			c-1.26-2.63-2.54-5.24-3.91-7.811c-1.02,2.66-2.08,5.301-3.17,7.931c-0.73-2.61-1.39-5.24-2.48-7.729
			c-1.58,2.18-3.03,4.43-4.4,6.739c-0.41-2.819-0.74-5.659-1.08-8.489c-1.88,2.289-3.72,4.609-5.58,6.92
			c0.05-2.961,0.11-5.91,0.15-8.871c-2.15,2-4.29,4.021-6.48,5.99c0.49-2.91,1-5.8,1.5-8.709c-2.45,1.649-4.88,3.31-7.32,4.949
			c0.91-2.76,1.83-5.52,2.65-8.311c-2.59,1.201-5.17,2.431-7.78,3.601c1.3-2.601,2.64-5.19,3.97-7.771
			c-2.85,0.83-5.69,1.67-8.55,2.471c1.78-2.359,3.55-4.721,5.27-7.109c-2.91,0.369-5.83,0.77-8.74,1.149
			c2.07-2.101,4.17-4.181,6.24-6.29c-2.98-0.051-5.95-0.09-8.92-0.18c2.41-1.73,4.82-3.44,7.23-5.16
			c-2.87-0.53-5.74-1.051-8.58-1.721c2.55-1.319,5.11-2.6,7.67-3.91c-2.68-0.93-5.35-1.839-7.99-2.859
			c2.62-1.03,5.29-1.95,7.95-2.88c-2.58-1.33-5.16-2.66-7.7-4.05c2.86-0.54,5.74-1.01,8.62-1.48c-2.39-1.82-4.83-3.59-7.28-5.33
			c2.99-0.02,5.97-0.05,8.96-0.12c-2.05-2.11-4.13-4.18-6.2-6.27c2.93,0.37,5.86,0.78,8.78,1.17c-1.74-2.4-3.53-4.77-5.32-7.14
			c2.86,0.8,5.7,1.63,8.55,2.46c-1.32-2.57-2.66-5.12-3.94-7.7c2.63,1.13,5.22,2.36,7.82,3.57c-0.88-2.79-1.81-5.56-2.71-8.34
			c2.43,1.62,4.84,3.28,7.25,4.94c-0.45-2.9-0.94-5.79-1.41-8.68c2.18,1.97,4.32,3.98,6.47,5.99c-0.04-2.97-0.12-5.93-0.16-8.89
			c1.85,2.3,3.68,4.62,5.56,6.9c0.36-2.87,0.73-5.73,1.17-8.59c1.49,2.47,2.91,4.97,4.38,7.45
			C92.95,266.24,93.74,263.47,94.55,260.71 M121.83,290.06c-1.15,2.38-3.54,3.71-5.03,5.8c-1.2,2.88-1.16,6.35,0.3,9.14
			c2.03,3.641,6.51,5.25,8.23,9.13c0.66,1.81,0.4,5.24-2.26,4.899c-2.3,0.301-2.12-3.02-2.68-4.549
			c-1.55,0.039-3.09,0.09-4.64,0.129c0.43,2.061,0.3,4.381,1.45,6.221c1.61,1.641,3.65,2.93,4.61,5.13
			c1.17,0.05,2.34,0.09,3.51,0.12c0.05-0.53,0.16-1.58,0.22-2.109c3.91-1.601,5.87-5.83,4.89-9.891c-0.64-5.33-6.24-7.43-8.91-11.49
			c-0.83-1.72-1.05-5.42,1.5-5.54c3.32-0.81,2.84,3.45,3.32,5.52c1.51-0.05,3.02-0.08,4.53-0.12c-0.19-2.14-0.1-4.36-0.85-6.41
			c-0.7-2.05-2.84-2.89-4.5-3.98c-0.05-0.53-0.15-1.59-0.2-2.13C124.15,289.96,122.99,290.01,121.83,290.06 M67.47,292.54
			c-2.98,1.15-4.3,4.46-4.08,7.48c0.11,6.19-0.26,12.419,0.2,18.6c0.96,6.51,11.19,7.39,13.95,1.81c1.17-2.66,0.81-5.64,0.89-8.459
			c-0.2-4.961,0.37-9.971-0.37-14.891C77.17,292.45,71.39,290.88,67.47,292.54 M86.2,292.15c-2.72,0.65-5.05,2.99-5.19,5.87
			c-0.38,4.63-0.03,9.29-0.17,13.94c0.09,2.74-0.3,5.649,0.74,8.261c2.44,5.239,11.34,5.189,13.63-0.131
			c1.06-3.24,0.56-6.72,0.67-10.07c-0.16-4.37,0.37-8.799-0.36-13.129C94.66,292.85,89.84,291.22,86.2,292.15 M99.31,296.15
			c-1.04,3.52-0.74,7.27-0.72,10.91c0.12,2.65,0.28,5.99,2.96,7.4c2.36,1.41,4.95,0.021,7.08-1.11c-0.21,1.881-0.4,3.771-0.58,5.67
			c-2.84,0-5.68,0.01-8.51,0.01c0,1.671-0.01,3.341-0.01,5.011c4.34,0.021,8.68,0.03,13.02-0.11c0.24-5.66,0.59-11.31,0.88-16.97
			c-1.38,0.04-2.75,0.08-4.13,0.12c-0.47,2.37-3.7,4.43-5.27,1.79c-0.43-3.8-1.58-8.76,1.02-11.91c3.44-0.9,3.85,2.56,3.94,5.03
			c1.51,0,3.04,0.01,4.56,0.01c-0.29-2.81,0.12-6.25-2.22-8.32C107.77,290.67,101.05,291.44,99.31,296.15z"/>
		<path fill="#FFFFFF" d="M512.13,260.62c1.21,2.56,2.39,5.14,3.601,7.71c1.109-2.57,2.25-5.13,3.399-7.68
			c0.84,2.71,1.61,5.45,2.37,8.19c1.4-2.5,2.84-4.97,4.43-7.36c0.45,2.81,0.83,5.63,1.19,8.45c1.85-2.36,3.7-4.72,5.58-7.05
			c-0.09,2.98-0.19,5.97-0.26,8.96c2.189-2.03,4.369-4.07,6.55-6.11c-0.49,2.91-1,5.82-1.48,8.74c2.44-1.62,4.87-3.26,7.33-4.86
			c-0.96,2.81-1.93,5.61-2.87,8.43c2.67-1.29,5.34-2.58,8.03-3.84c-1.34,2.64-2.71,5.27-4.08,7.9c2.811-0.84,5.61-1.68,8.44-2.46
			c-1.69,2.39-3.44,4.75-5.19,7.1c2.9-0.39,5.811-0.79,8.72-1.16c-2.04,2.13-4.12,4.21-6.18,6.3c2.93,0.02,5.88,0.04,8.82,0.11
			c-2.32,1.73-4.63,3.47-6.87,5.31c2.8,0.49,5.62,0.94,8.439,1.39c-2.529,1.38-5.05,2.76-7.529,4.23c2.62,0.91,5.25,1.76,7.88,2.66
			c-2.66,1.09-5.37,2.04-8.09,2.939c2.6,1.381,5.22,2.73,7.859,4.061c-2.87,0.529-5.729,1.029-8.6,1.54
			c2.24,1.75,4.5,3.479,6.72,5.28c-2.84,0.05-5.689,0.07-8.52,0.119c2.029,2.17,4.13,4.271,6.239,6.36
			c-2.939-0.42-5.89-0.84-8.819-1.26c1.689,2.36,3.399,4.72,4.99,7.159c-2.78-0.809-5.551-1.68-8.311-2.529
			c1.36,2.65,2.74,5.29,4.11,7.95c-2.67-1.24-5.32-2.53-7.971-3.81c0.881,2.81,1.811,5.609,2.721,8.42
			c-2.431-1.65-4.851-3.311-7.3-4.91c0.479,2.899,1.01,5.789,1.529,8.689c-2.16-1.97-4.31-3.96-6.52-5.88
			c0.029,2.87,0.109,5.74,0.18,8.61c-1.91-2.23-3.74-4.521-5.54-6.83c-0.38,2.9-0.79,5.8-1.31,8.689
			c-1.41-2.529-2.84-5.05-4.36-7.51c-0.79,2.79-1.56,5.6-2.36,8.391c-1.119-2.701-2.189-5.431-3.199-8.17
			c-1.23,2.539-2.46,5.069-3.811,7.549c-0.62-2.609-1.16-5.239-1.96-7.789c-1.82,2.16-3.35,4.529-4.91,6.869
			c-0.16-2.97-0.29-5.93-0.439-8.899c-1.99,2.159-3.99,4.31-6.04,6.42c0.25-2.92,0.54-5.819,0.83-8.729
			c-2.311,1.819-4.61,3.649-6.94,5.439c0.7-2.859,1.44-5.721,2.17-8.58c-2.54,1.471-5.08,2.95-7.63,4.391
			c1.07-2.721,2.21-5.41,3.311-8.11c-2.721,1.03-5.431,2.079-8.171,3.069c1.53-2.529,3.101-5.029,4.681-7.52
			c-2.96,0.641-5.9,1.3-8.851,1.92c1.99-2.26,3.98-4.52,5.95-6.82c-3.02,0.2-6.05,0.4-9.06,0.61c2.29-1.92,4.58-3.851,6.83-5.819
			c-2.801-0.281-5.601-0.541-8.391-0.881c2.311-1.65,4.69-3.18,7.07-4.73c-2.85-0.68-5.7-1.369-8.55-2.059
			c2.729-1.201,5.47-2.391,8.18-3.641c-2.729-1.07-5.45-2.15-8.15-3.27c2.44-1.04,6.051-0.76,7.801-2.69
			c-2.181-1.59-4.551-2.88-6.801-4.35c3.181-0.29,6.381-0.42,9.591-0.39c0.149,1.84,0.159,3.78,0.92,5.51
			c1.87,3.97,6.529,5.71,8.42,9.629c0.78,1.701,0.41,5.24-2.021,5c-3.109,0.381-2.489-3.529-2.92-5.459
			c-1.56-0.021-3.12-0.031-4.67-0.031c0.21,2.16,0.19,4.391,0.91,6.471c0.66,1.99,2.77,2.79,4.38,3.859
			c0.09,0.551,0.29,1.65,0.38,2.201c1.141-0.031,2.29-0.051,3.44-0.08c0.96-3.051,4.77-3.98,5.46-7.131
			c1.08-3.77,0.06-8.169-3.09-10.649c-2.62-2.51-6.94-4.95-6.101-9.21c0.141-2.29,3.15-2.77,4.34-1.01
			c0.341,1.14,0.61,2.3,0.82,3.49c1.54-0.02,3.09-0.03,4.65-0.05c-0.16-3.76-1.271-7.74-5.19-9.12c-0.13-0.58-0.399-1.76-0.53-2.34
			c-1.27-0.01-2.529-0.01-3.79,0.01c-0.109,0.54-0.319,1.64-0.42,2.18c-2.159,1.34-5.199,3.02-4.25,6.13
			c-0.949-0.18-1.909-0.37-2.85-0.55c-1.62-1.76-3.37-3.39-5.13-5c2.87,0.17,5.75,0.35,8.63,0.52c-1.88-2.23-3.77-4.44-5.62-6.69
			c2.851,0.57,5.69,1.19,8.54,1.8c-1.54-2.53-3.11-5.02-4.72-7.49c2.79,0.98,5.56,2.02,8.359,3c-1.17-2.68-2.35-5.35-3.5-8.03
			c2.58,1.41,5.15,2.86,7.73,4.3c-0.72-2.81-1.45-5.62-2.12-8.44c2.32,1.75,4.6,3.56,6.9,5.36c-0.28-2.91-0.58-5.82-0.83-8.72
			c2.04,2.12,4.029,4.29,6.04,6.45c0.149-2.99,0.29-5.97,0.43-8.96c1.64,2.41,3.28,4.83,4.98,7.22
			C510.85,266.24,511.46,263.42,512.13,260.62 M501.45,288.08c-0.24,5.65-0.59,11.3-0.891,16.95c1.381-0.04,2.761-0.07,4.141-0.1
			c0.72-1.88,1.939-3.53,4.22-2.95c2.62,2.88,1.34,7.45,1.28,11.03c-0.061,2.42-2.99,2.49-4.49,1.301
			c-0.37-1.41-0.479-2.881-0.69-4.311c-1.529,0.01-3.06,0.01-4.579,0.029c0.3,2.791-0.101,6.191,2.189,8.281
			c2.7,2.25,7.03,2.39,9.92,0.399c3.55-2.76,2.73-7.78,2.91-11.74c-0.19-3.22,0.29-7.54-2.99-9.4c-2.359-1.45-4.979-0.06-7.1,1.09
			c0.2-1.89,0.399-3.78,0.58-5.67c2.83-0.01,5.67-0.01,8.5-0.01c0-1.67,0.01-3.34,0.02-5.01
			C510.13,287.94,505.79,287.93,501.45,288.08 M521.37,288.58c-2.94,1.13-4.12,4.44-3.97,7.37c0.09,6.2-0.29,12.44,0.21,18.63
			c0.93,6.779,11.949,7.449,14.22,1.24c0.939-3.17,0.49-6.541,0.58-9.8c-0.15-4.34,0.35-8.72-0.33-13.01
			C531.1,288.38,525.3,286.85,521.37,288.58 M539.43,288.56c-2.989,1.12-4.199,4.47-4.029,7.43c0.08,6.18-0.28,12.38,0.21,18.539
			c0.87,6.871,12.06,7.521,14.25,1.201c1.01-3.82,0.399-7.83,0.54-11.74c-0.15-3.93,0.489-7.97-0.57-11.81
			C548.34,288.11,543.1,287.05,539.43,288.56z"/>
		<path fill="#FFFFFF" d="M523.29,293.46c1.27-1.19,4.08-0.45,4.03,1.5c0.39,6.01,0.39,12.08,0,18.09
			c-0.021,2.79-4.94,2.65-4.82-0.12c-0.07-6.33-0.51-12.75,0.24-19.05L523.29,293.46z"/>
		<path fill="#FFFFFF" d="M541.3,293.39c1.36-1.01,3.99-0.44,4.021,1.53c0.39,6.03,0.39,12.13,0,18.15
			c-0.061,2.789-4.95,2.609-4.83-0.15c-0.13-6.18-0.34-12.41,0.12-18.57C540.78,294.11,541.13,293.63,541.3,293.39z"/>
		<path fill="#FFFFFF" d="M69.29,297.43c1.35-1.11,3.94-0.42,3.94,1.51c0.38,5.67,0.2,11.371,0.12,17.05
			c0.32,1.82-1.38,3.84-3.29,2.949c-2.32-0.439-1.55-3.219-1.82-4.899c0.15-5.229-0.33-10.5,0.31-15.7
			C68.74,298.11,69.11,297.66,69.29,297.43z"/>
		<path fill="#FFFFFF" d="M87.19,297.18c1.44-0.69,3.55-0.01,3.53,1.81c0.29,5.98,0.28,12.01,0.01,17.99
			c0.02,2.049-2.09,2.24-3.68,2c-2.06-2.07-1.09-5.36-1.35-7.98c0.3-4.48-0.7-9.19,0.77-13.5L87.19,297.18z"/>
		<path fill="#FFFFFF" d="M486.57,369.84c9.199-0.619,18.59,2.1,26.05,7.53c9.57,6.771,15.75,18,16.58,29.68
			c0.97,11.53-3.44,23.351-11.66,31.49c-7.65,7.77-18.6,12.03-29.46,11.86c-7.6-0.351-15.17-2.65-21.47-6.96
			c-10.15-6.66-16.771-18.261-17.601-30.351c-0.87-10.35,2.601-20.92,9.24-28.869C465.18,375.779,475.69,370.51,486.57,369.84
			 M487.65,390.38c-6.71-1.18-11.49,6.771-9.23,12.601c0.771,3.439,3.29,7.21,1.04,10.609c-0.75,1.601-2.61,1.38-4.02,1
			c-1.181-2.02,0.64-4.04,1.17-5.96c-1.45-0.86-3.011-1.54-4.46-2.399c-1.87,3.489-3.28,7.829-0.5,11.27
			c-0.051,0.59-0.17,1.79-0.23,2.39c0.73,0.431,2.18,1.29,2.91,1.721c0.34-0.45,1.01-1.341,1.35-1.79
			c6.34,1.14,11.17-6.12,9.351-11.801c-0.811-3.649-3.36-7.659-1.2-11.279c0.72-2.16,4.06-1.92,4.75,0.12
			c-0.28,0.93-0.84,2.779-1.11,3.71c1.311,0.79,2.59,1.64,3.931,2.439c0.779-1.97,1.869-3.92,1.909-6.09
			c-0.38-1.5-1.189-2.82-1.79-4.22c0.061-0.83,0.19-1.64,0.391-2.44c-1.03-0.449-2.05-0.91-3.061-1.38
			C488.55,389.26,487.95,390.01,487.65,390.38 M489.06,411.18c1.28,0.811,2.58,1.601,3.87,2.42c1.221-1.89,4.351-3.56,5.601-0.729
			c-0.511,3.6-2.8,6.79-4.931,9.67c-1.449,2.26-3.14-0.33-4.529-1.18c0.819-1.5,1.609-3.011,2.449-4.511
			c-1.369-0.909-2.729-1.819-4.079-2.72c-1.29,2.42-3.181,4.91-2.7,7.83c0.84,5.64,9.35,8.76,12.83,3.61
			c2.56-3.91,5.52-7.9,6.43-12.57c0.19-3.85-3.86-5.16-7.01-4.99c1.13-1.779,2.25-3.569,3.35-5.359c2.5,1.229,4.95,2.56,7.311,4.06
			c0.819-1.36,1.59-2.75,2.409-4.1c-3.76-2.08-7.47-4.25-11.17-6.42C495.59,401.17,492.38,406.21,489.06,411.18z"/>
		<path fill="#FFFFFF" d="M117.54,372.689c9.45-1.569,19.48,0.11,27.69,5.131c9.24,5.459,15.98,14.83,18.46,25.25
			c2.6,10.819,0.46,22.67-5.8,31.88c-5.17,7.899-13.39,13.569-22.4,16.22c-10.89,3.05-23.06,1.34-32.57-4.84
			c-9.81-6.08-16.51-16.73-18.17-28.11c-1.4-9.739,0.85-19.97,6.34-28.159C97,380.939,106.87,374.609,117.54,372.689 M130.11,402.88
			c2.97,3.61,8.03,3.32,12.07,4.79c2.5,0.82,4.68,4.05,2.88,6.49c-2.13,0.97-3.51-1.18-5.22-1.95c-1.36,0.31-2.59,0.98-3.87,1.49
			c1.23,1.53,2.31,3.229,3.88,4.46c2.33,0.91,4.83,1.31,7.14,2.31c0.69-0.45,1.37-0.899,2.07-1.33c0.56-3.81,2.91-7.93,0.32-11.51
			c-2.36-4.95-8.27-5.149-12.86-6.43c-2.86-0.641-5.89-4.97-2.6-6.99c2.41-0.04,3.27,2.47,4.57,4.01
			c1.43-0.779,2.86-1.569,4.29-2.35c-1.42-2.11-2.57-4.64-4.92-5.87c-1.49-0.529-3.09-0.42-4.63-0.55
			c-0.42-0.41-1.25-1.22-1.67-1.63C127.46,391.35,126.12,398.7,130.11,402.88 M113.68,400.81c5.05,9.141,10.5,18.07,15.55,27.221
			c0.87-0.32,1.75-0.61,2.64-0.87c-0.07-2.88,1.25-5.36,3.14-7.44c-1.26-1.979-3.42-1.18-5.28-0.87
			c-4.15-6.489-7.34-13.609-11.85-19.84C116.45,399.52,115.08,400.2,113.68,400.81 M105.39,405.59c-3.41,1.13-6.4,4.62-5.26,8.391
			c1.44,4.449,4.41,8.189,6.53,12.319c1.99,3.26,3.51,7.36,7.25,8.99c3.84,0.9,8.33-1.53,9.55-5.31c0.81-3.421-1.48-6.48-3.01-9.341
			c-2.75-4.35-4.86-9.109-7.99-13.21C110.86,405.24,107.84,404.79,105.39,405.59z"/>
		<path fill="#FFFFFF" d="M251.5,393.77c0.39,0.98,0.78,1.961,1.17,2.95c1.21-0.01,2.41-0.02,3.62-0.04
			c0.87-0.6,1.74-1.189,2.61-1.779c-0.82,0.93-1.65,1.85-2.48,2.779c0,0.891,0,2.66,0,3.551c0.97,0.43,1.94,0.869,2.92,1.319
			c-1.9-0.08-3.8-0.16-5.7-0.24c-0.29,1.61-0.66,3.221-0.99,4.841c-0.12-2.131-0.13-4.261-0.37-6.37
			c-1.84-0.25-3.69-0.42-5.53-0.561c1.59-0.359,3.21-0.55,4.82-0.85C251.51,397.5,251.52,395.641,251.5,393.77z"/>
		<path fill="#FFFFFF" d="M104.3,411.66c1.38-0.65,3.42-2.46,4.69-0.7c3.29,5.12,6.26,10.46,9.2,15.79c1.3,1.53-0.14,4.53-2.25,3.76
			c-1.52,0.021-1.92-1.779-2.75-2.71C110.14,422.47,106.88,417.24,104.3,411.66z"/>
		<path fill="#FFFFFF" d="M240.55,418.41c-0.02-2.17-0.02-4.34,0.01-6.5c0.38,1.27,0.74,2.54,1.1,3.82
			c1.42-0.07,2.85-0.15,4.28-0.23c0.69-0.74,1.39-1.47,2.09-2.2c-0.8,1.24-1.68,2.44-2.53,3.65c0,0.83,0,2.479,0,3.3
			c1.22,0.37,2.44,0.76,3.64,1.18c-2.17-0.04-4.34-0.09-6.51-0.14c-0.28,1.62-0.64,3.24-0.93,4.87c-0.2-2.23-0.4-4.45-0.77-6.641
			c-1.94-0.109-3.87-0.21-5.8-0.359C236.93,418.86,238.73,418.62,240.55,418.41z"/>
		<path fill="#FFFFFF" d="M229.57,430.84c0.41,1.3,0.79,2.601,1.17,3.92c2.45,0.15,4.72-0.6,6.37-2.439
			c-1.38,1.77-2.32,3.8-3.14,5.89c1.35,0.74,2.68,1.521,4.03,2.26c-2.09-0.09-4.19-0.18-6.28-0.229c-0.35,1.37-0.7,2.75-1.09,4.109
			c-0.08-1.93-0.1-3.869-0.12-5.79c-1.91-0.159-3.82-0.279-5.71-0.5c1.59-0.26,3.18-0.489,4.79-0.689
			C229.56,435.19,229.54,433.01,229.57,430.84z"/>
		<path fill="#FFFFFF" d="M400.44,448.65c9.909-2.58,21.01-2.051,30.13,2.899c9.68,4.94,17.06,14.05,20.05,24.47
			c2.939,10.021,1.75,21.181-3.22,30.36c-4.551,8.57-12.33,15.33-21.42,18.68c-10.591,4.061-22.881,3.15-32.86-2.189
			c-9.061-4.78-16.101-13.19-19.29-22.91c-4.03-11.9-2.021-25.65,5.28-35.88C384.19,456.69,391.92,451.32,400.44,448.65
			 M402.79,464.83c-1.59,3.16-1.59,6.84-2.91,10.1c-0.89,1.681-2.66,2.641-4.03,3.88c-1.1-1.04-2.72-1.939-2.34-3.72
			c1.16-1.13,2.45-2.12,3.73-3.109c-0.83-1.391-1.66-2.761-2.48-4.141c-1.899,1.33-4.359,2.271-5.43,4.46
			c-0.62,2.34-0.96,4.78-1.96,7.01c0.51,0.86,1.06,1.71,1.62,2.57c0.47-0.13,1.42-0.399,1.89-0.53c2.94,2.11,6.72,2.391,9.67,0.11
			c4.46-2.43,4.66-7.85,5.851-12.19c0.529-2.489,2.949-3.75,4.739-5.239c0.851,0.96,1.66,1.96,2.45,2.989
			c-0.62,1.36-1.81,2.33-2.77,3.431c0.58,1.3,1.16,2.59,1.76,3.899c1.54-1,3.4-1.76,4.4-3.38c0.989-2.359,1.38-4.91,2.229-7.31
			c-0.44-0.811-0.82-1.641-1.14-2.49c-0.84,0.13-1.67,0.271-2.5,0.42C411.41,458.06,405.33,460.56,402.79,464.83 M406.38,481.02
			c0.63,1.28,1.28,2.57,1.92,3.87c1.391-0.239,2.79-0.47,4.19-0.699c0.26,0.76,0.79,2.29,1.06,3.05
			c-2.359,3.34-6.63,4.51-9.95,6.649c-0.79-0.949-1.529-1.93-2.229-2.93c0.55-1.96,2.72-2.74,4.13-3.99
			c-0.7-1.359-1.39-2.72-2.09-4.06c-1.79,0.97-3.771,1.77-5.13,3.35c-4.09,4.49,0.689,13.181,6.68,12.03
			c3.22-0.96,6.07-2.82,8.94-4.521c2.149-1.399,4.689-2.989,5.119-5.739c0.211-2.601-2.26-4.08-3.619-5.92
			c1.479-1.15,3.25-2.03,4.88-3.011c1.54,2.49,3.05,5,4.55,7.521c1.28-0.83,2.56-1.65,3.85-2.46c-2.149-3.68-4.279-7.37-6.31-11.11
			C416.88,475.38,411.69,478.33,406.38,481.02 M425.38,490.38c-5.729,3.18-11.53,6.311-16.97,9.96c-5.91,3.811-1,14.351,5.62,12.98
			c4.54-1.4,8.33-4.44,12.51-6.61c3.04-1.91,6.77-3.28,8.68-6.5C437.99,494.56,431.27,486.85,425.38,490.38z"/>
		<path fill="#FFFFFF" d="M190.57,450.87c10.28-2.94,21.71-1.66,30.98,3.72c11.03,6.13,18.7,17.8,20.05,30.34
			c1.23,9.92-1.48,20.221-7.35,28.29c-7.29,10.23-19.61,16.771-32.22,16.601c-9.83,0.35-19.55-3.521-26.93-9.931
			c-9.77-8.52-14.92-21.949-13.4-34.81C163.27,469.21,175.21,455.1,190.57,450.87 M200.06,457.79c-0.32,0.59-0.96,1.76-1.27,2.35
			c1.35,3.271,0.95,7.65,4.37,9.7c4.33,3.561,10.14,1.37,14.84-0.12c2.46-0.95,6.77,0.17,6.51,3.32c-0.35,3-3.77,1.13-5.72,1.19
			c-0.57,1.159-1.2,2.31-1.64,3.539c3.39,3.53,8.05,0.891,12.04,0.421c0.43-0.62,1.28-1.881,1.71-2.511
			c-0.38-0.38-1.15-1.14-1.53-1.52c0.49-3.97-1.7-7.66-5.5-8.98c-5.93-3.109-11.93,3.74-17.81,0.801
			c-1.89-1.15-1.45-3.08-0.28-4.601c1.89,0.34,3.71,0.97,5.57,1.48c0.73-1.37,1.44-2.74,2.17-4.091c-2.6-1.489-5.42-2.59-8.47-2.31
			C203.56,457.54,201.96,458.78,200.06,457.79 M193.29,473.04c-0.74,1.36-1.5,2.71-2.12,4.14c3.4,2.641,7.37,4.41,11.02,6.67
			c5.59,3.091,10.89,6.71,16.75,9.29c0.4-3.489-1.11-6.87-0.46-10.37c-0.63-0.17-1.9-0.51-2.53-0.689
			c-0.62,0.97-1.22,1.96-1.79,2.97C207.16,481.1,200.28,476.98,193.29,473.04 M188.47,483.72c-3.11,1.8-5.37,5.61-4.32,9.25
			c0.74,2.63,3.33,4.011,5.49,5.351c4.05,2.27,8.02,4.66,12.04,6.979c2.33,1.45,5.26,2.021,7.9,1.15c3.99-2.061,6.2-8.23,2.65-11.67
			c-3.71-3.2-8.33-5.08-12.44-7.71C196.37,485.16,192.63,482.22,188.47,483.72 M180.32,498.57c-4.59,1.64-7.18,8.72-3.11,12.229
			c3.36,2.84,7.47,4.54,11.17,6.88c3.73,2.141,7.69,5.34,12.29,3.9c4.2-1.96,6.47-8.561,2.63-11.95c-3.99-3.18-8.74-5.22-13.03-7.95
			C187.24,499.99,184.01,497.58,180.32,498.57z"/>
		<path fill="#FFFFFF" d="M299.58,475.86c7.66-1.11,15.71-0.57,22.84,2.63c10.88,4.569,19.53,14.189,22.8,25.54
			c3.65,12.04,1.21,25.729-6.43,35.729c-8.11,11.021-22.15,17.26-35.77,15.891c-16.35-1.24-31.01-13.601-35.14-29.45
			c-3.07-11.07-1.16-23.431,5.28-32.97C279.08,484.13,288.94,477.82,299.58,475.86 M295.02,491.03c-2.02,1.45-3.26,3.77-5.39,5.12
			c-0.01,0.68-0.03,2.02-0.04,2.689c3.35,1.8,4.8,6.811,9.38,5.99c5.02,0.82,8.08-3.55,10.959-6.82c1.79-2.359,4.86-2.54,7.561-2.81
			c0.16,0.729,0.47,2.18,0.62,2.91c-0.061,2.25-2.891,1.84-4.4,2.569c0,1.41,0,2.82,0.01,4.23c1.8-0.24,3.71-0.12,5.42-0.8
			c1.99-1.57,3.16-4.03,5.5-5.19c0.021-0.97,0.051-1.93,0.091-2.87c-3.37-1.83-5.23-6.479-9.75-5.649
			c-5.45-0.561-8.511,4.449-11.871,7.76c-1.66,2.08-4.51,1.439-6.83,1.609c0.05-1.42,0.11-2.819,0.19-4.22
			c1.66-0.03,3.33-0.09,5-0.1c0-1.76,0.01-3.521,0.02-5.271C299.33,490.41,297.08,490.27,295.02,491.03 M312.23,507.39
			c0.039,1.62,0.069,3.23,0.119,4.86c2.03,0.1,4.061,0.23,6.101,0.39c0.05,1.86,0.14,4.5-2.36,4.69c-5.92,0.8-9.79-4.25-13.91-7.51
			c-2.95-2.561-7.01-2.351-10.66-2.41c0.02,4.71,0.02,9.42,0,14.13c1.49-0.01,2.97-0.021,4.46-0.021c0-3.13,0-6.25,0.07-9.369
			c5.79,1.21,8.64,7.17,14.05,9.119c3.511,1.54,8.131,1.671,11.07-1.09c2.61-3.02,2.53-8.239-0.4-11.01
			C318.45,507.03,315.09,507.64,312.23,507.39 M296.41,524.58c-6.47,1.18-6.98,11.6-1.24,14.1c2.82,1.04,5.9,0.601,8.84,0.69
			c4.62-0.18,9.3,0.36,13.891-0.34c6.38-1.271,7.02-11.891,1.029-14.12c-2.88-0.891-5.949-0.47-8.91-0.561
			C305.48,524.5,300.92,524.06,296.41,524.58z"/>
		<path fill="#FFFFFF" d="M189.72,488.09c4.38,0.67,7.87,3.57,11.66,5.61c2.44,1.46,5.13,2.62,7.24,4.569
			c1.22,1.16,0.56,2.9-0.84,3.511c-2.09,0.399-3.91-0.96-5.64-1.891c-4.57-2.859-9.5-5.159-13.74-8.529
			C188.73,490.55,189.39,488.91,189.72,488.09z"/>
		<path fill="#FFFFFF" d="M411.28,504.4c5.359-3.58,11.02-6.801,16.75-9.75c2.52-1,4.189,3.05,1.859,4.239
			c-5.55,3.67-11.52,6.7-17.26,10.08C411.84,507.69,409.15,505.74,411.28,504.4z"/>
		<path fill="#FFFFFF" d="M180.32,503.24c4.1,0.06,7.37,2.729,10.79,4.64c3.28,1.86,6.58,3.71,9.64,5.95
			c-0.28,0.8-0.84,2.4-1.12,3.189c-4.14-0.18-7.4-2.899-10.88-4.8c-2.86-1.75-6.02-3.109-8.51-5.38
			C180.24,505.63,180.27,504.43,180.32,503.24z"/>
		<path fill="#FFFFFF" d="M297.34,529.51c6.18-0.38,12.41-0.21,18.61-0.109c1.91-0.24,3.26,1.8,2.46,3.54
			c-1.23,1.8-3.51,1.369-5.38,1.489c-5.03-0.109-10.06,0.17-15.07-0.16C295.33,534.42,294.86,529.95,297.34,529.51z"/>
	</g>
	<g id="_x23_f05a61ff">
		<path fill="#F05A61" d="M378.28,52.14c42.55,12,82.04,34.76,113.609,65.73c-59.63,59.76-119.279,119.48-179.04,179.11
			C334.41,215.3,356.49,133.76,378.28,52.14 M408.6,81.93c-11.26,0.91-22.04,6.8-28.729,15.93c-11.22,14.39-10.61,36.31,1.28,50.12
			c8.76,10.55,23.22,16.2,36.8,13.93c11.08-1.57,21.37-8.08,27.5-17.46c4.97-7.41,7.37-16.51,6.63-25.41
			c-0.811-11.63-6.97-22.82-16.49-29.59C427.89,83.81,418.11,81.05,408.6,81.93 M383.36,169.68c-0.681,1.63-0.63,3.71-1.971,4.97
			c-1.92-0.08-3.699-0.8-5.479-1.42c1.27,1,2.72,1.73,4.01,2.73c-0.91,2.01-1.88,3.99-2.85,5.97c0.64-0.83,1.279-1.66,1.92-2.48
			c1.42-0.01,2.84-0.02,4.26-0.02c0.38,1.27,0.78,2.54,1.21,3.8c0-2.22-0.02-4.44-0.05-6.66c1.609-0.16,3.22-0.34,4.83-0.53
			c-1.91-0.27-3.83-0.46-5.74-0.65C383.43,173.49,383.46,171.58,383.36,169.68 M372.36,187.83c-0.36,1.62-0.7,3.26-1.011,4.9
			c-2.17-0.07-4.33-0.15-6.489-0.2c1.189,0.439,2.39,0.85,3.6,1.27c0.01,0.82,0.03,2.45,0.04,3.27c-0.86,1.22-1.74,2.43-2.54,3.69
			c0.7-0.75,1.4-1.5,2.11-2.25c1.42-0.09,2.83-0.17,4.26-0.24c0.36,1.28,0.75,2.57,1.15,3.85c0-2.17-0.011-4.34-0.03-6.51
			c1.55-0.26,3.14-0.41,4.7-0.72c-1.83-0.2-3.66-0.38-5.471-0.65C372.46,192.11,372.46,189.96,372.36,187.83 M361.34,206.87
			c-0.35,1.61-0.68,3.22-0.99,4.84c-1.89-0.11-3.77-0.18-5.649-0.26c0.95,0.44,1.899,0.89,2.859,1.32
			c0.011,0.89,0.021,2.65,0.03,3.54c-0.84,0.93-1.68,1.87-2.5,2.82c0.88-0.6,1.75-1.2,2.63-1.81c1.2-0.02,2.391-0.04,3.601-0.05
			c0.38,0.99,0.77,1.97,1.18,2.96c-0.01-1.88-0.03-3.75-0.06-5.62c1.579-0.24,3.159-0.52,4.729-0.8c-1.81-0.21-3.63-0.35-5.43-0.64
			C361.48,211.08,361.47,208.97,361.34,206.87z"/>
		<path fill="#F05A61" d="M413.27,89.37c4.61-1.31,8.53,1.98,12.29,4.07c3.851,2.46,8.301,4.14,11.58,7.41
			c4.23,4.86-1.449,13.79-7.729,11.54c-4.75-1.94-8.92-5.05-13.47-7.41c-2.881-1.75-6.74-3.3-7.381-7.04
			C408.1,94.55,410.08,90.71,413.27,89.37 M413.85,93.83c-0.109,0.81-0.35,2.45-0.46,3.27c1.99,2.35,4.971,3.47,7.54,5.05
			c3.45,1.81,6.59,4.33,10.33,5.52c1.95,0.51,3.41-2.54,1.87-3.78c-2.17-1.96-4.87-3.17-7.37-4.65
			C421.93,97.16,418.37,94.22,413.85,93.83z"/>
		<path fill="#F05A61" d="M404.35,104.46c4.58-1.44,8.521,1.79,12.25,3.91c3.69,2.33,7.801,4.05,11.16,6.88
			c4.82,4.06,0.42,13.45-5.77,12.4c-2.971-0.3-5.38-2.3-7.931-3.64c-4.09-2.61-8.64-4.53-12.42-7.61
			C397.87,112.95,400.18,106.44,404.35,104.46 M405.38,109c-0.28,0.81-0.84,2.43-1.13,3.24c4.64,3.36,9.78,5.93,14.65,8.9
			c1.729,1.13,3.76,1.49,5.79,1.67c0.04-1.19,0.069-2.38,0.069-3.57c-2.529-2.3-5.71-3.67-8.6-5.43
			C412.7,111.93,409.48,109.22,405.38,109z"/>
		<path fill="#F05A61" d="M395.31,117.92c9.28,5.02,18.32,10.49,27.44,15.79c-0.78,1.4-1.55,2.8-2.32,4.21
			c-7.069-3.83-13.859-8.16-20.96-11.92c-0.59,1.1-1.18,2.19-1.76,3.29c-3.97-1.33-1.15-5.98-3.44-8.66
			C394.63,119.73,394.98,118.83,395.31,117.92z"/>
		<path fill="#F05A61" d="M52.41,235.57c12-42.5,34.71-81.89,65.51-113.54c59.5,59.689,119.12,119.27,178.59,178.979
			C215.16,279.16,133.74,257.5,52.41,235.57 M118.03,161.89c-10.79,1.81-20.87,8.08-26.86,17.29c-5.43,8.04-7.81,18.07-6.47,27.68
			c1.54,12.47,9.29,24.01,20.36,30.01c8.69,4.95,19.25,6.2,28.95,3.93c10.42-2.48,19.72-9.32,25.11-18.59
			c5.04-8.39,6.8-18.64,4.91-28.24c-2.17-11.59-9.69-22.09-20.13-27.62C136.11,161.93,126.85,160.5,118.03,161.89z"/>
		<path fill="#F05A61" d="M386.65,133.81c3.1-2.2,6.779-1.45,10.01,0.04c-0.68,1.3-1.36,2.61-2.05,3.91
			c-1.86,0.04-5.58-1.77-5.62,1.38c-0.021,2.42,2.84,3.69,4.95,3.45c3.77-0.43,7.199-2.71,11.109-2.31
			c4.931-0.01,9.24,4.53,8.57,9.52c0.37,0.3,1.09,0.91,1.45,1.21c-0.42,0.94-0.83,1.87-1.24,2.82c-0.63-0.02-1.89-0.05-2.53-0.07
			c-3.37,2.94-7.77,1.63-11.26-0.3c0.71-1.47,1.41-2.94,2.14-4.4c1.94,0.62,3.87,1.44,5.95,1.43c1.16-1.83,0.5-4.11-1.55-4.89
			c-4-1.24-7.74,1.2-11.57,1.9c-3.649,0.74-7.399-1.09-9.66-3.92c-1.189-2.33-1.39-5.04-2.33-7.47c0.301-0.67,0.9-2.01,1.211-2.68
			C384.83,133.53,386.04,133.72,386.65,133.81z"/>
		<path fill="#F05A61" d="M112.58,191.6c2.1-3.44,3.87-8.08,8.34-8.88c3.63,0.021,7.67,2.41,8.34,6.21c0.5,2.95-1.37,5.5-2.71,7.95
			c-1.35-0.91-2.71-1.82-4.06-2.72c0.82-1.49,1.61-3,2.42-4.5c-1.38-0.94-3.04-3.43-4.51-1.17c-2.15,2.87-4.46,6.09-4.92,9.71
			c1.33,2.76,4.32,1.04,5.6-0.77c1.28,0.81,2.58,1.57,3.86,2.39c-3.31,4.98-6.53,10.01-9.83,15c-3.67-2.15-7.33-4.31-11.06-6.35
			c0.64-1.41,1.31-2.8,1.96-4.189c2.51,1.37,5.01,2.79,7.47,4.26c1.17-1.85,2.35-3.7,3.54-5.54c-2.25-0.31-5.24-0.05-6.37-2.53
			C108.94,197.47,111.2,194.25,112.58,191.6z"/>
		<path fill="#F05A61" d="M138.31,192.2c0.34-0.45,1.03-1.34,1.37-1.79c0.72,0.43,2.17,1.29,2.89,1.72
			c-0.05,0.59-0.17,1.77-0.23,2.37c2.83,3.49,1.48,7.98-0.8,11.36c-1.37-0.85-2.72-1.69-4.08-2.53c0.84-1.97,1.42-4.04,1.54-6.18
			c-1.49,0.37-3.7-0.44-4.48,1.31c-2.94,5.15,2.85,10.32,1.41,15.68c-0.83,4.47-4.75,8.29-9.53,7.49c-0.33,0.37-0.99,1.11-1.32,1.48
			c-0.99-0.45-1.97-0.91-2.96-1.36c0.09-0.62,0.25-1.85,0.34-2.46c-2.39-3.16-1.8-6.99,0.15-10.19c1.33,0.69,2.67,1.39,4.01,2.09
			c-0.51,1.45-1.01,2.91-1.51,4.37c1.41,0.67,3.61,2.12,4.73,0.24c3.68-5.38-2.81-11.12-0.91-16.79
			C129.97,194.8,133.8,191.44,138.31,192.2z"/>
		<path fill="#F05A61" d="M317.49,312.99c81.35,21.88,162.77,43.52,244.1,65.47c-12,42.49-34.7,81.89-65.51,113.521
			C436.57,432.31,376.95,372.73,317.49,312.99 M486.57,369.84c-10.88,0.67-21.391,5.939-28.32,14.381
			c-6.64,7.949-10.11,18.52-9.24,28.869c0.83,12.09,7.45,23.69,17.601,30.351c6.3,4.31,13.87,6.609,21.47,6.96
			c10.86,0.17,21.81-4.091,29.46-11.86c8.22-8.14,12.63-19.96,11.66-31.49c-0.83-11.68-7.01-22.909-16.58-29.68
			C505.16,371.939,495.77,369.221,486.57,369.84z"/>
		<path fill="#F05A61" d="M122.11,496.14c59.63-59.739,119.28-119.47,179.03-179.1c-21.54,81.67-43.64,163.21-65.41,244.83
			C193.17,549.89,153.67,527.12,122.11,496.14 M251.5,393.77c0.02,1.871,0.01,3.73,0.07,5.601c-1.61,0.3-3.23,0.49-4.82,0.85
			c1.84,0.141,3.69,0.311,5.53,0.561c0.24,2.109,0.25,4.239,0.37,6.37c0.33-1.62,0.7-3.23,0.99-4.841c1.9,0.08,3.8,0.16,5.7,0.24
			c-0.98-0.45-1.95-0.89-2.92-1.319c0-0.891,0-2.66,0-3.551c0.83-0.93,1.66-1.85,2.48-2.779c-0.87,0.59-1.74,1.18-2.61,1.779
			c-1.21,0.021-2.41,0.03-3.62,0.04C252.28,395.73,251.89,394.75,251.5,393.77 M240.55,418.41c-1.82,0.21-3.62,0.45-5.42,0.75
			c1.93,0.149,3.86,0.25,5.8,0.359c0.37,2.19,0.57,4.41,0.77,6.641c0.29-1.63,0.65-3.25,0.93-4.87c2.17,0.05,4.34,0.1,6.51,0.14
			c-1.2-0.42-2.42-0.81-3.64-1.18c0-0.82,0-2.47,0-3.3c0.85-1.21,1.73-2.41,2.53-3.65c-0.7,0.73-1.4,1.46-2.09,2.2
			c-1.43,0.08-2.86,0.16-4.28,0.23c-0.36-1.28-0.72-2.551-1.1-3.82C240.53,414.07,240.53,416.24,240.55,418.41 M229.57,430.84
			c-0.03,2.17-0.01,4.351,0.02,6.53c-1.61,0.2-3.2,0.43-4.79,0.689c1.89,0.221,3.8,0.341,5.71,0.5c0.02,1.921,0.04,3.86,0.12,5.79
			c0.39-1.359,0.74-2.739,1.09-4.109c2.09,0.05,4.19,0.14,6.28,0.229c-1.35-0.739-2.68-1.52-4.03-2.26
			c0.82-2.09,1.76-4.12,3.14-5.89c-1.65,1.84-3.92,2.59-6.37,2.439C230.36,433.44,229.98,432.14,229.57,430.84 M190.57,450.87
			c-15.36,4.229-27.3,18.34-28.87,34.21c-1.52,12.86,3.63,26.29,13.4,34.81c7.38,6.41,17.1,10.28,26.93,9.931
			c12.61,0.17,24.93-6.37,32.22-16.601c5.87-8.069,8.58-18.37,7.35-28.29c-1.35-12.54-9.02-24.21-20.05-30.34
			C212.28,449.21,200.85,447.93,190.57,450.87z"/>
		<path fill="#F05A61" d="M487.65,390.38c0.3-0.37,0.899-1.12,1.199-1.5c1.011,0.47,2.03,0.931,3.061,1.38
			c-0.2,0.801-0.33,1.61-0.391,2.44c0.601,1.399,1.41,2.72,1.79,4.22c-0.04,2.17-1.13,4.12-1.909,6.09
			c-1.341-0.8-2.62-1.649-3.931-2.439c0.271-0.931,0.83-2.78,1.11-3.71c-0.69-2.04-4.03-2.28-4.75-0.12
			c-2.16,3.62,0.39,7.63,1.2,11.279c1.819,5.681-3.011,12.94-9.351,11.801c-0.34,0.449-1.01,1.34-1.35,1.79
			c-0.73-0.431-2.18-1.29-2.91-1.721c0.061-0.6,0.18-1.8,0.23-2.39c-2.78-3.44-1.37-7.78,0.5-11.27
			c1.449,0.859,3.01,1.539,4.46,2.399c-0.53,1.92-2.351,3.94-1.17,5.96c1.409,0.38,3.27,0.601,4.02-1
			c2.25-3.399-0.27-7.17-1.04-10.609C476.16,397.15,480.94,389.2,487.65,390.38z"/>
		<path fill="#F05A61" d="M489.06,411.18c3.32-4.97,6.53-10.01,9.83-14.989c3.7,2.17,7.41,4.34,11.17,6.42
			c-0.819,1.35-1.59,2.739-2.409,4.1c-2.36-1.5-4.811-2.83-7.311-4.06c-1.1,1.79-2.22,3.58-3.35,5.359
			c3.149-0.17,7.2,1.141,7.01,4.99c-0.91,4.67-3.87,8.66-6.43,12.57c-3.48,5.149-11.99,2.029-12.83-3.61
			c-0.48-2.92,1.41-5.41,2.7-7.83c1.35,0.9,2.71,1.811,4.079,2.72c-0.84,1.5-1.63,3.011-2.449,4.511
			c1.39,0.85,3.08,3.439,4.529,1.18c2.131-2.88,4.42-6.07,4.931-9.67c-1.25-2.83-4.38-1.16-5.601,0.729
			C491.64,412.78,490.34,411.99,489.06,411.18z"/>
		<path fill="#F05A61" d="M200.06,457.79c1.9,0.99,3.5-0.25,4.99-1.33c3.05-0.28,5.87,0.82,8.47,2.31
			c-0.73,1.351-1.44,2.721-2.17,4.091c-1.86-0.511-3.68-1.141-5.57-1.48c-1.17,1.521-1.61,3.45,0.28,4.601
			c5.88,2.939,11.88-3.91,17.81-0.801c3.8,1.32,5.99,5.011,5.5,8.98c0.38,0.38,1.15,1.14,1.53,1.52
			c-0.43,0.63-1.28,1.891-1.71,2.511c-3.99,0.47-8.65,3.109-12.04-0.421c0.44-1.229,1.07-2.38,1.64-3.539
			c1.95-0.061,5.37,1.81,5.72-1.19c0.26-3.15-4.05-4.271-6.51-3.32c-4.7,1.49-10.51,3.681-14.84,0.12c-3.42-2.05-3.02-6.43-4.37-9.7
			C199.1,459.55,199.74,458.38,200.06,457.79z"/>
		<path fill="#F05A61" d="M193.29,473.04c6.99,3.94,13.87,8.06,20.87,12.01c0.57-1.01,1.17-2,1.79-2.97
			c0.63,0.18,1.9,0.52,2.53,0.689c-0.65,3.5,0.86,6.881,0.46,10.37c-5.86-2.58-11.16-6.199-16.75-9.29
			c-3.65-2.26-7.62-4.029-11.02-6.67C191.79,475.75,192.55,474.4,193.29,473.04z"/>
		<path fill="#F05A61" d="M188.47,483.72c4.16-1.5,7.9,1.44,11.32,3.351c4.11,2.63,8.73,4.51,12.44,7.71
			c3.55,3.439,1.34,9.609-2.65,11.67c-2.64,0.87-5.57,0.3-7.9-1.15c-4.02-2.319-7.99-4.71-12.04-6.979
			c-2.16-1.34-4.75-2.721-5.49-5.351C183.1,489.33,185.36,485.52,188.47,483.72 M189.72,488.09c-0.33,0.82-0.99,2.46-1.32,3.271
			c4.24,3.37,9.17,5.67,13.74,8.529c1.73,0.931,3.55,2.29,5.64,1.891c1.4-0.61,2.06-2.351,0.84-3.511
			c-2.11-1.949-4.8-3.109-7.24-4.569C197.59,491.66,194.1,488.76,189.72,488.09z"/>
		<path fill="#F05A61" d="M180.32,498.57c3.69-0.99,6.92,1.42,9.95,3.109c4.29,2.73,9.04,4.771,13.03,7.95
			c3.84,3.39,1.57,9.99-2.63,11.95c-4.6,1.439-8.56-1.76-12.29-3.9c-3.7-2.34-7.81-4.04-11.17-6.88
			C173.14,507.29,175.73,500.21,180.32,498.57 M180.32,503.24c-0.05,1.189-0.08,2.39-0.08,3.6c2.49,2.271,5.65,3.63,8.51,5.38
			c3.48,1.9,6.74,4.62,10.88,4.8c0.28-0.789,0.84-2.39,1.12-3.189c-3.06-2.24-6.36-4.09-9.64-5.95
			C187.69,505.97,184.42,503.3,180.32,503.24z"/>
	</g>
	<g id="_x23_8781bdff">
		<path fill="#8781BD" d="M122.13,117.88c31.41-31.13,70.99-53.65,113.46-65.75c20.29,74.57,40.02,149.3,60.1,223.94
			c1.77,6.96,3.93,13.83,5.38,20.88C241.39,237.29,181.7,177.64,122.13,117.88 M195.39,84.57c-10.5,1.71-20.33,7.66-26.44,16.41
			c-6.75,9.37-9.12,21.71-6.39,32.93c3.8,16.69,19.29,29.89,36.44,30.67c13.75,1.12,27.74-5.64,35.56-16.96
			c6-8.47,8.46-19.29,6.84-29.53c-2.05-13.39-11.31-25.41-23.8-30.69C210.67,84.29,202.87,83.62,195.39,84.57 M231.31,173.56
			c-1.77,0.11-3.37-0.9-4.99-1.45c0.8,1.27,1.6,2.55,2.27,3.9c-0.51,1.42-1.58,2.54-2.45,3.75c1.53-0.08,3.07-0.17,4.6-0.229
			c0.83,1.229,1.7,2.43,2.54,3.65c0.13-1.48,0.26-2.97,0.39-4.45c1.47-0.38,2.95-0.76,4.42-1.14c-1.28-0.82-2.57-1.66-3.85-2.47
			c0.14-1.65,0.26-3.3,0.42-4.94C233.58,171.34,232.53,172.54,231.31,173.56 M242.07,192.8c-1.59-0.75-3.3-1.13-4.89-1.84
			c0.88,1.37,1.71,2.78,2.63,4.14c-1.25,1.41-2.53,2.79-3.81,4.16c1.98-0.34,3.97-0.69,5.97-1.02c0.49,1.32,0.98,2.65,1.48,3.97
			c0.41-1.61,0.81-3.23,1.22-4.84c1.44-0.38,2.91-0.7,4.36-1.06c-1.3-0.79-2.67-1.49-3.81-2.49c-0.3-1.28-0.54-2.58-0.71-3.88
			C243.69,190.89,242.87,191.84,242.07,192.8 M252.34,211.73c-1.44-0.82-2.87-1.64-4.31-2.45c0.85,1.61,1.67,3.24,2.52,4.86
			c-1.14,1.19-2.26,2.4-3.39,3.6c1.77-0.21,3.56-0.38,5.34-0.57c0.65,1.28,1.34,2.56,2,3.85c0.35-1.79,0.89-3.53,1.24-5.31
			c1.49-0.13,2.99-0.27,4.49-0.42c-1.49-0.78-2.93-1.63-4.41-2.4c-0.02-1.59-0.06-3.17-0.08-4.75
			C254.64,209.37,253.43,210.5,252.34,211.73z"/>
		<path fill="#8781BD" d="M197.41,99.53c6.16-4.03,13.3,4.88,9.61,10.439c-2.66,3.25-6.8,4.71-10.27,6.92
			c-3.53,1.86-6.74,4.51-10.65,5.51c-6.61,1.18-11.24-8.87-5.67-12.88C185.84,105.8,191.69,102.73,197.41,99.53 M190.19,109.28
			c-2.81,1.52-5.6,3.13-7.91,5.37c0.45,0.78,1.34,2.36,1.79,3.14c2.76-0.92,5.39-2.21,7.85-3.77c4.08-2.58,8.71-4.42,12.06-8.01
			c-0.93-0.93-1.91-1.79-2.94-2.59C197.17,104.87,193.81,107.34,190.19,109.28z"/>
		<path fill="#8781BD" d="M199.96,118.02c2.91-1.66,5.76-3.61,9.06-4.37c5.94-0.67,10.24,8.07,6.01,12.35
			c-1.41,1.38-3.2,2.23-4.86,3.25c-0.69-1.37-1.46-2.7-2-4.13c1.19-1.2,2.61-2.13,3.81-3.31c-0.05-1.41-1.08-2.54-1.63-3.78
			c-3.46,1.87-7.25,3.35-10.12,6.1c0.01,1.16,0.08,2.31,0.2,3.45c1.56-0.12,3.12-0.23,4.69-0.38c0.66,1.27,1.37,2.51,2.03,3.79
			c-5.3,2.65-10.52,5.47-15.88,7.99c-1.92-3.87-5.09-7.28-6.02-11.55c1.17-0.68,2.4-1.23,3.61-1.81c1.39,2.42,2.8,4.83,4.18,7.27
			c1.63-0.93,3.31-1.78,4.87-2.82c-1.2-1.94-3.52-3.49-3.43-5.98C194.85,121.1,197.65,119.45,199.96,118.02z"/>
		<path fill="#8781BD" d="M317.65,300.96c59.31-59.81,119-119.24,178.43-178.93c30.9,31.55,53.54,71,65.479,113.51
			C480.31,257.52,398.95,279.13,317.65,300.96 M477.42,160.74c-9.45,2.93-17.78,9.35-22.83,17.87c-5.8,9.62-7.28,21.72-3.95,32.45
			c2.971,9.81,9.801,18.42,18.79,23.38c9.82,5.56,22.03,6.72,32.69,2.99c9.979-3.37,18.47-10.88,23.06-20.35
			c4.521-9.13,5.391-19.99,2.351-29.71c-2.94-9.5-9.46-17.88-18.11-22.82C499.92,158.8,488,157.84,477.42,160.74z"/>
		<path fill="#8781BD" d="M210.28,133.26c1.7-2.71,4.98-3.58,7.73-4.82c1.52,0.72,3.05,1.45,4.56,2.19c0.8-0.13,1.6-0.26,2.4-0.39
			c0.43,0.81,0.86,1.63,1.29,2.44c-0.74,2.29-1.17,4.66-1.83,6.97c-1.08,2.31-3.62,3.28-5.71,4.41c-0.73-1.33-1.44-2.66-2.16-3.99
			c2.03-1.51,4.31-3.18,3.59-6.06c-1.81,0.43-4.23-0.09-5.42,1.68c-2.86,4.08-1.55,10.1-5.47,13.6c-2.21,1.77-5.28,3.85-8.15,2.48
			c-1.72-0.64-3.48-1.24-5.34-1.25c-0.47-0.74-0.95-1.47-1.42-2.21c1.79-3.72,1.61-9.21,6.56-10.36c0.78,1.13,1.54,2.29,2.23,3.49
			c-0.86,1.31-3.61,2.29-2.58,4.17c0.75,0.83,1.54,1.61,2.39,2.35c1.36-1.28,2.98-2.38,3.97-4.01
			C208.36,140.5,208.17,136.46,210.28,133.26z"/>
		<path fill="#8781BD" d="M495.14,177c2.65-1.16,5.95-0.23,7.641,2.11c2.609,3.54,4.45,7.56,6.77,11.3c1.49,2.76,3.53,5.4,3.97,8.59
			c0.9,6.09-8.159,10.51-12.25,5.8c-2.869-3.35-4.579-7.47-6.899-11.18c-1.68-3.09-3.97-6.02-4.521-9.58
			C489.52,180.72,492.29,178.12,495.14,177 M495.43,182.28c-0.17,0.42-0.51,1.26-0.68,1.68c1.4,3.49,3.62,6.56,5.4,9.84
			c1.619,2.72,2.92,5.7,5.14,8.02c1.61,0.36,4.07-0.73,3.2-2.71c-2.36-5.52-5.76-10.54-8.74-15.74
			C499.12,181.66,496.45,180.29,495.43,182.28z"/>
		<path fill="#8781BD" d="M478.7,192.05c2.6-2.44,2.03-6.73,5.17-8.64c5.25,9.24,10.71,18.36,15.85,27.66
			c-1.38,0.77-2.739,1.55-4.1,2.33c-4.101-6.72-7.94-13.59-11.88-20.4c-1.21,0.33-2.42,0.67-3.62,1.02
			C479.77,193.53,479.06,192.54,478.7,192.05z"/>
		<path fill="#8781BD" d="M467.26,191.22c0.51,0.45,1.03,0.91,1.561,1.37c4.029-0.27,7.069,2.24,9.08,5.49
			c-1.29,0.76-2.57,1.53-3.851,2.29c-1.479-1.38-2.819-3.91-5.189-2.47c-1.681,2.48,0.47,5.62,2.97,6.45
			c2.85,0.99,5.91,1.21,8.729,2.34c3.32,1.37,5.5,4.82,5.891,8.32c-0.76,3.21-0.94,7.3-4.101,9.17c-0.399-0.41-1.189-1.22-1.59-1.63
			c-1.55-0.13-3.149-0.03-4.63-0.54c-2.33-1.24-3.49-3.76-4.91-5.84c1.42-0.8,2.851-1.59,4.28-2.39c1.18,2.14,4.23,6.09,6.13,2.32
			c0-3.08-2.72-5.28-5.58-5.68c-4.24-0.87-9.31-1.63-11.399-6c-2.61-3.58-0.311-7.7,0.3-11.5
			C465.71,192.35,466.48,191.78,467.26,191.22z"/>
		<path fill="#8781BD" d="M52.44,378.48c81.27-21.99,162.65-43.601,243.96-65.44c-59.35,59.78-119.02,119.26-178.47,178.94
			C87.01,460.45,64.38,420.98,52.44,378.48 M117.54,372.689c-10.67,1.92-20.54,8.25-26.45,17.371
			c-5.49,8.189-7.74,18.42-6.34,28.159c1.66,11.38,8.36,22.03,18.17,28.11c9.51,6.18,21.68,7.89,32.57,4.84
			c9.01-2.65,17.23-8.32,22.4-16.22c6.26-9.21,8.4-21.061,5.8-31.88c-2.48-10.42-9.22-19.791-18.46-25.25
			C137.02,372.8,126.99,371.12,117.54,372.689z"/>
		<path fill="#8781BD" d="M312.88,317.04c59.72,59.64,119.38,119.34,178.99,179.1c-31.44,31.11-71.03,53.79-113.601,65.7
			c-12.52-46.62-24.97-93.26-37.46-139.89C331.55,386.96,321.87,352.09,312.88,317.04 M359.66,393.02
			c-0.46,1.67-0.82,3.391-1.54,4.99c-1.39,0.351-2.79,0.65-4.2,0.9c1.37,0.729,2.8,1.359,4.18,2.109
			c0.021,1.631,0.131,3.261,0.17,4.891c1.08-1.24,2.261-2.41,3.36-3.65c1.46,0.82,2.93,1.65,4.41,2.48
			c-0.88-1.62-1.75-3.24-2.62-4.851c1.13-1.199,2.28-2.39,3.41-3.59c-1.8,0.2-3.61,0.34-5.41,0.53
			C360.83,395.55,360.22,394.3,359.66,393.02 M368.77,416.81c-1.239,0.351-2.489,0.671-3.739,0.95c1.279,0.78,2.649,1.431,3.8,2.41
			c0.229,1.3,0.43,2.61,0.61,3.93c0.81-0.93,1.63-1.869,2.449-2.779c1.62,0.56,3.29,1,4.92,1.55c-0.899-1.271-1.689-2.62-2.59-3.88
			c1.181-1.45,2.41-2.86,3.641-4.271c-1.931,0.37-3.87,0.71-5.811,1.04c-0.5-1.279-1-2.569-1.49-3.85
			C370,413.55,369.51,415.23,368.77,416.81 M380.65,430.89c-0.091,1.44-0.17,2.88-0.25,4.33c-1.5,0.521-3,1.04-4.49,1.57
			c1.28,0.66,2.57,1.31,3.87,1.979c-0.15,1.69-0.28,3.4-0.42,5.11c1.17-1.29,2.359-2.55,3.54-3.82c1.58,0.66,3.21,1.25,4.79,1.94
			c-0.811-1.34-1.65-2.67-2.32-4.07c0.729-1.34,1.6-2.569,2.46-3.819c-1.35,0.21-2.69,0.43-4.021,0.649
			C382.76,433.46,381.69,432.18,380.65,430.89 M400.44,448.65c-8.521,2.67-16.25,8.04-21.33,15.43
			c-7.301,10.229-9.311,23.979-5.28,35.88c3.189,9.72,10.229,18.13,19.29,22.91c9.979,5.34,22.27,6.25,32.86,2.189
			c9.09-3.35,16.869-10.109,21.42-18.68c4.97-9.18,6.159-20.34,3.22-30.36c-2.99-10.42-10.37-19.529-20.05-24.47
			C421.45,446.6,410.35,446.07,400.44,448.65z"/>
		<path fill="#8781BD" d="M130.11,402.88c-3.99-4.18-2.65-11.53,1.45-15.06c0.42,0.41,1.25,1.22,1.67,1.63
			c1.54,0.13,3.14,0.021,4.63,0.55c2.35,1.23,3.5,3.76,4.92,5.87c-1.43,0.78-2.86,1.57-4.29,2.35c-1.3-1.54-2.16-4.05-4.57-4.01
			c-3.29,2.021-0.26,6.35,2.6,6.99c4.59,1.28,10.5,1.479,12.86,6.43c2.59,3.58,0.24,7.7-0.32,11.51c-0.7,0.431-1.38,0.88-2.07,1.33
			c-2.31-1-4.81-1.399-7.14-2.31c-1.57-1.23-2.65-2.93-3.88-4.46c1.28-0.51,2.51-1.181,3.87-1.49c1.71,0.771,3.09,2.92,5.22,1.95
			c1.8-2.44-0.38-5.67-2.88-6.49C138.14,406.2,133.08,406.49,130.11,402.88z"/>
		<path fill="#8781BD" d="M113.68,400.81c1.4-0.609,2.77-1.29,4.2-1.8c4.51,6.23,7.7,13.351,11.85,19.84
			c1.86-0.31,4.02-1.109,5.28,0.87c-1.89,2.08-3.21,4.561-3.14,7.44c-0.89,0.26-1.77,0.55-2.64,0.87
			C124.18,418.88,118.73,409.95,113.68,400.81z"/>
		<path fill="#8781BD" d="M105.39,405.59c2.45-0.8,5.47-0.35,7.07,1.84c3.13,4.101,5.24,8.86,7.99,13.21
			c1.53,2.86,3.82,5.92,3.01,9.341c-1.22,3.779-5.71,6.21-9.55,5.31c-3.74-1.63-5.26-5.73-7.25-8.99
			c-2.12-4.13-5.09-7.87-6.53-12.319C98.99,410.21,101.98,406.72,105.39,405.59 M104.3,411.66c2.58,5.58,5.84,10.81,8.89,16.14
			c0.83,0.931,1.23,2.73,2.75,2.71c2.11,0.771,3.55-2.229,2.25-3.76c-2.94-5.33-5.91-10.67-9.2-15.79
			C107.72,409.2,105.68,411.01,104.3,411.66z"/>
		<path fill="#8781BD" d="M402.79,464.83c2.54-4.271,8.62-6.771,12.78-3.24c0.83-0.149,1.66-0.29,2.5-0.42
			c0.319,0.85,0.699,1.68,1.14,2.49c-0.85,2.399-1.24,4.95-2.229,7.31c-1,1.62-2.86,2.38-4.4,3.38c-0.6-1.31-1.18-2.6-1.76-3.899
			c0.96-1.101,2.149-2.07,2.77-3.431c-0.79-1.029-1.6-2.029-2.45-2.989c-1.79,1.489-4.21,2.75-4.739,5.239
			c-1.19,4.341-1.391,9.761-5.851,12.19c-2.95,2.28-6.729,2-9.67-0.11c-0.47,0.131-1.42,0.4-1.89,0.53
			c-0.561-0.86-1.11-1.71-1.62-2.57c1-2.229,1.34-4.67,1.96-7.01c1.07-2.189,3.53-3.13,5.43-4.46c0.82,1.38,1.65,2.75,2.48,4.141
			c-1.28,0.989-2.57,1.979-3.73,3.109c-0.38,1.78,1.24,2.68,2.34,3.72c1.37-1.239,3.141-2.199,4.03-3.88
			C401.2,471.67,401.2,467.99,402.79,464.83z"/>
		<path fill="#8781BD" d="M406.38,481.02c5.311-2.689,10.5-5.64,15.99-7.97c2.03,3.74,4.16,7.431,6.31,11.11
			c-1.29,0.81-2.569,1.63-3.85,2.46c-1.5-2.521-3.01-5.03-4.55-7.521c-1.63,0.98-3.4,1.86-4.88,3.011
			c1.359,1.84,3.83,3.319,3.619,5.92c-0.43,2.75-2.97,4.34-5.119,5.739c-2.87,1.7-5.721,3.561-8.94,4.521
			c-5.99,1.15-10.77-7.54-6.68-12.03c1.359-1.58,3.34-2.38,5.13-3.35c0.7,1.34,1.39,2.7,2.09,4.06c-1.41,1.25-3.58,2.03-4.13,3.99
			c0.7,1,1.439,1.98,2.229,2.93c3.32-2.14,7.591-3.31,9.95-6.649c-0.27-0.76-0.8-2.29-1.06-3.05c-1.4,0.229-2.8,0.46-4.19,0.699
			C407.66,483.59,407.01,482.3,406.38,481.02z"/>
		<path fill="#8781BD" d="M425.38,490.38c5.89-3.53,12.61,4.18,9.84,9.83c-1.91,3.22-5.64,4.59-8.68,6.5
			c-4.18,2.17-7.97,5.21-12.51,6.61c-6.62,1.37-11.53-9.17-5.62-12.98C413.85,496.69,419.65,493.56,425.38,490.38 M411.28,504.4
			c-2.13,1.34,0.56,3.29,1.35,4.569c5.74-3.38,11.71-6.41,17.26-10.08c2.33-1.189,0.66-5.239-1.859-4.239
			C422.3,497.6,416.64,500.82,411.28,504.4z"/>
	</g>
</g>
</svg>
