<?xml version="1.0" encoding="utf-8"?>
<!-- Generator: Adobe Illustrator 16.0.0, SVG Export Plug-In . SVG Version: 6.00 Build 0)  -->
<!DOCTYPE svg PUBLIC "-//W3C//DTD SVG 1.1//EN" "http://www.w3.org/Graphics/SVG/1.1/DTD/svg11.dtd">
<svg version="1.1" id="Layer_1" xmlns="http://www.w3.org/2000/svg" xmlns:xlink="http://www.w3.org/1999/xlink" x="0px" y="0px"
	 width="614px" height="614px" viewBox="0 0 614 614" enable-background="new 0 0 614 614" xml:space="preserve">
<g id="Layer_2">
	<ellipse fill="#FFFFFF" stroke="#000000" stroke-miterlimit="10" cx="307.01" cy="306.994" rx="294.844" ry="294.604"/>
</g>
<g id="Layer_1_1_">
	<g id="_x23_aae0faff">
		<path fill="#AAE0FA" d="M302.274,0h12.332c68.782,1.67,136.663,27.19,189.371,71.36c29.15,24.2,53.65,53.93,71.961,87.07
			c20.163,36.49,32.742,77.12,36.88,118.58c1.052,9.63,1.031,19.33,1.144,29.01c1.36,80.32-32.104,160.02-88.538,216.99
			c-26.283,26.63-57.545,48.353-91.701,63.71C395.509,603.93,353.76,613.282,311.83,614h-12.4c-36.75-1.02-73.331-8.5-107.407-22.31
			c-37.542-15.133-72.029-37.73-100.857-66.11C56.057,491.06,29.533,447.93,14.559,401.06C5.203,371.67-0.216,340.88,0.075,309.98
			C-1.658,234.92,26.969,160.13,76.561,103.94c22.938-26.16,50.463-48.28,80.884-65.18C201.567,14.24,251.791,0.87,302.274,0
			 M296.414,12.61c-39.485,1.46-78.65,10.91-114.439,27.6c-40.066,18.58-75.665,46.51-103.501,80.73
			c-34.407,42.2-56.854,94.03-63.835,148.01c-6.18,46.75-0.681,94.909,15.505,139.188c16.968,46.78,46.136,89.04,83.859,121.54
			c27.846,24.143,60.31,42.91,95.067,55.17c37.031,13.08,76.706,18.643,115.912,16.183c43.411-2.69,86.211-15.04,124.336-35.973
			c32.644-17.857,61.682-42.14,85.311-70.84c24.921-30.31,43.742-65.62,54.949-103.21c11.71-39.037,15.104-80.537,9.908-120.96
			c-4.999-39.07-17.811-77.13-37.624-111.19c-20.073-34.61-47.418-64.97-79.62-88.75C429.144,30.77,362.514,10,296.414,12.61z"/>
		<path fill="#AAE0FA" d="M231.197,173.56c1.222-1.02,2.273-2.22,3.355-3.38c-0.161,1.64-0.281,3.29-0.42,4.94
			c1.282,0.81,2.574,1.65,3.856,2.47c-1.472,0.38-2.955,0.76-4.427,1.14c-0.13,1.48-0.26,2.97-0.391,4.45
			c-0.841-1.22-1.713-2.42-2.543-3.65c-1.533,0.06-3.076,0.15-4.608,0.229c0.871-1.21,1.943-2.33,2.454-3.75
			c-0.671-1.35-1.472-2.63-2.273-3.9C227.821,172.66,229.424,173.67,231.197,173.56z"/>
		<path fill="#AAE0FA" d="M241.974,192.8c0.802-0.96,1.623-1.91,2.444-2.86c0.171,1.3,0.411,2.6,0.712,3.88
			c1.142,1,2.514,1.7,3.816,2.49c-1.452,0.36-2.925,0.68-4.367,1.06c-0.411,1.61-0.812,3.23-1.222,4.84
			c-0.501-1.32-0.992-2.65-1.482-3.97c-2.003,0.33-3.997,0.68-5.98,1.02c1.282-1.37,2.564-2.75,3.816-4.16
			c-0.921-1.36-1.753-2.77-2.634-4.14C238.669,191.67,240.382,192.05,241.974,192.8z"/>
		<path fill="#AAE0FA" d="M252.261,211.73c1.092-1.23,2.304-2.36,3.406-3.59c0.02,1.58,0.06,3.16,0.08,4.75
			c1.482,0.77,2.925,1.62,4.417,2.4c-1.502,0.15-3.005,0.29-4.498,0.42c-0.35,1.78-0.891,3.52-1.242,5.31
			c-0.661-1.29-1.352-2.57-2.003-3.85c-1.783,0.19-3.576,0.36-5.349,0.57c1.132-1.2,2.254-2.41,3.396-3.6
			c-0.851-1.62-1.673-3.25-2.524-4.86C249.387,210.09,250.819,210.91,252.261,211.73z"/>
		<path fill="#AAE0FA" d="M412.266,304.51c0.701-1.57,1.522-3.09,2.254-4.66c0.502,1.53,1.063,3.05,1.563,4.59
			c1.702-0.02,3.415-0.01,5.128-0.02c-1.212,1.03-2.454,2.03-3.516,3.21c-0.16,1.55,0.23,3.091,0.411,4.63
			c-1.292-0.73-2.555-1.52-3.938-2.06c-1.442,0.71-2.734,1.68-4.047,2.579c0.391-1.629,0.771-3.25,1.16-4.869
			c-1.342-1.2-2.732-2.33-4.065-3.53C408.899,304.42,410.583,304.46,412.266,304.51z"/>
		<path fill="#AAE0FA" d="M435.845,299.86c0.751,1.55,1.492,3.1,2.214,4.68c1.714-0.08,3.444-0.09,5.179-0.15
			c-1.433,1.16-2.864,2.32-4.287,3.48c0.44,1.659,0.894,3.319,1.354,4.979c-1.332-0.92-2.646-1.899-4.096-2.609
			c-1.503,0.5-2.896,1.279-4.31,1.97c0.36-1.42,0.781-2.81,1.151-4.22c-1.222-1.08-2.314-2.31-3.526-3.38
			c1.503-0.04,3.005-0.07,4.52-0.08C434.633,302.96,435.264,301.42,435.845,299.86z"/>
		<path fill="#AAE0FA" d="M455.948,304.35c0.648-1.57,1.239-3.15,1.911-4.71c0.49,1.57,0.991,3.15,1.492,4.72
			c1.924,0.02,3.837,0.09,5.77,0.1c-1.521,1.13-3.064,2.22-4.575,3.351c0.551,1.699,1.11,3.399,1.691,5.09
			c-1.401-0.92-2.774-1.898-4.277-2.619c-1.774,0.369-3.187,1.648-4.708,2.551c0.551-1.648,1.072-3.301,1.623-4.938
			c-1.462-1.163-2.965-2.271-4.417-3.433C452.282,304.45,454.115,304.36,455.948,304.35z"/>
		<path fill="#AAE0FA" d="M151.765,301.12c1.413,0.92,2.794,1.89,4.317,2.64c1.753-0.49,3.186-1.67,4.728-2.59
			c-0.571,1.66-1.122,3.33-1.663,5.01c1.493,1.11,2.995,2.22,4.487,3.349c-1.873,0.011-3.736,0.111-5.599,0.141
			c-0.581,1.58-1.252,3.13-1.843,4.71c-0.521-1.569-1.042-3.14-1.533-4.71c-1.693-0.08-3.376-0.141-5.058-0.21
			c1.272-1.14,2.534-2.3,3.816-3.43C152.867,304.39,152.326,302.75,151.765,301.12z"/>
		<path fill="#AAE0FA" d="M173.751,301.19c1.333,0.91,2.645,1.87,4.097,2.58c1.413-0.54,2.725-1.31,4.067-2.01
			c-0.28,1.51-0.541,3.02-0.801,4.53c1.112,1.02,2.244,2.021,3.355,3.06c-1.513,0.051-3.015,0.103-4.518,0.16
			c-0.581,1.551-1.222,3.07-1.783,4.641c-0.802-1.541-1.462-3.158-2.244-4.698c-1.713,0.077-3.426,0.077-5.129,0.17
			c1.413-1.147,2.845-2.3,4.277-3.44C174.633,304.51,174.192,302.85,173.751,301.19z"/>
		<path fill="#AAE0FA" d="M199.834,303.79c1.462-0.7,2.785-1.66,4.137-2.55c-0.43,1.61-0.851,3.22-1.252,4.84
			c1.323,1.2,2.725,2.3,4.047,3.52c-1.673-0.039-3.335-0.07-5.008-0.09c-0.701,1.57-1.522,3.09-2.254,4.66
			c-0.49-1.561-1.091-3.07-1.572-4.62c-1.703,0.011-3.396,0.021-5.088,0.04c1.222-1.14,2.725-2.11,3.586-3.57
			c-0.04-1.45-0.371-2.88-0.591-4.3C197.14,302.46,198.433,303.25,199.834,303.79z"/>
		<path fill="#AAE0FA" d="M359.759,393.02c0.562,1.28,1.172,2.53,1.764,3.813c1.803-0.19,3.615-0.33,5.419-0.53
			c-1.133,1.2-2.283,2.393-3.415,3.59c0.871,1.61,1.742,3.23,2.624,4.853c-1.482-0.83-2.955-1.66-4.417-2.48
			c-1.103,1.24-2.284,2.41-3.366,3.65c-0.038-1.63-0.148-3.26-0.17-4.891c-1.383-0.75-2.814-1.382-4.188-2.109
			c1.412-0.25,2.815-0.55,4.207-0.9C358.938,396.41,359.298,394.689,359.759,393.02z"/>
		<path fill="#AAE0FA" d="M368.884,416.81c0.741-1.577,1.232-3.26,1.793-4.897c0.491,1.28,0.991,2.57,1.492,3.85
			c1.944-0.33,3.887-0.67,5.821-1.04c-1.232,1.41-2.464,2.82-3.647,4.271c0.901,1.26,1.693,2.607,2.595,3.88
			c-1.633-0.55-3.306-0.99-4.929-1.55c-0.818,0.91-1.643,1.85-2.452,2.777c-0.182-1.317-0.383-2.63-0.61-3.93
			c-1.152-0.979-2.525-1.63-3.808-2.41C366.39,417.48,367.643,417.16,368.884,416.81z"/>
		<path fill="#AAE0FA" d="M380.784,430.89c1.042,1.29,2.11,2.57,3.163,3.87c1.332-0.22,2.677-0.438,4.027-0.647
			c-0.86,1.25-1.732,2.479-2.464,3.817c0.671,1.4,1.513,2.73,2.324,4.07c-1.583-0.69-3.216-1.28-4.798-1.94
			c-1.185,1.271-2.374,2.53-3.546,3.82c0.14-1.71,0.27-3.42,0.42-5.108c-1.302-0.672-2.594-1.319-3.876-1.979
			c1.492-0.53,2.995-1.05,4.497-1.57C380.614,433.77,380.693,432.33,380.784,430.89z"/>
	</g>
	<g id="_x23_000f24ff">
		<path fill="#000F24" d="M296.414,12.61c66.1-2.61,132.729,18.16,185.827,57.5c32.202,23.78,59.547,54.14,79.62,88.75
			c19.813,34.06,32.624,72.12,37.624,111.19c5.195,40.421,1.803,81.921-9.908,120.96c-11.207,37.59-30.028,72.9-54.949,103.21
			c-23.629,28.7-52.667,52.98-85.311,70.84c-38.125,20.933-80.925,33.28-124.336,35.973c-39.207,2.46-78.88-3.103-115.912-16.183
			c-34.758-12.26-67.222-31.027-95.067-55.17c-37.723-32.5-66.891-74.76-83.859-121.54C13.958,363.859,8.458,315.7,14.639,268.95
			c6.982-53.98,29.429-105.81,63.835-148.01c27.836-34.22,63.435-62.15,103.501-80.73C217.764,23.52,256.929,14.07,296.414,12.61
			 M231.447,26.71c-3.986,1.41-4.788,7.52-1.202,9.8c3.306,2.67,9.236-0.15,8.594-4.56C239.31,28.14,234.853,25.26,231.447,26.71
			 M378.3,27.18c-3.496,1.61-3.917,7.13-0.752,9.31c3.086,2.53,8.374,0.58,8.944-3.42C387.475,28.73,382.126,24.73,378.3,27.18
			 M286.037,33.16c-66.53,4.96-130.946,34.97-176.953,83.31C75.52,151.21,51.46,194.98,39.991,241.86
			c-11.349,45.9-10.347,94.71,2.654,140.16c14.264,50.73,43.582,97.11,83.408,131.7c32.554,28.54,72.009,49.143,114.019,59.69
			c43.612,11.04,89.948,11,133.57,0.02c38.485-9.55,74.863-27.5,105.705-52.397c28.438-22.91,52.236-51.54,69.534-83.67
			c19.504-36.03,30.822-76.45,32.715-117.36c2.104-43.9-6.661-88.24-25.062-128.16c-17.409-37.91-43.732-71.66-76.147-97.95
			C426.529,49.89,355.462,27.48,286.037,33.16 M102.945,100.26c-1.263,1.73-3.235,3.39-2.815,5.76c0.03,3.13,3.186,4.46,5.559,5.63
			c3.506-1.11,7.122-4.57,5.059-8.49C109.445,99.91,105.829,100.2,102.945,100.26 M506.771,100.54
			c-3.985,1.27-5.108,7.18-1.594,9.62c3.206,3.09,9.157,0.25,9.005-4.13C514.454,102.25,510.348,99.21,506.771,100.54
			 M28.912,228.45c-3.435,1.89-3.496,7.32-0.17,9.35c3.485,2.65,9.015-0.44,8.654-4.77C37.607,228.9,32.268,226.04,28.912,228.45
			 M579.852,228.57c-3.903,1.64-4.137,7.54-0.6,9.73c3.104,1.44,7.633,0.48,8.454-3.3C589.088,230.51,583.939,226.61,579.852,228.57
			 M31.196,374.811c-3.636,0.392-6.3,4.689-4.498,8.01c1.723,4.182,8.684,4.029,10.217-0.238
			C38.598,378.859,35.152,374.41,31.196,374.811 M579.973,375.641c-3.847,1.59-4.615,7.521-1.002,9.771
			c3.406,2.658,8.875-0.188,8.814-4.45C587.945,377.061,583.568,374.08,579.973,375.641 M102.915,503.24
			c-3.456,1.397-4.147,6.54-1.353,8.93c2.594,2.93,8.103,1.58,9.115-2.21C112.51,505.59,107.001,500.72,102.915,503.24
			 M505.74,503.58c-2.875,1.37-3.979,5.45-2.003,8c2.544,4.188,10.187,2.36,10.165-2.74
			C514.385,504.54,509.426,501.84,505.74,503.58 M231.337,576.64c-3.836,1.04-5.239,6.473-2.274,9.183
			c2.845,3.33,9.005,1.438,9.476-2.9C239.49,578.92,235.153,575.27,231.337,576.64 M379.563,576.57
			c-4.809,0.52-6.051,7.67-2.104,10.107c3.396,2.643,8.984-0.37,8.595-4.67C386.313,578.64,382.787,575.88,379.563,576.57z"/>
	</g>
	<g id="_x23_3fc8f4ff">
		<path fill="#3FC8F4" d="M231.447,26.71c3.406-1.45,7.863,1.43,7.392,5.24c0.642,4.41-5.288,7.23-8.594,4.56
			C226.659,34.23,227.46,28.12,231.447,26.71z"/>
		<path fill="#3FC8F4" d="M378.3,27.18c3.826-2.45,9.175,1.55,8.192,5.89c-0.568,4-5.858,5.95-8.944,3.42
			C374.383,34.31,374.804,28.79,378.3,27.18z"/>
		<path fill="#3FC8F4" d="M242.946,50.35c42.28-10.81,87.344-10.65,129.594,0.28c-20.814,77.77-41.709,155.52-62.533,233.28
			c-0.881,3.5-1.803,6.99-3.105,10.37c-21.736-80.14-43.01-160.4-64.626-240.57C242.145,52.45,240.893,50.5,242.946,50.35
			 M298.488,56.77c-10.047,2.13-19.142,8.31-24.851,16.83c-5.219,7.65-7.623,17.14-6.731,26.35c1.002,11.82,7.663,22.96,17.52,29.56
			c8.313,5.61,18.75,8.11,28.688,6.48c12.251-1.84,23.449-9.67,29.299-20.58c5.018-9.11,6.21-20.18,3.386-30.17
			c-2.613-9.4-8.805-17.73-17.018-22.99C319.934,56.5,308.784,54.54,298.488,56.77z"/>
		<path fill="#3FC8F4" d="M294.351,72.51c3.366-1.38,7.102-0.74,10.648-0.87c4.326,0.17,8.734-0.46,13,0.48
			c4.637,1.35,5.669,7.6,3.527,11.39c-1.293,2.29-3.957,3.26-6.482,3.12c-6.329-0.06-12.69,0.25-19.01-0.18
			C289.573,85.52,288.821,75.21,294.351,72.51 M295.403,81.39c7.402,0.5,14.833,0.37,22.248,0.09c-0.103-1.48,1.082-3.65-0.854-4.35
			c-1.781-0.86-3.875-0.44-5.788-0.56c-4.638,0.17-9.306-0.29-13.924,0.25C294.701,77.22,295.583,79.7,295.403,81.39z"/>
		<path fill="#3FC8F4" d="M293.249,91.23c3.125-2.24,7.422-1.89,10.768-0.34c5.179,2.11,8.104,7.63,13.633,9.1
			c0.109-3.17,0.13-6.34,0.13-9.51c1.503,0,3.005,0,4.518,0c0.01,4.7,0.01,9.41,0.01,14.11c-2.965-0.14-6.128,0.22-8.843-1.24
			c-4.257-2.22-6.922-6.85-11.67-8.25c-2.133-0.84-4.377-0.15-6.491,0.3c0.081,1.33,0.181,2.65,0.291,3.98
			c1.934,0.14,3.877,0.32,5.82,0.43c0.03,1.61,0.06,3.22,0.09,4.83c-3.025-0.27-6.671,0.26-8.965-2.17
			C289.894,99.33,290.004,93.92,293.249,91.23z"/>
		<path fill="#3FC8F4" d="M102.945,100.26c2.884-0.06,6.5-0.35,7.803,2.9c2.063,3.92-1.553,7.38-5.059,8.49
			c-2.374-1.17-5.529-2.5-5.559-5.63C99.709,103.65,101.682,101.99,102.945,100.26z"/>
		<path fill="#3FC8F4" d="M506.771,100.54c3.575-1.33,7.683,1.71,7.411,5.49c0.151,4.38-5.799,7.22-9.005,4.13
			C501.663,107.72,502.785,101.81,506.771,100.54z"/>
		<path fill="#3FC8F4" d="M294.792,107.82c1.663-0.52,3.416-0.59,5.139-0.83c0.02,1.43,0.05,2.87,0.08,4.31
			c-2.474,0.19-5.97,1.84-4.097,4.84c1.894,0.55,4.087,0.73,5.84-0.38c3.656-2.25,5.219-7.18,9.655-8.29
			c2.455-0.4,5.219-0.61,7.503,0.55c1.863,1.62,3.065,3.92,5.239,5.2c0.067,0.76,0.197,2.28,0.26,3.04
			c-0.521,0.15-1.572,0.44-2.093,0.58c-1.122,1.59-1.993,3.71-4.028,4.32c-1.973,0.51-4.026,0.5-6.038,0.69
			c0.028-1.72,0.061-3.43,0.1-5.14c2.555,0.17,6.853-0.49,5.02-4.02c-4.979-2.35-8.134,2.68-11.009,5.75
			c-3.985,4.64-12.521,4.38-15.404-1.33c-2.244-0.46-1.924-2.7-2.244-4.42c0.591-0.08,1.763-0.24,2.354-0.33
			C292.147,110.76,292.858,108.61,294.792,107.82z"/>
		<path fill="#3FC8F4" d="M28.912,228.45c3.356-2.41,8.695,0.45,8.484,4.58c0.36,4.33-5.169,7.42-8.654,4.77
			C25.417,235.77,25.477,230.34,28.912,228.45z"/>
		<path fill="#3FC8F4" d="M579.852,228.57c4.089-1.96,9.237,1.94,7.855,6.43c-0.822,3.78-5.352,4.74-8.455,3.3
			C575.715,236.11,575.946,230.21,579.852,228.57z"/>
		<path fill="#3FC8F4" d="M50.458,372.52c-10.998-42.77-11.068-88.29-0.03-131.06c78.209,20.84,156.378,41.82,234.578,62.69
			c3.416,0.88,6.821,1.78,10.157,2.92C213.617,328.99,132.042,350.79,50.458,372.52 M94.21,260.71c-0.811,2.76-1.602,5.53-2.424,8.3
			c-1.472-2.479-2.895-4.979-4.387-7.45c-0.44,2.86-0.812,5.72-1.172,8.59c-1.883-2.28-3.716-4.6-5.569-6.9
			c0.04,2.96,0.121,5.92,0.161,8.89c-2.154-2.01-4.297-4.02-6.481-5.99c0.471,2.89,0.961,5.78,1.413,8.68
			c-2.414-1.66-4.829-3.32-7.262-4.94c0.901,2.78,1.833,5.55,2.714,8.34c-2.604-1.21-5.198-2.44-7.833-3.57
			c1.282,2.58,2.624,5.13,3.946,7.7c-2.855-0.83-5.699-1.66-8.564-2.46c1.793,2.37,3.586,4.74,5.329,7.14
			c-2.925-0.39-5.86-0.8-8.795-1.17c2.074,2.09,4.157,4.16,6.21,6.27c-2.995,0.07-5.98,0.1-8.975,0.12
			c2.454,1.74,4.898,3.51,7.292,5.33c-2.885,0.47-5.77,0.94-8.634,1.48c2.544,1.39,5.128,2.72,7.713,4.05
			c-2.665,0.93-5.339,1.85-7.963,2.88c2.645,1.02,5.319,1.93,8.003,2.859c-2.564,1.311-5.129,2.591-7.683,3.91
			c2.844,0.67,5.719,1.188,8.594,1.721c-2.414,1.72-4.828,3.43-7.242,5.16c2.975,0.09,5.95,0.129,8.935,0.18
			c-2.074,2.109-4.177,4.189-6.251,6.29c2.915-0.38,5.84-0.78,8.755-1.149c-1.723,2.389-3.496,4.75-5.279,7.109
			c2.865-0.801,5.709-1.641,8.564-2.471c-1.332,2.58-2.674,5.17-3.976,7.771c2.614-1.17,5.198-2.399,7.792-3.601
			c-0.821,2.791-1.743,5.551-2.654,8.311c2.444-1.64,4.878-3.3,7.332-4.949c-0.501,2.909-1.012,5.799-1.502,8.709
			c2.193-1.97,4.337-3.99,6.491-5.99c-0.04,2.961-0.101,5.91-0.15,8.871c1.863-2.311,3.707-4.631,5.589-6.92
			c0.34,2.83,0.671,5.67,1.082,8.489c1.372-2.31,2.824-4.56,4.407-6.739c1.091,2.489,1.753,5.119,2.484,7.729
			c1.092-2.63,2.153-5.271,3.175-7.931c1.373,2.57,2.654,5.181,3.917,7.811c0.581-2.88,1.152-5.76,1.723-8.641
			c1.613,2.33,3.286,4.611,5.068,6.82c0.201-2.82,0.341-5.642,0.491-8.449c2.003,2.18,4.006,4.357,6.05,6.51
			c-0.271-2.939-0.571-5.87-0.842-8.801c2.324,1.83,4.638,3.688,6.962,5.531c-0.711-2.861-1.453-5.711-2.153-8.57
			c2.564,1.42,5.108,2.859,7.683,4.26c-1.142-2.68-2.304-5.34-3.436-8.02c2.745,0.969,5.479,2,8.214,3.027
			c-1.533-2.5-3.065-5-4.518-7.54c2.834,0.632,5.669,1.271,8.514,1.87c-1.863-2.238-3.766-4.46-5.619-6.72
			c2.925,0.157,5.86,0.34,8.785,0.51c-2.254-1.95-4.517-3.87-6.771-5.812c2.854-0.25,5.709-0.488,8.564-0.791
			c-2.364-1.709-4.828-3.26-7.322-4.75c2.865-0.67,5.72-1.357,8.574-2.067c-2.614-1.229-5.279-2.38-7.923-3.55
			c2.665-1.17,5.329-2.31,7.953-3.55c-2.854-0.71-5.699-1.38-8.563-2.03c2.464-1.53,4.918-3.1,7.282-4.79
			c-2.855-0.29-5.719-0.54-8.574-0.79c2.264-1.94,4.538-3.87,6.801-5.82c-2.925,0.18-5.86,0.36-8.785,0.52
			c1.833-2.26,3.727-4.47,5.589-6.71c-2.844,0.59-5.679,1.22-8.514,1.83c1.472-2.51,3.005-4.99,4.477-7.51
			c-2.735,1.03-5.459,2.08-8.193,3.12c1.142-2.71,2.314-5.4,3.446-8.1c-2.574,1.4-5.119,2.85-7.673,4.28
			c0.701-2.85,1.442-5.68,2.153-8.52c-2.344,1.78-4.647,3.62-6.961,5.44c0.28-2.92,0.581-5.83,0.852-8.75
			c-2.063,2.12-4.057,4.3-6.05,6.49c-0.161-2.84-0.301-5.67-0.501-8.5c-1.763,2.21-3.416,4.5-5.068,6.79
			c-0.581-2.87-1.142-5.74-1.703-8.61c-1.272,2.66-2.564,5.31-3.926,7.92C96.384,266.02,95.342,263.34,94.21,260.71 M151.765,301.12
			c0.561,1.63,1.102,3.27,1.653,4.91c-1.282,1.13-2.544,2.291-3.816,3.43c1.682,0.069,3.365,0.13,5.058,0.21
			c0.491,1.57,1.012,3.141,1.533,4.71c0.591-1.58,1.262-3.13,1.843-4.71c1.863-0.029,3.727-0.13,5.599-0.141
			c-1.492-1.129-2.995-2.239-4.487-3.349c0.541-1.68,1.092-3.35,1.663-5.01c-1.542,0.92-2.975,2.1-4.728,2.59
			C154.56,303.01,153.178,302.04,151.765,301.12 M173.751,301.19c0.441,1.66,0.881,3.32,1.322,4.99
			c-1.432,1.14-2.865,2.291-4.277,3.44c1.703-0.091,3.416-0.091,5.129-0.17c0.781,1.54,1.442,3.159,2.244,4.7
			c0.561-1.57,1.202-3.09,1.783-4.643c1.502-0.06,3.005-0.107,4.518-0.158c-1.112-1.039-2.244-2.042-3.355-3.062
			c0.26-1.51,0.521-3.02,0.801-4.53c-1.342,0.7-2.654,1.47-4.067,2.01C176.396,303.06,175.084,302.1,173.751,301.19 M199.834,303.79
			c-1.402-0.54-2.694-1.33-3.997-2.07c0.221,1.42,0.551,2.85,0.591,4.3c-0.861,1.46-2.364,2.43-3.586,3.57
			c1.693-0.02,3.385-0.029,5.088-0.04c0.481,1.55,1.082,3.06,1.572,4.62c0.731-1.57,1.553-3.09,2.254-4.66
			c1.673,0.02,3.335,0.051,5.008,0.09c-1.322-1.22-2.724-2.32-4.047-3.52c0.401-1.62,0.822-3.23,1.252-4.84
			C202.619,302.13,201.297,303.09,199.834,303.79z"/>
		<path fill="#3FC8F4" d="M439.591,274.6c41.328-11.02,82.625-22.18,123.976-33.11c10.999,42.77,11.067,88.27,0.039,131.039
			c-81.613-21.739-163.198-43.539-244.765-65.459C358.987,295.88,399.354,285.48,439.591,274.6 M512.481,260.62
			c-0.673,2.8-1.283,5.62-1.942,8.43c-1.703-2.39-3.347-4.81-4.988-7.22c-0.14,2.99-0.281,5.97-0.431,8.96
			c-2.015-2.16-4.007-4.33-6.05-6.45c0.25,2.9,0.551,5.81,0.831,8.72c-2.307-1.8-4.587-3.61-6.911-5.36
			c0.671,2.82,1.401,5.63,2.123,8.44c-2.584-1.44-5.159-2.89-7.743-4.3c1.152,2.68,2.334,5.35,3.506,8.03
			c-2.805-0.98-5.577-2.02-8.372-3c1.611,2.47,3.186,4.96,4.729,7.49c-2.854-0.61-5.698-1.23-8.556-1.8
			c1.855,2.25,3.747,4.46,5.63,6.69c-2.885-0.17-5.77-0.35-8.645-0.52c1.763,1.61,3.516,3.24,5.139,5
			c0.942,0.18,1.903,0.37,2.854,0.55c-0.95-3.11,2.095-4.79,4.257-6.13c0.102-0.54,0.313-1.64,0.421-2.18
			c1.264-0.02,2.525-0.02,3.796-0.01c0.132,0.58,0.401,1.76,0.531,2.34c3.927,1.38,5.039,5.36,5.199,9.12
			c-1.564,0.02-3.115,0.03-4.658,0.05c-0.21-1.19-0.479-2.35-0.821-3.49c-1.189-1.76-4.206-1.28-4.348,1.01
			c-0.841,4.26,3.485,6.7,6.111,9.21c3.153,2.48,4.178,6.88,3.096,10.649c-0.691,3.148-4.508,4.078-5.47,7.131
			c-1.151,0.027-2.304,0.049-3.445,0.08c-0.09-0.553-0.291-1.65-0.381-2.201c-1.612-1.069-3.727-1.869-4.388-3.859
			c-0.722-2.08-0.702-4.311-0.912-6.471c1.554,0,3.115,0.011,4.679,0.031c0.433,1.93-0.188,5.84,2.925,5.459
			c2.436,0.238,2.807-3.301,2.024-5c-1.895-3.919-6.562-5.662-8.435-9.629c-0.762-1.73-0.771-3.67-0.921-5.51
			c-3.216-0.03-6.421,0.1-9.607,0.39c2.255,1.47,4.627,2.76,6.813,4.35c-1.753,1.93-5.369,1.65-7.813,2.69
			c2.703,1.12,5.431,2.2,8.162,3.27c-2.714,1.25-5.459,2.439-8.191,3.641c2.854,0.689,5.709,1.379,8.563,2.059
			c-2.384,1.553-4.768,3.08-7.082,4.73c2.795,0.34,5.601,0.6,8.405,0.881c-2.253,1.969-4.547,3.899-6.841,5.819
			c3.015-0.21,6.05-0.41,9.074-0.61c-1.974,2.301-3.968,4.563-5.96,6.82c2.954-0.62,5.9-1.279,8.865-1.92
			c-1.583,2.49-3.154,4.99-4.688,7.52c2.744-0.99,5.458-2.039,8.185-3.067c-1.104,2.698-2.244,5.39-3.316,8.108
			c2.555-1.438,5.099-2.92,7.643-4.391c-0.729,2.859-1.472,5.721-2.173,8.58c2.334-1.79,4.637-3.62,6.951-5.439
			c-0.29,2.91-0.581,5.812-0.831,8.729c2.053-2.11,4.057-4.261,6.05-6.42c0.148,2.97,0.279,5.93,0.439,8.899
			c1.563-2.342,3.095-4.709,4.918-6.869c0.802,2.55,1.342,5.18,1.963,7.789c1.354-2.479,2.585-5.012,3.817-7.549
			c1.013,2.737,2.084,5.469,3.203,8.17c0.805-2.791,1.573-5.603,2.364-8.393c1.524,2.46,2.955,4.979,4.368,7.512
			c0.521-2.892,0.931-5.789,1.312-8.689c1.804,2.31,3.636,4.6,5.549,6.83c-0.069-2.87-0.149-5.74-0.18-8.61
			c2.214,1.92,4.366,3.91,6.53,5.88c-0.521-2.9-1.052-5.79-1.531-8.689c2.453,1.602,4.877,3.262,7.313,4.91
			c-0.912-2.811-1.845-5.608-2.728-8.42c2.655,1.279,5.312,2.569,7.985,3.812c-1.372-2.66-2.755-5.302-4.117-7.95
			c2.765,0.852,5.539,1.723,8.324,2.527c-1.595-2.438-3.308-4.799-4.997-7.157c2.934,0.42,5.889,0.84,8.832,1.26
			c-2.111-2.09-4.217-4.188-6.248-6.358c2.835-0.049,5.688-0.069,8.533-0.119c-2.224-1.801-4.485-3.53-6.73-5.28
			c2.875-0.511,5.738-1.011,8.613-1.54c-2.645-1.33-5.269-2.68-7.871-4.061c2.725-0.899,5.438-1.852,8.104-2.939
			c-2.635-0.9-5.269-1.75-7.893-2.66c2.482-1.47,5.008-2.85,7.54-4.23c-2.823-0.45-5.648-0.9-8.452-1.39
			c2.244-1.84,4.558-3.58,6.882-5.31c-2.944-0.07-5.9-0.09-8.835-0.11c2.063-2.09,4.146-4.17,6.189-6.3
			c-2.914,0.37-5.828,0.77-8.734,1.16c1.753-2.35,3.506-4.71,5.199-7.1c-2.835,0.78-5.639,1.62-8.454,2.46
			c1.372-2.63,2.745-5.26,4.087-7.9c-2.695,1.26-5.369,2.55-8.044,3.84c0.942-2.82,1.913-5.62,2.875-8.43
			c-2.464,1.6-4.897,3.24-7.342,4.86c0.479-2.92,0.991-5.83,1.481-8.74c-2.186,2.04-4.366,4.08-6.562,6.11
			c0.069-2.99,0.171-5.979,0.262-8.96c-1.884,2.33-3.737,4.69-5.59,7.05c-0.361-2.82-0.741-5.64-1.192-8.45
			c-1.593,2.39-3.032,4.86-4.437,7.36c-0.762-2.74-1.533-5.48-2.375-8.19c-1.15,2.55-2.293,5.11-3.404,7.68
			C514.875,265.76,513.693,263.18,512.481,260.62 M412.266,304.51c-1.683-0.05-3.365-0.09-5.048-0.13
			c1.332,1.2,2.725,2.33,4.065,3.53c-0.391,1.619-0.771,3.24-1.16,4.869c1.313-0.899,2.604-1.869,4.047-2.579
			c1.383,0.54,2.646,1.329,3.938,2.06c-0.181-1.539-0.571-3.08-0.411-4.63c1.062-1.18,2.304-2.18,3.516-3.21
			c-1.713,0.01-3.426,0-5.128,0.02c-0.501-1.54-1.063-3.06-1.563-4.59C413.788,301.42,412.967,302.94,412.266,304.51
			 M435.845,299.86c-0.581,1.56-1.212,3.1-1.803,4.67c-1.515,0.01-3.017,0.04-4.52,0.08c1.212,1.07,2.306,2.3,3.526,3.38
			c-0.37,1.41-0.791,2.8-1.151,4.22c1.412-0.69,2.807-1.47,4.31-1.97c1.45,0.71,2.764,1.689,4.096,2.609
			c-0.46-1.66-0.911-3.32-1.354-4.979c1.423-1.16,2.855-2.32,4.287-3.48c-1.732,0.06-3.465,0.07-5.179,0.15
			C437.337,302.96,436.596,301.41,435.845,299.86 M455.948,304.35c-1.833,0.01-3.666,0.1-5.489,0.11
			c1.452,1.16,2.955,2.27,4.417,3.431c-0.551,1.639-1.072,3.289-1.623,4.939c1.522-0.9,2.935-2.18,4.708-2.551
			c1.503,0.721,2.875,1.701,4.277,2.621c-0.581-1.69-1.143-3.393-1.691-5.09c1.512-1.13,3.055-2.223,4.575-3.353
			c-1.933-0.01-3.846-0.08-5.77-0.1c-0.501-1.57-1.002-3.15-1.492-4.72C457.189,301.2,456.599,302.78,455.948,304.35z"/>
		<path fill="#3FC8F4" d="M501.783,288.08c4.348-0.15,8.693-0.14,13.041-0.11c-0.01,1.67-0.021,3.34-0.021,5.01
			c-2.834,0-5.679,0-8.514,0.01c-0.182,1.89-0.381,3.78-0.581,5.67c2.124-1.15,4.748-2.54,7.111-1.09
			c3.285,1.86,2.805,6.18,2.994,9.4c-0.18,3.959,0.642,8.98-2.914,11.74c-2.896,1.99-7.231,1.851-9.938-0.399
			c-2.293-2.09-1.893-5.488-2.191-8.279c1.521-0.021,3.056-0.021,4.588-0.029c0.211,1.432,0.318,2.898,0.689,4.313
			c1.502,1.188,4.438,1.119,4.497-1.301c0.06-3.58,1.343-8.151-1.282-11.032c-2.284-0.58-3.506,1.07-4.227,2.95
			c-1.382,0.03-2.766,0.06-4.148,0.1C501.193,299.38,501.543,293.73,501.783,288.08z"/>
		<path fill="#3FC8F4" d="M521.736,288.58c3.937-1.73,9.745-0.2,10.728,4.43c0.682,4.29,0.182,8.67,0.331,13.01
			c-0.09,3.259,0.359,6.63-0.581,9.8c-2.274,6.209-13.312,5.539-14.243-1.24c-0.501-6.189-0.119-12.43-0.211-18.63
			C517.609,293.02,518.791,289.71,521.736,288.58 M523.66,293.46l-0.551,0.42c-0.752,6.3-0.313,12.72-0.241,19.05
			c-0.12,2.771,4.808,2.91,4.828,0.12c0.391-6.01,0.391-12.08,0-18.09C527.746,293.01,524.932,292.27,523.66,293.46z"/>
		<path fill="#3FC8F4" d="M539.826,288.56c3.676-1.51,8.925-0.45,10.418,3.62c1.061,3.84,0.42,7.88,0.57,11.81
			c-0.143,3.91,0.471,7.92-0.541,11.74c-2.193,6.317-13.401,5.67-14.273-1.201c-0.49-6.159-0.13-12.359-0.21-18.539
			C535.62,293.03,536.832,289.68,539.826,288.56 M541.699,293.39c-0.17,0.24-0.521,0.72-0.689,0.96
			c-0.461,6.16-0.251,12.39-0.12,18.57c-0.121,2.76,4.777,2.939,4.838,0.15c0.391-6.021,0.391-12.12,0-18.15
			C545.696,292.95,543.063,292.38,541.699,293.39z"/>
		<path fill="#3FC8F4" d="M121.536,290.06c1.162-0.05,2.323-0.1,3.495-0.13c0.051,0.54,0.151,1.6,0.201,2.13
			c1.663,1.09,3.806,1.93,4.507,3.98c0.751,2.05,0.662,4.27,0.852,6.41c-1.513,0.04-3.025,0.07-4.538,0.12
			c-0.481-2.07,0-6.33-3.325-5.52c-2.554,0.12-2.334,3.82-1.502,5.54c2.674,4.06,8.284,6.16,8.925,11.49
			c0.981,4.061-0.982,8.29-4.898,9.891c-0.06,0.529-0.17,1.579-0.221,2.109c-1.172-0.03-2.344-0.07-3.515-0.12
			c-0.962-2.2-3.005-3.489-4.618-5.13c-1.152-1.84-1.022-4.16-1.453-6.221c1.552-0.039,3.095-0.09,4.648-0.129
			c0.561,1.527,0.38,4.85,2.684,4.549c2.665,0.341,2.925-3.09,2.264-4.899c-1.723-3.88-6.21-5.489-8.243-9.13
			c-1.462-2.79-1.503-6.26-0.301-9.14C117.99,293.77,120.384,292.44,121.536,290.06z"/>
		<path fill="#3FC8F4" d="M67.085,292.54c3.927-1.66,9.716-0.09,10.607,4.54c0.741,4.92,0.17,9.93,0.371,14.891
			c-0.08,2.819,0.28,5.799-0.892,8.459c-2.765,5.58-13.012,4.7-13.973-1.81c-0.46-6.181-0.09-12.41-0.2-18.6
			C62.778,297,64.101,293.69,67.085,292.54 M68.909,297.43c-0.181,0.23-0.551,0.68-0.742,0.91c-0.641,5.2-0.16,10.471-0.31,15.7
			c0.27,1.681-0.501,4.46,1.823,4.899c1.914,0.891,3.616-1.129,3.295-2.949c0.081-5.68,0.26-11.38-0.12-17.05
			C72.855,297.01,70.261,296.32,68.909,297.43z"/>
		<path fill="#3FC8F4" d="M85.847,292.15c3.646-0.93,8.474,0.7,9.335,4.74c0.731,4.33,0.201,8.76,0.361,13.129
			c-0.11,3.351,0.391,6.83-0.671,10.068c-2.293,5.32-11.208,5.37-13.652,0.132c-1.042-2.61-0.651-5.521-0.741-8.262
			c0.14-4.65-0.21-9.31,0.17-13.94C80.788,295.14,83.122,292.8,85.847,292.15 M86.838,297.18l-0.721,0.32
			c-1.473,4.31-0.471,9.02-0.771,13.5c0.26,2.62-0.711,5.91,1.352,7.98c1.593,0.24,3.706,0.049,3.686-2
			c0.271-5.98,0.28-12.01-0.01-17.99C90.394,297.17,88.28,296.49,86.838,297.18z"/>
		<path fill="#3FC8F4" d="M98.978,296.15c1.743-4.71,8.474-5.48,12.04-2.47c2.344,2.07,1.933,5.51,2.224,8.32
			c-1.523,0-3.055-0.01-4.567-0.01c-0.09-2.47-0.501-5.93-3.947-5.03c-2.604,3.15-1.452,8.11-1.022,11.91
			c1.573,2.64,4.809,0.58,5.279-1.79c1.383-0.04,2.754-0.08,4.137-0.12c-0.291,5.66-0.641,11.31-0.882,16.97
			c-4.347,0.141-8.694,0.131-13.042,0.11c0-1.67,0.01-3.34,0.01-5.011c2.835,0,5.679-0.01,8.524-0.01
			c0.18-1.899,0.371-3.789,0.581-5.67c-2.133,1.131-4.728,2.521-7.092,1.108c-2.684-1.41-2.845-4.75-2.965-7.4
			C98.237,303.42,97.937,299.67,98.978,296.15z"/>
		<path fill="#3FC8F4" d="M306.922,319.721c4.497,14.289,7.862,28.92,11.909,43.34C335.71,426,352.597,488.94,369.476,551.88
			c1.069,3.84,2.151,7.68,2.822,11.62c-41.637,10.55-85.821,10.92-127.58,0.76c-0.921-0.66-3.776-0.34-2.845-2.13
			c10.487-39.74,21.275-79.41,31.873-119.12C284.835,401.92,295.663,360.76,306.922,319.721 M299.58,475.86
			c-10.658,1.96-20.534,8.27-26.464,17.37c-6.451,9.537-8.364,21.897-5.289,32.97c4.137,15.85,18.821,28.21,35.198,29.45
			c13.642,1.367,27.706-4.87,35.829-15.893c7.652-10,10.098-23.688,6.44-35.729c-3.275-11.353-11.938-20.973-22.838-25.54
			C315.315,475.29,307.252,474.75,299.58,475.86z"/>
		<path fill="#3FC8F4" d="M31.196,374.811c3.956-0.398,7.402,4.049,5.719,7.771c-1.533,4.271-8.494,4.42-10.217,0.238
			C24.896,379.5,27.56,375.2,31.196,374.811z"/>
		<path fill="#3FC8F4" d="M579.973,375.641c3.597-1.561,7.974,1.42,7.813,5.319c0.062,4.261-5.407,7.11-8.814,4.45
			C575.355,383.16,576.126,377.23,579.973,375.641z"/>
		<path fill="#3FC8F4" d="M295.012,491.03c2.063-0.763,4.317-0.62,6.481-0.853c-0.01,1.75-0.02,3.513-0.02,5.271
			c-1.673,0.01-3.346,0.067-5.008,0.1c-0.08,1.4-0.14,2.8-0.19,4.22c2.324-0.17,5.179,0.473,6.841-1.607
			c3.365-3.313,6.431-8.32,11.892-7.76c4.526-0.83,6.391,3.817,9.767,5.647c-0.04,0.94-0.07,1.9-0.093,2.87
			c-2.344,1.16-3.516,3.62-5.509,5.19c-1.713,0.68-3.627,0.56-5.43,0.8c-0.01-1.41-0.01-2.82-0.01-4.23
			c1.513-0.729,4.348-0.317,4.407-2.567c-0.149-0.73-0.461-2.183-0.621-2.91c-2.704,0.27-5.78,0.45-7.573,2.81
			c-2.886,3.271-5.949,7.643-10.978,6.82c-4.587,0.82-6.04-4.19-9.396-5.99c0.01-0.67,0.03-2.01,0.04-2.688
			C291.746,494.8,292.989,492.48,295.012,491.03z"/>
		<path fill="#3FC8F4" d="M102.915,503.24c4.086-2.521,9.595,2.35,7.763,6.72c-1.012,3.79-6.521,5.14-9.115,2.21
			C98.768,509.78,99.459,504.64,102.915,503.24z"/>
		<path fill="#3FC8F4" d="M505.74,503.58c3.686-1.74,8.645,0.96,8.162,5.26c0.021,5.103-7.621,6.93-10.165,2.74
			C501.763,509.03,502.865,504.95,505.74,503.58z"/>
		<path fill="#3FC8F4" d="M312.251,507.39c2.863,0.25,6.229-0.357,8.552,1.78c2.938,2.771,3.018,7.99,0.401,11.01
			c-2.943,2.763-7.572,2.63-11.089,1.09c-5.418-1.947-8.273-7.907-14.073-9.117c-0.07,3.117-0.07,6.237-0.07,9.367
			c-1.492,0-2.975,0.013-4.467,0.021c0.02-4.71,0.02-9.42,0-14.13c3.656,0.06,7.723-0.15,10.678,2.41
			c4.125,3.26,8.001,8.31,13.932,7.51c2.505-0.19,2.414-2.83,2.364-4.69c-2.044-0.157-4.076-0.29-6.111-0.39
			C312.32,510.62,312.29,509.01,312.251,507.39z"/>
		<path fill="#3FC8F4" d="M296.404,524.58c4.517-0.521,9.085-0.08,13.631-0.23c2.967,0.093,6.04-0.33,8.925,0.563
			c6,2.229,5.36,12.85-1.03,14.12c-4.599,0.7-9.286,0.16-13.914,0.34c-2.945-0.09-6.029,0.35-8.854-0.69
			C289.413,536.18,289.923,525.76,296.404,524.58 M297.335,529.51c-2.484,0.44-2.013,4.91,0.621,4.76
			c5.019,0.33,10.057,0.053,15.095,0.16c1.873-0.12,4.155,0.313,5.39-1.487c0.802-1.74-0.552-3.78-2.465-3.54
			C309.767,529.3,303.526,529.13,297.335,529.51z"/>
		<path fill="#3FC8F4" d="M231.337,576.64c3.816-1.37,8.153,2.28,7.202,6.28c-0.471,4.34-6.631,6.23-9.476,2.9
			C226.098,583.11,227.5,577.68,231.337,576.64z"/>
		<path fill="#3FC8F4" d="M379.563,576.57c3.227-0.69,6.751,2.067,6.49,5.438c0.391,4.3-5.199,7.313-8.595,4.67
			C373.512,584.24,374.754,577.09,379.563,576.57z"/>
	</g>
	<g id="_x23_ffffffff">
		<path fill="#FFFFFF" d="M286.037,33.16c69.425-5.68,140.492,16.73,194.351,60.73c32.414,26.29,58.739,60.04,76.147,97.95
			c18.4,39.92,27.165,84.26,25.061,128.16c-1.893,40.91-13.21,81.33-32.714,117.36c-17.298,32.13-41.096,60.76-69.534,83.67
			c-30.842,24.897-67.22,42.85-105.704,52.397c-43.622,10.98-89.958,11.021-133.57-0.02c-42.01-10.55-81.464-31.15-114.018-59.69
			c-39.826-34.59-69.145-80.97-83.408-131.698c-13.001-45.449-14.003-94.262-2.655-140.162c11.469-46.88,35.529-90.65,69.094-125.39
			C155.091,68.13,219.507,38.12,286.037,33.16 M242.946,50.35c-2.053,0.15-0.801,2.1-0.671,3.36
			c21.616,80.17,42.891,160.43,64.626,240.57c1.304-3.38,2.226-6.87,3.105-10.37c20.824-77.76,41.718-155.51,62.533-233.28
			C330.29,39.7,285.226,39.54,242.946,50.35 M378.41,52.14c-21.826,81.62-43.943,163.16-65.54,244.84
			c59.86-59.63,119.606-119.35,179.336-179.11C460.586,86.9,421.03,64.14,378.41,52.14 M121.836,117.88
			c59.668,59.76,119.458,119.41,179.236,179.07c-1.452-7.05-3.616-13.92-5.389-20.88c-20.113-74.64-39.876-149.37-60.2-223.94
			C192.943,64.23,153.298,86.75,121.836,117.88 M52,235.57c81.465,21.93,163.02,43.59,244.503,65.44
			C236.936,241.3,177.217,181.72,117.619,122.03C86.768,153.68,64.021,193.07,52,235.57 M317.68,300.96
			c81.436-21.83,162.929-43.44,244.313-65.42c-11.958-42.51-34.635-81.96-65.587-113.51
			C436.877,181.72,377.088,241.15,317.68,300.96 M50.458,372.52c81.584-21.729,163.159-43.527,244.704-65.45
			c-3.335-1.14-6.741-2.04-10.157-2.92c-78.199-20.87-156.368-41.85-234.578-62.69C39.39,284.23,39.46,329.75,50.458,372.52
			 M439.591,274.6c-40.235,10.88-80.604,21.28-120.751,32.47c81.566,21.92,163.151,43.72,244.766,65.459
			c11.027-42.771,10.959-88.271-0.04-131.039C522.217,252.42,480.919,263.58,439.591,274.6 M52.03,378.48
			c11.96,42.5,34.627,81.97,65.599,113.5c59.548-59.682,119.317-119.16,178.765-178.94C214.95,334.88,133.435,356.49,52.03,378.48
			 M317.52,312.99c59.56,59.74,119.277,119.317,178.886,178.99c30.86-31.633,53.599-71.03,65.618-113.521
			C480.559,356.51,399.004,334.87,317.52,312.99 M121.816,496.14c31.612,30.98,71.177,53.75,113.808,65.73
			c21.806-81.62,43.942-163.16,65.518-244.83C241.293,376.67,181.545,436.4,121.816,496.14 M312.901,317.04
			c9.005,35.05,18.7,69.92,27.976,104.91c12.511,46.63,24.982,93.27,37.522,139.89c42.641-11.91,82.296-34.59,113.789-65.7
			C432.479,436.38,372.72,376.68,312.901,317.04 M306.922,319.721c-11.259,41.039-22.087,82.199-33.175,123.289
			c-10.598,39.71-21.386,79.38-31.873,119.12c-0.932,1.79,1.923,1.47,2.844,2.13c41.759,10.16,85.942,9.79,127.58-0.76
			c-0.671-3.94-1.752-7.78-2.822-11.62C352.597,488.94,335.71,426,318.831,363.061C314.784,348.641,311.419,334.01,306.922,319.721z
			"/>
		<path fill="#FFFFFF" d="M298.488,56.77c10.295-2.23,21.446-0.27,30.292,5.48c8.212,5.26,14.402,13.59,17.017,22.99
			c2.824,9.99,1.632,21.06-3.386,30.17c-5.851,10.91-17.048,18.74-29.299,20.58c-9.937,1.63-20.374-0.87-28.688-6.48
			c-9.857-6.6-16.518-17.74-17.52-29.56c-0.892-9.21,1.513-18.7,6.731-26.35C279.346,65.08,288.441,58.9,298.488,56.77
			 M294.351,72.51c-5.529,2.7-4.778,13.01,1.683,13.94c6.32,0.43,12.681,0.12,19.01,0.18c2.525,0.14,5.189-0.83,6.482-3.12
			c2.143-3.79,1.108-10.04-3.527-11.39c-4.268-0.94-8.675-0.31-13-0.48C301.453,71.77,297.717,71.13,294.351,72.51 M293.249,91.23
			c-3.245,2.69-3.355,8.1-0.711,11.24c2.294,2.43,5.94,1.9,8.965,2.17c-0.03-1.61-0.06-3.22-0.09-4.83
			c-1.943-0.11-3.886-0.29-5.82-0.43c-0.11-1.33-0.21-2.65-0.291-3.98c2.114-0.45,4.357-1.14,6.491-0.3
			c4.748,1.4,7.413,6.03,11.67,8.25c2.715,1.46,5.878,1.1,8.844,1.24c0-4.7,0-9.41-0.011-14.11c-1.513,0-3.015,0-4.518,0
			c0,3.17-0.021,6.34-0.13,9.51c-5.53-1.47-8.454-6.99-13.633-9.1C300.671,89.34,296.374,88.99,293.249,91.23 M294.792,107.82
			c-1.933,0.79-2.644,2.94-3.726,4.54c-0.591,0.09-1.763,0.25-2.354,0.33c0.32,1.72,0,3.96,2.244,4.42
			c2.885,5.71,11.419,5.97,15.404,1.33c2.875-3.07,6.03-8.1,11.009-5.75c1.833,3.53-2.465,4.19-5.02,4.02
			c-0.04,1.71-0.069,3.42-0.101,5.14c2.014-0.19,4.067-0.18,6.039-0.69c2.034-0.61,2.905-2.73,4.028-4.32
			c0.521-0.14,1.57-0.43,2.093-0.58c-0.063-0.76-0.19-2.28-0.261-3.04c-2.175-1.28-3.376-3.58-5.238-5.2
			c-2.284-1.16-5.048-0.95-7.503-0.55c-4.438,1.11-6,6.04-9.655,8.29c-1.753,1.11-3.946,0.93-5.84,0.38
			c-1.873-3,1.623-4.65,4.097-4.84c-0.03-1.44-0.06-2.88-0.08-4.31C298.207,107.23,296.454,107.3,294.792,107.82z"/>
		<path fill="#FFFFFF" d="M295.403,81.39c0.18-1.69-0.702-4.17,1.682-4.57c4.618-0.54,9.287-0.08,13.924-0.25
			c1.913,0.12,4.007-0.3,5.788,0.56c1.936,0.7,0.751,2.87,0.854,4.35C310.236,81.76,302.805,81.89,295.403,81.39z"/>
		<path fill="#FFFFFF" d="M408.779,81.93c9.526-0.88,19.321,1.88,27.035,7.52c9.536,6.77,15.704,17.96,16.518,29.59
			c0.741,8.9-1.663,18-6.641,25.41c-6.142,9.38-16.447,15.89-27.547,17.46c-13.603,2.27-28.087-3.38-36.859-13.93
			c-11.912-13.81-12.521-35.73-1.283-50.12C386.703,88.73,397.501,82.84,408.779,81.93 M413.457,89.37
			c-3.193,1.34-5.179,5.18-4.718,8.57c0.643,3.74,4.508,5.29,7.395,7.04c4.558,2.36,8.733,5.47,13.491,7.41
			c6.291,2.25,11.98-6.68,7.742-11.54c-3.284-3.27-7.742-4.95-11.601-7.41C422.002,91.35,418.075,88.06,413.457,89.37
			 M404.522,104.46c-4.178,1.98-6.489,8.49-2.716,11.94c3.787,3.08,8.346,5,12.44,7.61c2.557,1.34,4.969,3.34,7.945,3.64
			c6.197,1.05,10.606-8.34,5.778-12.4c-3.363-2.83-7.481-4.55-11.179-6.88C413.057,106.25,409.11,103.02,404.522,104.46
			 M395.468,117.92c-0.329,0.91-0.681,1.81-1.042,2.71c2.294,2.68-0.528,7.33,3.446,8.66c0.581-1.1,1.172-2.19,1.763-3.29
			c7.113,3.76,13.914,8.09,20.994,11.92c0.773-1.41,1.543-2.81,2.324-4.21C413.818,128.41,404.763,122.94,395.468,117.92
			 M386.794,133.81c-0.611-0.09-1.823-0.28-2.424-0.38c-0.313,0.67-0.912,2.01-1.214,2.68c0.94,2.43,1.144,5.14,2.334,7.47
			c2.266,2.83,6.021,4.66,9.676,3.92c3.837-0.7,7.583-3.14,11.59-1.9c2.053,0.78,2.714,3.06,1.552,4.89
			c-2.083,0.01-4.016-0.81-5.96-1.43c-0.729,1.46-1.432,2.93-2.143,4.4c3.496,1.93,7.902,3.24,11.278,0.3
			c0.642,0.021,1.902,0.05,2.533,0.07c0.411-0.95,0.821-1.88,1.242-2.82c-0.359-0.3-1.082-0.91-1.452-1.21
			c0.672-4.99-3.646-9.53-8.585-9.52c-3.916-0.4-7.352,1.88-11.128,2.31c-2.111,0.24-4.979-1.03-4.957-3.45
			c0.04-3.15,3.767-1.34,5.629-1.38c0.69-1.3,1.372-2.61,2.055-3.91C393.584,132.36,389.898,131.61,386.794,133.81z"/>
		<path fill="#FFFFFF" d="M195.217,84.57c7.492-0.95,15.305-0.28,22.247,2.83c12.51,5.28,21.786,17.3,23.839,30.69
			c1.623,10.24-0.841,21.06-6.851,29.53c-7.833,11.32-21.846,18.08-35.619,16.96c-17.178-0.78-32.694-13.98-36.5-30.67
			c-2.735-11.22-0.361-23.56,6.4-32.93C174.854,92.23,184.7,86.28,195.217,84.57 M197.241,99.53c-5.73,3.2-11.59,6.27-17.008,9.99
			c-5.58,4.01-0.941,14.06,5.679,12.88c3.917-1,7.132-3.65,10.667-5.51c3.476-2.21,7.623-3.67,10.287-6.92
			C210.563,104.41,203.411,95.5,197.241,99.53 M199.794,118.02c-2.314,1.43-5.118,3.08-5.489,6.07c-0.09,2.49,2.233,4.04,3.436,5.98
			c-1.563,1.04-3.246,1.89-4.878,2.82c-1.382-2.44-2.795-4.85-4.187-7.27c-1.212,0.58-2.444,1.13-3.616,1.81
			c0.932,4.27,4.107,7.68,6.03,11.55c5.369-2.52,10.598-5.34,15.906-7.99c-0.661-1.28-1.372-2.521-2.033-3.79
			c-1.573,0.15-3.135,0.26-4.698,0.38c-0.12-1.14-0.19-2.29-0.201-3.45c2.875-2.75,6.671-4.23,10.137-6.1
			c0.55,1.24,1.583,2.37,1.632,3.78c-1.202,1.18-2.625,2.11-3.816,3.31c0.541,1.43,1.313,2.76,2.003,4.13
			c1.663-1.02,3.456-1.87,4.868-3.25c4.237-4.28-0.07-13.02-6.02-12.35C205.564,114.41,202.709,116.36,199.794,118.02
			 M210.131,133.26c-2.113,3.2-1.923,7.24-3.365,10.69c-0.991,1.63-2.614,2.73-3.977,4.01c-0.851-0.74-1.643-1.52-2.394-2.35
			c-1.032-1.88,1.723-2.86,2.584-4.17c-0.691-1.2-1.453-2.36-2.233-3.49c-4.958,1.15-4.778,6.64-6.571,10.36
			c0.471,0.74,0.952,1.47,1.422,2.21c1.863,0.01,3.626,0.61,5.349,1.25c2.875,1.37,5.95-0.71,8.164-2.48
			c3.927-3.5,2.615-9.52,5.479-13.6c1.192-1.77,3.616-1.25,5.429-1.68c0.721,2.88-1.563,4.55-3.596,6.06
			c0.721,1.33,1.432,2.66,2.164,3.99c2.093-1.13,4.638-2.1,5.719-4.41c0.661-2.31,1.092-4.68,1.833-6.97
			c-0.43-0.81-0.861-1.63-1.292-2.44c-0.802,0.13-1.603,0.26-2.404,0.39c-1.512-0.74-3.044-1.47-4.567-2.19
			C215.12,129.68,211.834,130.55,210.131,133.26z"/>
		<path fill="#FFFFFF" d="M414.038,93.83c4.529,0.39,8.094,3.33,11.93,5.41c2.504,1.479,5.209,2.69,7.383,4.65
			c1.542,1.24,0.08,4.29-1.873,3.78c-3.746-1.19-6.892-3.71-10.348-5.52c-2.572-1.58-5.559-2.7-7.553-5.05
			C413.688,96.28,413.929,94.64,414.038,93.83z"/>
		<path fill="#FFFFFF" d="M190.008,109.28c3.626-1.94,6.992-4.41,10.868-5.86c1.031,0.8,2.013,1.66,2.945,2.59
			c-3.355,3.59-7.993,5.43-12.08,8.01c-2.464,1.56-5.098,2.85-7.863,3.77c-0.45-0.78-1.342-2.36-1.793-3.14
			C184.399,112.41,187.194,110.8,190.008,109.28z"/>
		<path fill="#FFFFFF" d="M405.555,109c4.108,0.22,7.332,2.93,10.798,4.81c2.896,1.76,6.08,3.13,8.614,5.43
			c0,1.19-0.028,2.38-0.068,3.57c-2.033-0.18-4.067-0.54-5.8-1.67c-4.879-2.97-10.027-5.54-14.675-8.9
			C404.713,111.43,405.273,109.81,405.555,109z"/>
		<path fill="#FFFFFF" d="M477.714,160.74c10.598-2.9,22.537-1.94,32.053,3.81c8.665,4.94,15.195,13.32,18.142,22.82
			c3.045,9.72,2.173,20.58-2.355,29.71c-4.598,9.47-13.103,16.98-23.098,20.35c-10.678,3.73-22.908,2.57-32.745-2.99
			c-9.003-4.96-15.845-13.57-18.821-23.38c-3.335-10.73-1.853-22.83,3.957-32.45C459.904,170.09,468.248,163.67,477.714,160.74
			 M495.463,177c-2.854,1.12-5.63,3.72-5.299,7.04c0.553,3.56,2.847,6.49,4.529,9.58c2.322,3.71,4.035,7.83,6.908,11.18
			c4.1,4.71,13.174,0.29,12.271-5.8c-0.439-3.19-2.482-5.83-3.977-8.59c-2.322-3.74-4.168-7.76-6.78-11.3
			C501.423,176.77,498.117,175.84,495.463,177 M478.996,192.05c0.359,0.49,1.07,1.48,1.422,1.97c1.202-0.35,2.414-0.69,3.626-1.02
			c3.945,6.81,7.792,13.68,11.9,20.4c1.361-0.78,2.724-1.56,4.105-2.33c-5.147-9.3-10.617-18.42-15.876-27.66
			C481.029,185.32,481.6,189.61,478.996,192.05 M467.537,191.22c-0.78,0.563-1.553,1.13-2.313,1.7c-0.61,3.8-2.915,7.92-0.301,11.5
			c2.094,4.37,7.17,5.13,11.417,6c2.865,0.4,5.59,2.6,5.59,5.68c-1.9,3.77-4.958-0.18-6.14-2.32c-1.433,0.8-2.865,1.59-4.288,2.39
			c1.423,2.08,2.585,4.6,4.919,5.84c1.482,0.51,3.085,0.41,4.637,0.54c0.401,0.41,1.192,1.22,1.594,1.63
			c3.165-1.87,3.348-5.96,4.107-9.17c-0.393-3.5-2.574-6.95-5.9-8.32c-2.823-1.13-5.891-1.35-8.743-2.34
			c-2.504-0.83-4.658-3.97-2.976-6.45c2.374-1.44,3.718,1.09,5.197,2.47c1.282-0.76,2.565-1.53,3.858-2.29
			c-2.017-3.25-5.062-5.76-9.097-5.49C468.568,192.13,468.047,191.67,467.537,191.22z"/>
		<path fill="#FFFFFF" d="M117.729,161.89c8.835-1.39,18.11,0.04,25.913,4.46c10.458,5.53,17.99,16.03,20.164,27.62
			c1.893,9.6,0.13,19.85-4.918,28.24c-5.399,9.27-14.714,16.11-25.152,18.59c-9.716,2.27-20.293,1.02-28.998-3.93
			c-11.088-6-18.851-17.54-20.394-30.01c-1.343-9.61,1.042-19.64,6.48-27.68C96.825,169.97,106.921,163.7,117.729,161.89
			 M112.27,191.6c-1.382,2.65-3.646,5.87-1.933,8.87c1.132,2.48,4.127,2.22,6.38,2.53c-1.192,1.84-2.374,3.69-3.546,5.54
			c-2.464-1.47-4.968-2.89-7.482-4.26c-0.651,1.39-1.322,2.78-1.963,4.188c3.736,2.04,7.402,4.2,11.079,6.35
			c3.306-4.99,6.531-10.02,9.846-15c-1.282-0.82-2.584-1.58-3.866-2.39c-1.282,1.811-4.277,3.53-5.609,0.771
			c0.461-3.62,2.774-6.84,4.928-9.71c1.473-2.26,3.135,0.229,4.518,1.17c-0.812,1.5-1.603,3.01-2.424,4.5
			c1.352,0.9,2.714,1.81,4.066,2.72c1.342-2.45,3.215-5,2.714-7.95c-0.671-3.8-4.718-6.189-8.354-6.21
			C116.146,183.52,114.374,188.16,112.27,191.6 M138.042,192.2c-4.518-0.76-8.354,2.6-9.395,6.81
			c-1.904,5.67,4.597,11.41,0.911,16.79c-1.122,1.88-3.326,0.43-4.738-0.24c0.5-1.46,1.001-2.92,1.513-4.37
			c-1.343-0.7-2.685-1.4-4.017-2.09c-1.953,3.2-2.544,7.03-0.15,10.19c-0.09,0.61-0.25,1.84-0.34,2.46
			c0.991,0.45,1.973,0.91,2.965,1.36c0.331-0.37,0.991-1.11,1.322-1.48c4.788,0.8,8.715-3.02,9.546-7.49
			c1.442-5.36-4.357-10.53-1.412-15.68c0.781-1.75,2.995-0.94,4.487-1.31c-0.121,2.14-0.702,4.21-1.542,6.18
			c1.362,0.84,2.714,1.68,4.086,2.53c2.284-3.38,3.636-7.87,0.801-11.36c0.06-0.6,0.181-1.78,0.23-2.37
			c-0.721-0.43-2.174-1.29-2.895-1.72C139.074,190.86,138.383,191.75,138.042,192.2z"/>
		<path fill="#FFFFFF" d="M383.498,169.68c0.101,1.9,0.069,3.81,0.141,5.71c1.913,0.19,3.836,0.38,5.749,0.65
			c-1.611,0.19-3.227,0.37-4.838,0.53c0.03,2.22,0.05,4.44,0.05,6.66c-0.43-1.26-0.831-2.53-1.212-3.8
			c-1.422,0-2.845,0.01-4.267,0.02c-0.644,0.82-1.282,1.65-1.923,2.48c0.971-1.98,1.94-3.96,2.854-5.97
			c-1.293-1-2.745-1.73-4.017-2.73c1.783,0.62,3.564,1.34,5.486,1.42C382.867,173.39,382.816,171.31,383.498,169.68z"/>
		<path fill="#FFFFFF" d="M495.753,182.28c1.023-1.99,3.697-0.62,4.328,1.09c2.985,5.2,6.39,10.22,8.754,15.74
			c0.872,1.98-1.592,3.07-3.205,2.71c-2.224-2.32-3.527-5.3-5.147-8.02c-1.783-3.28-4.008-6.35-5.409-9.84
			C495.242,183.54,495.583,182.7,495.753,182.28z"/>
		<path fill="#FFFFFF" d="M372.48,187.83c0.1,2.13,0.1,4.28,0.317,6.41c1.814,0.27,3.647,0.45,5.481,0.65
			c-1.564,0.31-3.156,0.46-4.708,0.72c0.02,2.17,0.029,4.34,0.029,6.51c-0.4-1.28-0.792-2.57-1.151-3.85
			c-1.434,0.07-2.846,0.15-4.268,0.24c-0.712,0.75-1.413,1.5-2.113,2.25c0.801-1.26,1.683-2.47,2.544-3.69
			c-0.011-0.82-0.03-2.45-0.04-3.27c-1.212-0.42-2.414-0.83-3.605-1.27c2.162,0.05,4.325,0.13,6.499,0.2
			C371.779,191.09,372.119,189.45,372.48,187.83z"/>
		<path fill="#FFFFFF" d="M361.441,206.87c0.13,2.1,0.142,4.21,0.4,6.3c1.803,0.29,3.626,0.43,5.438,0.64
			c-1.573,0.28-3.155,0.56-4.736,0.8c0.028,1.87,0.05,3.74,0.06,5.62c-0.41-0.99-0.801-1.97-1.182-2.96
			c-1.212,0.01-2.404,0.03-3.606,0.05c-0.883,0.61-1.753,1.21-2.635,1.81c0.821-0.95,1.662-1.89,2.504-2.82
			c-0.01-0.89-0.02-2.65-0.029-3.54c-0.962-0.43-1.912-0.88-2.863-1.32c1.883,0.08,3.766,0.15,5.657,0.26
			C360.761,210.09,361.092,208.48,361.441,206.87z"/>
		<path fill="#FFFFFF" d="M94.21,260.71c1.132,2.63,2.174,5.31,3.186,7.99c1.362-2.61,2.654-5.26,3.926-7.92
			c0.561,2.87,1.122,5.74,1.703,8.61c1.653-2.29,3.305-4.58,5.068-6.79c0.2,2.83,0.34,5.66,0.501,8.5
			c1.993-2.19,3.986-4.37,6.05-6.49c-0.271,2.92-0.571,5.83-0.852,8.75c2.314-1.82,4.618-3.66,6.961-5.44
			c-0.711,2.84-1.452,5.67-2.153,8.52c2.554-1.43,5.099-2.88,7.673-4.28c-1.132,2.7-2.304,5.39-3.446,8.1
			c2.734-1.04,5.458-2.09,8.193-3.12c-1.472,2.52-3.005,5-4.477,7.51c2.834-0.61,5.669-1.24,8.514-1.83
			c-1.863,2.24-3.756,4.45-5.589,6.71c2.925-0.16,5.86-0.34,8.785-0.52c-2.264,1.95-4.537,3.88-6.801,5.82
			c2.855,0.25,5.719,0.5,8.574,0.79c-2.364,1.69-4.818,3.26-7.282,4.79c2.864,0.65,5.709,1.32,8.563,2.03
			c-2.624,1.24-5.288,2.38-7.953,3.55c2.644,1.17,5.309,2.32,7.923,3.55c-2.854,0.71-5.709,1.399-8.574,2.069
			c2.495,1.49,4.958,3.041,7.322,4.75c-2.855,0.301-5.709,0.541-8.564,0.791c2.254,1.938,4.517,3.857,6.771,5.81
			c-2.925-0.17-5.86-0.351-8.785-0.51c1.854,2.26,3.756,4.479,5.619,6.72c-2.844-0.6-5.679-1.24-8.514-1.87
			c1.452,2.54,2.985,5.04,4.518,7.54c-2.734-1.029-5.469-2.061-8.214-3.029c1.132,2.682,2.294,5.34,3.436,8.021
			c-2.575-1.398-5.119-2.84-7.683-4.262c0.701,2.859,1.442,5.709,2.153,8.57c-2.324-1.841-4.638-3.701-6.962-5.531
			c0.271,2.933,0.571,5.861,0.842,8.803c-2.043-2.15-4.046-4.33-6.05-6.512c-0.151,2.812-0.291,5.629-0.491,8.449
			c-1.783-2.209-3.456-4.49-5.068-6.82c-0.571,2.883-1.142,5.763-1.723,8.643c-1.262-2.63-2.544-5.238-3.917-7.813
			c-1.022,2.66-2.083,5.303-3.175,7.933c-0.731-2.608-1.393-5.24-2.484-7.729c-1.583,2.181-3.036,4.431-4.407,6.738
			c-0.411-2.818-0.742-5.658-1.082-8.488c-1.883,2.289-3.726,4.608-5.589,6.92c0.05-2.961,0.11-5.909,0.15-8.871
			c-2.154,2-4.297,4.021-6.491,5.99c0.491-2.91,1.001-5.801,1.502-8.709c-2.454,1.648-4.888,3.311-7.332,4.948
			c0.911-2.76,1.833-5.521,2.654-8.312c-2.594,1.201-5.178,2.432-7.793,3.602c1.302-2.602,2.645-5.189,3.977-7.771
			c-2.854,0.83-5.699,1.67-8.564,2.473c1.783-2.359,3.556-4.723,5.279-7.109c-2.915,0.369-5.84,0.771-8.755,1.149
			c2.073-2.103,4.177-4.183,6.251-6.29c-2.985-0.053-5.96-0.092-8.936-0.182c2.415-1.729,4.829-3.438,7.242-5.16
			c-2.875-0.528-5.75-1.051-8.594-1.721c2.554-1.317,5.118-2.6,7.683-3.91c-2.685-0.93-5.359-1.837-8.003-2.857
			c2.625-1.03,5.299-1.95,7.963-2.88c-2.584-1.33-5.169-2.66-7.713-4.05c2.865-0.54,5.75-1.01,8.634-1.48
			c-2.394-1.82-4.838-3.59-7.292-5.33c2.995-0.02,5.979-0.05,8.975-0.12c-2.053-2.11-4.137-4.18-6.21-6.27
			c2.935,0.37,5.87,0.78,8.795,1.17c-1.743-2.4-3.536-4.77-5.329-7.14c2.865,0.8,5.709,1.63,8.564,2.46
			c-1.322-2.57-2.665-5.12-3.947-7.7c2.635,1.13,5.229,2.36,7.833,3.57c-0.881-2.79-1.813-5.56-2.714-8.34
			c2.434,1.62,4.848,3.28,7.262,4.94c-0.451-2.9-0.942-5.79-1.413-8.68c2.184,1.97,4.327,3.98,6.481,5.99
			c-0.04-2.97-0.121-5.93-0.161-8.89c1.854,2.3,3.687,4.62,5.569,6.9c0.36-2.87,0.731-5.73,1.172-8.59
			c1.492,2.47,2.915,4.97,4.387,7.45C92.608,266.24,93.399,263.47,94.21,260.71 M121.536,290.06c-1.152,2.38-3.546,3.71-5.039,5.8
			c-1.202,2.88-1.162,6.35,0.301,9.14c2.033,3.641,6.521,5.25,8.243,9.13c0.662,1.81,0.401,5.24-2.264,4.899
			c-2.304,0.301-2.123-3.021-2.684-4.549c-1.553,0.039-3.096,0.09-4.648,0.129c0.431,2.061,0.3,4.381,1.453,6.221
			c1.612,1.641,3.656,2.93,4.618,5.13c1.171,0.05,2.343,0.09,3.515,0.12c0.051-0.53,0.161-1.58,0.221-2.109
			c3.917-1.601,5.88-5.83,4.898-9.891c-0.641-5.33-6.25-7.43-8.925-11.49c-0.832-1.72-1.052-5.42,1.502-5.54
			c3.325-0.81,2.844,3.45,3.325,5.52c1.513-0.05,3.025-0.08,4.538-0.12c-0.19-2.14-0.1-4.36-0.852-6.41
			c-0.701-2.05-2.844-2.89-4.507-3.98c-0.05-0.53-0.15-1.59-0.201-2.13C123.859,289.96,122.697,290.01,121.536,290.06
			 M67.085,292.54c-2.985,1.15-4.307,4.46-4.086,7.48c0.11,6.19-0.261,12.419,0.2,18.6c0.961,6.51,11.208,7.39,13.973,1.81
			c1.172-2.66,0.812-5.64,0.892-8.459c-0.2-4.961,0.371-9.971-0.371-14.891C76.801,292.45,71.012,290.88,67.085,292.54
			 M85.847,292.15c-2.725,0.65-5.059,2.99-5.199,5.87c-0.38,4.63-0.03,9.29-0.17,13.94c0.09,2.74-0.3,5.649,0.741,8.261
			c2.444,5.239,11.359,5.189,13.652-0.131c1.062-3.24,0.561-6.72,0.671-10.07c-0.16-4.37,0.371-8.799-0.361-13.127
			C94.32,292.85,89.492,291.22,85.847,292.15 M98.978,296.15c-1.042,3.52-0.741,7.27-0.721,10.91c0.12,2.65,0.281,5.99,2.965,7.4
			c2.364,1.41,4.958,0.021,7.092-1.11c-0.21,1.881-0.401,3.771-0.581,5.67c-2.845,0-5.689,0.012-8.524,0.012
			c0,1.671-0.01,3.341-0.01,5.011c4.348,0.021,8.694,0.028,13.042-0.108c0.241-5.66,0.591-11.312,0.882-16.972
			c-1.383,0.04-2.754,0.08-4.137,0.12c-0.47,2.37-3.706,4.432-5.279,1.79c-0.43-3.8-1.582-8.76,1.022-11.91
			c3.446-0.9,3.856,2.56,3.947,5.03c1.512,0,3.044,0.01,4.567,0.01c-0.291-2.81,0.12-6.25-2.224-8.32
			C107.452,290.67,100.721,291.44,98.978,296.15z"/>
		<path fill="#FFFFFF" d="M512.481,260.62c1.212,2.56,2.394,5.14,3.606,7.71c1.11-2.57,2.253-5.13,3.403-7.68
			c0.842,2.71,1.612,5.45,2.375,8.19c1.401-2.5,2.844-4.97,4.437-7.36c0.451,2.81,0.831,5.63,1.192,8.45
			c1.853-2.36,3.706-4.72,5.589-7.05c-0.09,2.98-0.189,5.97-0.26,8.96c2.191-2.03,4.375-4.07,6.561-6.11
			c-0.491,2.91-1.002,5.82-1.481,8.74c2.443-1.62,4.878-3.26,7.342-4.86c-0.962,2.81-1.933,5.61-2.875,8.43
			c2.675-1.29,5.35-2.58,8.044-3.84c-1.342,2.64-2.715,5.27-4.087,7.9c2.815-0.84,5.619-1.68,8.454-2.46
			c-1.693,2.39-3.446,4.75-5.199,7.1c2.905-0.39,5.821-0.79,8.734-1.16c-2.043,2.13-4.127,4.21-6.189,6.3
			c2.936,0.02,5.89,0.04,8.835,0.11c-2.324,1.73-4.638,3.47-6.882,5.31c2.805,0.49,5.629,0.94,8.452,1.39
			c-2.532,1.38-5.059,2.76-7.54,4.23c2.624,0.91,5.258,1.76,7.893,2.66c-2.665,1.09-5.379,2.04-8.104,2.939
			c2.604,1.381,5.229,2.729,7.871,4.061c-2.874,0.529-5.737,1.029-8.613,1.54c2.244,1.75,4.508,3.479,6.73,5.28
			c-2.845,0.05-5.697,0.07-8.533,0.119c2.03,2.17,4.137,4.271,6.248,6.358c-2.943-0.42-5.899-0.84-8.832-1.26
			c1.689,2.358,3.402,4.72,4.997,7.157c-2.784-0.809-5.561-1.68-8.324-2.527c1.362,2.648,2.745,5.29,4.117,7.95
			c-2.675-1.24-5.329-2.53-7.985-3.812c0.883,2.812,1.814,5.609,2.727,8.42c-2.436-1.648-4.858-3.311-7.313-4.91
			c0.479,2.899,1.012,5.789,1.531,8.689c-2.164-1.97-4.316-3.96-6.53-5.88c0.028,2.87,0.108,5.739,0.18,8.61
			c-1.913-2.23-3.746-4.521-5.549-6.83c-0.381,2.9-0.791,5.8-1.312,8.688c-1.413-2.528-2.847-5.051-4.368-7.511
			c-0.791,2.79-1.563,5.602-2.364,8.393c-1.119-2.701-2.191-5.433-3.203-8.17c-1.231,2.537-2.464,5.067-3.817,7.549
			c-0.621-2.609-1.161-5.24-1.964-7.789c-1.822,2.16-3.354,4.527-4.918,6.869c-0.159-2.972-0.291-5.932-0.438-8.899
			c-1.993,2.159-3.997,4.31-6.05,6.42c0.25-2.92,0.541-5.819,0.831-8.729c-2.315,1.819-4.617,3.649-6.951,5.439
			c0.701-2.859,1.441-5.721,2.173-8.58c-2.544,1.471-5.088,2.95-7.643,4.391c1.071-2.721,2.214-5.41,3.316-8.108
			c-2.727,1.028-5.439,2.077-8.185,3.067c1.531-2.527,3.104-5.027,4.688-7.52c-2.965,0.641-5.91,1.3-8.866,1.92
			c1.993-2.26,3.987-4.52,5.96-6.82c-3.023,0.2-6.06,0.4-9.073,0.61c2.294-1.92,4.587-3.851,6.841-5.819
			c-2.806-0.281-5.61-0.541-8.405-0.881c2.315-1.65,4.698-3.18,7.082-4.73c-2.854-0.68-5.71-1.367-8.563-2.059
			c2.731-1.201,5.479-2.391,8.191-3.641c-2.731-1.07-5.459-2.15-8.162-3.27c2.443-1.04,6.062-0.76,7.813-2.69
			c-2.187-1.59-4.56-2.88-6.813-4.35c3.188-0.29,6.393-0.42,9.607-0.39c0.147,1.84,0.159,3.78,0.921,5.51
			c1.873,3.97,6.539,5.71,8.434,9.629c0.782,1.699,0.411,5.238-2.023,5c-3.113,0.381-2.492-3.529-2.925-5.459
			c-1.563-0.021-3.125-0.031-4.679-0.031c0.21,2.16,0.19,4.391,0.912,6.471c0.661,1.99,2.774,2.79,4.388,3.859
			c0.09,0.551,0.29,1.648,0.381,2.201c1.144-0.031,2.294-0.053,3.445-0.08c0.961-3.052,4.777-3.98,5.47-7.131
			c1.082-3.771,0.06-8.17-3.096-10.65c-2.625-2.51-6.952-4.95-6.111-9.21c0.142-2.29,3.155-2.77,4.348-1.01
			c0.342,1.14,0.611,2.3,0.821,3.49c1.543-0.02,3.095-0.03,4.658-0.05c-0.16-3.76-1.273-7.74-5.199-9.12
			c-0.13-0.58-0.399-1.76-0.531-2.34c-1.271-0.01-2.532-0.01-3.796,0.01c-0.108,0.54-0.319,1.64-0.421,2.18
			c-2.162,1.34-5.207,3.02-4.257,6.13c-0.95-0.18-1.911-0.37-2.854-0.55c-1.623-1.76-3.376-3.39-5.139-5
			c2.875,0.17,5.76,0.35,8.645,0.52c-1.883-2.23-3.774-4.44-5.63-6.69c2.856,0.57,5.7,1.19,8.555,1.8
			c-1.543-2.53-3.114-5.02-4.728-7.49c2.795,0.98,5.568,2.02,8.372,3c-1.172-2.68-2.354-5.35-3.506-8.03
			c2.584,1.41,5.159,2.86,7.743,4.3c-0.722-2.81-1.452-5.62-2.123-8.439c2.323,1.75,4.606,3.56,6.911,5.36
			c-0.28-2.91-0.581-5.82-0.831-8.72c2.043,2.12,4.034,4.29,6.05,6.45c0.147-2.99,0.291-5.97,0.431-8.96
			c1.644,2.41,3.285,4.83,4.988,7.22C511.198,266.24,511.81,263.42,512.481,260.62 M501.783,288.08
			c-0.24,5.65-0.59,11.3-0.894,16.95c1.385-0.04,2.768-0.07,4.148-0.1c0.721-1.88,1.94-3.53,4.227-2.95
			c2.625,2.88,1.343,7.45,1.282,11.03c-0.062,2.42-2.995,2.49-4.497,1.301c-0.371-1.41-0.479-2.881-0.69-4.311
			c-1.531,0.01-3.065,0.01-4.586,0.029c0.3,2.791-0.103,6.189,2.19,8.281c2.705,2.25,7.042,2.39,9.938,0.397
			c3.556-2.761,2.734-7.78,2.915-11.74c-0.19-3.22,0.291-7.54-2.995-9.4c-2.362-1.45-4.986-0.06-7.111,1.09
			c0.2-1.89,0.399-3.78,0.581-5.67c2.835-0.01,5.68-0.01,8.514-0.01c0-1.67,0.011-3.34,0.021-5.01
			C510.478,287.94,506.131,287.93,501.783,288.08 M521.736,288.58c-2.945,1.13-4.127,4.44-3.978,7.37
			c0.091,6.2-0.29,12.44,0.211,18.63c0.933,6.779,11.969,7.449,14.243,1.24c0.94-3.17,0.491-6.541,0.581-9.8
			c-0.15-4.34,0.35-8.72-0.331-13.01C531.482,288.38,525.673,286.85,521.736,288.58 M539.826,288.56
			c-2.993,1.12-4.205,4.47-4.035,7.43c0.08,6.18-0.281,12.38,0.21,18.539c0.872,6.871,12.08,7.521,14.274,1.201
			c1.011-3.82,0.397-7.83,0.54-11.74c-0.15-3.93,0.488-7.97-0.571-11.81C548.751,288.11,543.502,287.05,539.826,288.56z"/>
		<path fill="#FFFFFF" d="M523.66,293.46c1.271-1.19,4.086-0.45,4.036,1.5c0.391,6.01,0.391,12.08,0,18.09
			c-0.021,2.79-4.948,2.65-4.828-0.12c-0.07-6.33-0.511-12.75,0.241-19.05L523.66,293.46z"/>
		<path fill="#FFFFFF" d="M541.699,293.39c1.361-1.01,3.997-0.44,4.027,1.53c0.391,6.03,0.391,12.13,0,18.15
			c-0.062,2.789-4.959,2.609-4.838-0.15c-0.131-6.18-0.341-12.41,0.12-18.57C541.179,294.11,541.529,293.63,541.699,293.39z"/>
		<path fill="#FFFFFF" d="M68.909,297.43c1.352-1.11,3.946-0.42,3.946,1.51c0.38,5.67,0.201,11.371,0.12,17.05
			c0.32,1.82-1.382,3.84-3.295,2.949c-2.324-0.439-1.553-3.219-1.823-4.899c0.15-5.229-0.331-10.5,0.31-15.7
			C68.358,298.11,68.728,297.66,68.909,297.43z"/>
		<path fill="#FFFFFF" d="M86.838,297.18c1.442-0.69,3.556-0.01,3.536,1.81c0.29,5.98,0.28,12.01,0.01,17.99
			c0.02,2.049-2.093,2.238-3.686,2c-2.063-2.07-1.092-5.36-1.352-7.98c0.3-4.48-0.701-9.19,0.771-13.5L86.838,297.18z"/>
		<path fill="#FFFFFF" d="M486.879,369.84c9.214-0.619,18.621,2.1,26.093,7.53c9.587,6.771,15.776,18,16.608,29.68
			c0.971,11.53-3.446,23.353-11.68,31.49c-7.663,7.77-18.632,12.03-29.51,11.86c-7.611-0.353-15.194-2.65-21.506-6.96
			c-10.167-6.66-16.799-18.263-17.63-30.353c-0.872-10.35,2.605-20.92,9.255-28.869C465.453,375.779,475.981,370.51,486.879,369.84
			 M487.961,390.38c-6.721-1.18-11.509,6.771-9.246,12.603c0.773,3.438,3.296,7.21,1.042,10.607c-0.751,1.603-2.614,1.38-4.025,1
			c-1.185-2.02,0.641-4.04,1.172-5.96c-1.452-0.858-3.018-1.54-4.468-2.397c-1.873,3.487-3.285,7.828-0.501,11.27
			c-0.052,0.59-0.17,1.79-0.229,2.39c0.73,0.433,2.183,1.29,2.915,1.723c0.34-0.45,1.011-1.341,1.352-1.79
			c6.352,1.14,11.188-6.12,9.367-11.801c-0.813-3.649-3.366-7.659-1.202-11.279c0.722-2.16,4.065-1.92,4.758,0.12
			c-0.28,0.93-0.842,2.777-1.111,3.71c1.313,0.79,2.594,1.64,3.938,2.438c0.78-1.97,1.873-3.92,1.912-6.09
			c-0.381-1.5-1.189-2.818-1.792-4.22c0.062-0.83,0.189-1.642,0.392-2.438c-1.031-0.449-2.054-0.91-3.066-1.382
			C488.862,389.26,488.262,390.01,487.961,390.38 M489.373,411.18c1.282,0.813,2.584,1.603,3.876,2.42
			c1.224-1.89,4.358-3.56,5.611-0.729c-0.514,3.6-2.806,6.79-4.94,9.67c-1.45,2.26-3.145-0.33-4.535-1.18
			c0.819-1.5,1.61-3.013,2.452-4.513c-1.371-0.907-2.733-1.817-4.085-2.72c-1.292,2.42-3.188,4.91-2.705,7.83
			c0.842,5.64,9.365,8.76,12.853,3.61c2.563-3.91,5.527-7.9,6.439-12.57c0.19-3.85-3.867-5.16-7.021-4.99
			c1.132-1.777,2.254-3.567,3.354-5.357c2.504,1.229,4.958,2.56,7.323,4.06c0.819-1.36,1.593-2.75,2.412-4.1
			c-3.767-2.08-7.482-4.25-11.188-6.42C495.914,401.17,492.698,406.21,489.373,411.18z"/>
		<path fill="#FFFFFF" d="M117.238,372.689c9.466-1.569,19.512,0.108,27.736,5.131c9.255,5.459,16.006,14.83,18.49,25.25
			c2.604,10.817,0.461,22.67-5.809,31.88c-5.179,7.897-13.413,13.567-22.437,16.22c-10.908,3.05-23.098,1.34-32.625-4.84
			c-9.826-6.08-16.537-16.73-18.2-28.11c-1.402-9.737,0.852-19.97,6.35-28.159C96.664,380.939,106.551,374.609,117.238,372.689
			 M129.829,402.88c2.975,3.61,8.043,3.32,12.09,4.79c2.504,0.82,4.687,4.05,2.884,6.49c-2.133,0.97-3.516-1.18-5.229-1.95
			c-1.362,0.31-2.594,0.98-3.876,1.49c1.232,1.53,2.313,3.229,3.886,4.46c2.334,0.91,4.838,1.31,7.152,2.31
			c0.691-0.45,1.372-0.897,2.073-1.33c0.561-3.81,2.915-7.93,0.32-11.51c-2.364-4.95-8.284-5.147-12.881-6.43
			c-2.864-0.643-5.9-4.97-2.604-6.99c2.414-0.04,3.275,2.47,4.578,4.01c1.432-0.777,2.865-1.567,4.297-2.35
			c-1.422-2.11-2.574-4.64-4.928-5.87c-1.492-0.529-3.095-0.42-4.638-0.55c-0.42-0.41-1.252-1.22-1.672-1.63
			C127.175,391.35,125.833,398.7,129.829,402.88 M113.372,400.81c5.058,9.143,10.518,18.07,15.576,27.223
			c0.872-0.32,1.753-0.61,2.645-0.87c-0.071-2.88,1.252-5.36,3.145-7.44c-1.262-1.979-3.425-1.18-5.289-0.87
			c-4.157-6.487-7.352-13.607-11.87-19.84C116.146,399.52,114.774,400.2,113.372,400.81 M105.068,405.59
			c-3.416,1.13-6.411,4.62-5.269,8.393c1.442,4.447,4.417,8.188,6.541,12.317c1.993,3.26,3.516,7.36,7.262,8.99
			c3.846,0.9,8.344-1.53,9.565-5.31c0.812-3.423-1.482-6.48-3.015-9.343c-2.754-4.35-4.869-9.107-8.003-13.21
			C110.547,405.24,107.522,404.79,105.068,405.59z"/>
		<path fill="#FFFFFF" d="M251.42,393.77c0.391,0.98,0.781,1.961,1.172,2.95c1.212-0.01,2.414-0.02,3.626-0.04
			c0.872-0.6,1.743-1.188,2.614-1.779c-0.821,0.932-1.653,1.852-2.484,2.779c0,0.893,0,2.66,0,3.553
			c0.972,0.43,1.943,0.867,2.925,1.317c-1.903-0.08-3.806-0.16-5.709-0.24c-0.291,1.61-0.661,3.223-0.992,4.843
			c-0.121-2.133-0.13-4.263-0.371-6.37c-1.843-0.25-3.696-0.42-5.539-0.563c1.592-0.357,3.215-0.55,4.828-0.85
			C251.43,397.5,251.44,395.641,251.42,393.77z"/>
		<path fill="#FFFFFF" d="M103.976,411.66c1.383-0.65,3.426-2.46,4.698-0.7c3.295,5.12,6.27,10.46,9.215,15.79
			c1.303,1.53-0.14,4.53-2.253,3.76c-1.523,0.021-1.923-1.777-2.755-2.71C109.826,422.47,106.561,417.24,103.976,411.66z"/>
		<path fill="#FFFFFF" d="M240.452,418.41c-0.02-2.17-0.02-4.34,0.01-6.5c0.38,1.27,0.741,2.54,1.102,3.82
			c1.422-0.07,2.854-0.15,4.287-0.23c0.691-0.74,1.393-1.47,2.093-2.2c-0.801,1.24-1.682,2.44-2.534,3.65c0,0.83,0,2.479,0,3.3
			c1.222,0.37,2.444,0.76,3.646,1.18c-2.173-0.04-4.348-0.09-6.521-0.14c-0.28,1.62-0.641,3.24-0.931,4.87
			c-0.201-2.23-0.401-4.45-0.771-6.643c-1.943-0.107-3.876-0.21-5.81-0.357C236.826,418.86,238.629,418.62,240.452,418.41z"/>
		<path fill="#FFFFFF" d="M229.454,430.84c0.411,1.3,0.791,2.603,1.172,3.92c2.454,0.15,4.728-0.6,6.38-2.438
			c-1.382,1.77-2.324,3.8-3.145,5.89c1.352,0.74,2.684,1.521,4.036,2.26c-2.093-0.09-4.197-0.18-6.29-0.229
			c-0.351,1.37-0.701,2.75-1.092,4.107c-0.08-1.93-0.1-3.867-0.12-5.79c-1.913-0.157-3.826-0.277-5.719-0.5
			c1.593-0.26,3.185-0.487,4.798-0.688C229.444,435.19,229.424,433.01,229.454,430.84z"/>
		<path fill="#FFFFFF" d="M400.606,448.65c9.925-2.58,21.045-2.053,30.18,2.897c9.696,4.94,17.088,14.05,20.083,24.47
			c2.942,10.021,1.753,21.183-3.226,30.36c-4.56,8.57-12.351,15.33-21.454,18.68c-10.609,4.063-22.921,3.15-32.915-2.188
			c-9.076-4.78-16.128-13.19-19.322-22.91c-4.037-11.9-2.024-25.65,5.289-35.88C384.33,456.69,392.072,451.32,400.606,448.65
			 M402.96,464.83c-1.592,3.16-1.592,6.84-2.915,10.1c-0.891,1.683-2.664,2.643-4.036,3.88c-1.102-1.04-2.725-1.938-2.344-3.72
			c1.162-1.13,2.454-2.12,3.736-3.107c-0.831-1.393-1.663-2.763-2.484-4.143c-1.901,1.33-4.366,2.271-5.438,4.46
			c-0.621,2.34-0.962,4.78-1.964,7.01c0.512,0.86,1.063,1.71,1.623,2.57c0.472-0.13,1.422-0.397,1.894-0.53
			c2.944,2.11,6.73,2.393,9.687,0.11c4.467-2.43,4.667-7.85,5.86-12.19c0.529-2.487,2.953-3.75,4.746-5.237
			c0.854,0.96,1.663,1.96,2.455,2.987c-0.621,1.36-1.813,2.33-2.774,3.433c0.581,1.3,1.162,2.59,1.763,3.897
			c1.543-1,3.406-1.76,4.407-3.38c0.99-2.357,1.383-4.91,2.232-7.31c-0.44-0.813-0.821-1.643-1.143-2.49
			c-0.841,0.13-1.673,0.271-2.504,0.42C411.595,458.06,405.505,460.56,402.96,464.83 M406.556,481.02
			c0.632,1.28,1.283,2.57,1.925,3.87c1.394-0.237,2.794-0.47,4.196-0.697c0.261,0.76,0.791,2.29,1.063,3.05
			c-2.362,3.34-6.643,4.51-9.967,6.647c-0.792-0.947-1.531-1.93-2.232-2.93c0.551-1.96,2.725-2.74,4.137-3.99
			c-0.701-1.357-1.392-2.72-2.094-4.06c-1.793,0.97-3.777,1.77-5.138,3.35c-4.098,4.49,0.688,13.183,6.689,12.03
			c3.226-0.96,6.08-2.82,8.955-4.521c2.152-1.397,4.696-2.987,5.127-5.737c0.212-2.603-2.264-4.08-3.624-5.92
			c1.48-1.15,3.255-2.03,4.889-3.013c1.543,2.49,3.055,5,4.558,7.521c1.282-0.83,2.563-1.65,3.855-2.46
			c-2.151-3.68-4.285-7.37-6.319-11.11C417.073,475.38,411.875,478.33,406.556,481.02 M425.588,490.38
			c-5.738,3.18-11.55,6.313-16.998,9.96c-5.92,3.813-1.002,14.353,5.629,12.98c4.548-1.4,8.345-4.44,12.531-6.61
			c3.045-1.91,6.78-3.28,8.693-6.5C438.219,494.56,431.487,486.85,425.588,490.38z"/>
		<path fill="#FFFFFF" d="M190.389,450.87c10.297-2.94,21.746-1.66,31.031,3.72c11.049,6.13,18.731,17.8,20.083,30.34
			c1.232,9.92-1.482,20.223-7.362,28.29c-7.302,10.23-19.643,16.771-32.274,16.603c-9.846,0.35-19.582-3.521-26.974-9.933
			c-9.786-8.52-14.944-21.947-13.422-34.81C163.044,469.21,175.003,455.1,190.389,450.87 M199.895,457.79
			c-0.32,0.59-0.962,1.76-1.272,2.35c1.353,3.271,0.952,7.65,4.377,9.7c4.337,3.563,10.157,1.37,14.864-0.12
			c2.464-0.95,6.781,0.17,6.521,3.32c-0.351,3-3.776,1.13-5.729,1.19c-0.571,1.157-1.202,2.31-1.643,3.539
			c3.396,3.528,8.063,0.891,12.06,0.421c0.431-0.62,1.282-1.883,1.713-2.513c-0.38-0.38-1.152-1.14-1.532-1.52
			c0.491-3.97-1.703-7.66-5.509-8.98c-5.94-3.107-11.95,3.74-17.839,0.803c-1.893-1.15-1.453-3.08-0.281-4.603
			c1.893,0.34,3.717,0.97,5.58,1.48c0.731-1.37,1.442-2.74,2.173-4.093c-2.604-1.487-5.429-2.59-8.484-2.31
			C203.401,457.54,201.798,458.78,199.895,457.79 M193.114,473.04c-0.742,1.36-1.502,2.71-2.124,4.14
			c3.405,2.643,7.382,4.41,11.038,6.67c5.599,3.093,10.908,6.71,16.778,9.29c0.4-3.487-1.112-6.868-0.461-10.368
			c-0.631-0.172-1.903-0.512-2.534-0.689c-0.622,0.97-1.223,1.96-1.793,2.97C207.007,481.1,200.115,476.98,193.114,473.04
			 M188.286,483.72c-3.115,1.8-5.379,5.61-4.327,9.25c0.741,2.63,3.335,4.013,5.499,5.353c4.057,2.27,8.034,4.66,12.06,6.979
			c2.333,1.45,5.269,2.021,7.913,1.15c3.996-2.063,6.21-8.23,2.654-11.67c-3.716-3.2-8.344-5.08-12.46-7.71
			C196.199,485.16,192.452,482.22,188.286,483.72 M180.122,498.57c-4.598,1.64-7.192,8.72-3.115,12.229
			c3.366,2.84,7.483,4.54,11.188,6.88c3.736,2.143,7.703,5.341,12.311,3.9c4.207-1.96,6.481-8.563,2.634-11.95
			c-3.997-3.18-8.754-5.22-13.051-7.95C187.054,499.99,183.818,497.58,180.122,498.57z"/>
		<path fill="#FFFFFF" d="M299.58,475.86c7.673-1.11,15.736-0.57,22.877,2.63c10.898,4.567,19.563,14.188,22.838,25.54
			c3.656,12.04,1.212,25.729-6.439,35.729c-8.124,11.021-22.188,17.26-35.83,15.893c-16.377-1.24-31.062-13.603-35.198-29.45
			c-3.075-11.07-1.162-23.433,5.289-32.971C279.045,484.13,288.922,477.82,299.58,475.86 M295.012,491.03
			c-2.023,1.45-3.266,3.77-5.399,5.12c-0.01,0.68-0.03,2.02-0.04,2.688c3.355,1.8,4.808,6.813,9.396,5.99
			c5.028,0.82,8.093-3.55,10.978-6.82c1.793-2.357,4.868-2.54,7.573-2.81c0.16,0.729,0.472,2.18,0.621,2.91
			c-0.062,2.25-2.896,1.84-4.407,2.567c0,1.41,0,2.82,0.01,4.23c1.803-0.24,3.717-0.12,5.43-0.8c1.993-1.57,3.165-4.03,5.509-5.19
			c0.021-0.97,0.053-1.93,0.093-2.87c-3.376-1.83-5.239-6.479-9.767-5.647c-5.46-0.563-8.525,4.447-11.892,7.76
			c-1.663,2.08-4.517,1.438-6.841,1.607c0.05-1.42,0.11-2.817,0.19-4.22c1.663-0.03,3.335-0.09,5.008-0.1
			c0-1.761,0.01-3.521,0.02-5.271C299.329,490.41,297.075,490.27,295.012,491.03 M312.251,507.39c0.038,1.62,0.068,3.23,0.118,4.86
			c2.034,0.1,4.068,0.23,6.111,0.39c0.051,1.86,0.141,4.5-2.364,4.69c-5.931,0.8-9.807-4.25-13.932-7.51
			c-2.955-2.563-7.022-2.353-10.678-2.41c0.02,4.71,0.02,9.42,0,14.13c1.492-0.01,2.975-0.021,4.467-0.021c0-3.13,0-6.25,0.07-9.367
			c5.8,1.21,8.654,7.17,14.073,9.117c3.518,1.54,8.146,1.673,11.089-1.09c2.614-3.02,2.534-8.239-0.401-11.01
			C318.48,507.03,315.115,507.64,312.251,507.39 M296.404,524.58c-6.481,1.18-6.991,11.6-1.242,14.1
			c2.825,1.04,5.91,0.603,8.854,0.69c4.627-0.18,9.315,0.36,13.915-0.34c6.391-1.271,7.03-11.893,1.029-14.12
			c-2.885-0.893-5.958-0.47-8.925-0.563C305.489,524.5,300.921,524.06,296.404,524.58z"/>
		<path fill="#FFFFFF" d="M189.538,488.09c4.387,0.67,7.882,3.57,11.679,5.61c2.444,1.46,5.139,2.62,7.252,4.567
			c1.222,1.16,0.561,2.9-0.842,3.513c-2.093,0.397-3.916-0.96-5.649-1.893c-4.578-2.857-9.516-5.157-13.763-8.527
			C188.546,490.55,189.207,488.91,189.538,488.09z"/>
		<path fill="#FFFFFF" d="M411.465,504.4c5.367-3.58,11.037-6.803,16.777-9.75c2.522-1,4.195,3.05,1.86,4.237
			c-5.559,3.67-11.537,6.7-17.287,10.08C412.025,507.69,409.331,505.74,411.465,504.4z"/>
		<path fill="#FFFFFF" d="M180.122,503.24c4.107,0.06,7.382,2.729,10.808,4.64c3.286,1.86,6.591,3.71,9.656,5.95
			c-0.28,0.8-0.841,2.4-1.122,3.189c-4.146-0.182-7.412-2.899-10.898-4.802c-2.864-1.75-6.03-3.107-8.524-5.38
			C180.042,505.63,180.072,504.43,180.122,503.24z"/>
		<path fill="#FFFFFF" d="M297.335,529.51c6.19-0.38,12.431-0.21,18.641-0.107c1.913-0.24,3.267,1.8,2.465,3.54
			c-1.232,1.8-3.517,1.367-5.39,1.487c-5.038-0.107-10.077,0.17-15.095-0.16C295.322,534.42,294.852,529.95,297.335,529.51z"/>
	</g>
	<g id="_x23_f05a61ff">
		<path fill="#F05A61" d="M378.41,52.14c42.62,12,82.176,34.76,113.796,65.73C432.478,177.63,372.73,237.35,312.87,296.98
			C334.467,215.3,356.584,133.76,378.41,52.14 M408.779,81.93c-11.278,0.91-22.076,6.8-28.775,15.93
			c-11.239,14.39-10.629,36.31,1.282,50.12c8.773,10.55,23.258,16.2,36.86,13.93c11.099-1.57,21.404-8.08,27.546-17.46
			c4.978-7.41,7.382-16.51,6.641-25.41c-0.813-11.63-6.981-22.82-16.518-29.59C428.102,83.81,418.306,81.05,408.779,81.93
			 M383.498,169.68c-0.683,1.63-0.631,3.71-1.975,4.97c-1.924-0.08-3.704-0.8-5.487-1.42c1.271,1,2.724,1.73,4.017,2.73
			c-0.912,2.01-1.884,3.99-2.854,5.97c0.641-0.83,1.279-1.66,1.923-2.48c1.422-0.01,2.845-0.02,4.267-0.02
			c0.381,1.27,0.782,2.54,1.212,3.8c0-2.22-0.02-4.44-0.05-6.66c1.611-0.16,3.227-0.34,4.838-0.53
			c-1.913-0.27-3.836-0.46-5.749-0.65C383.568,173.49,383.599,171.58,383.498,169.68 M372.48,187.83
			c-0.361,1.62-0.701,3.26-1.015,4.9c-2.174-0.07-4.337-0.15-6.499-0.2c1.19,0.438,2.395,0.85,3.605,1.27
			c0.01,0.82,0.029,2.45,0.04,3.27c-0.861,1.22-1.743,2.43-2.544,3.69c0.7-0.75,1.401-1.5,2.113-2.25
			c1.423-0.09,2.834-0.17,4.268-0.24c0.359,1.28,0.751,2.57,1.151,3.85c0-2.17-0.012-4.34-0.029-6.51
			c1.552-0.26,3.145-0.41,4.708-0.72c-1.834-0.2-3.667-0.38-5.481-0.65C372.58,192.11,372.58,189.96,372.48,187.83 M361.441,206.87
			c-0.351,1.61-0.682,3.22-0.992,4.84c-1.894-0.11-3.775-0.18-5.657-0.26c0.951,0.44,1.901,0.89,2.863,1.32
			c0.012,0.89,0.021,2.65,0.029,3.54c-0.842,0.93-1.683,1.87-2.504,2.82c0.882-0.6,1.752-1.2,2.635-1.81
			c1.201-0.02,2.396-0.04,3.606-0.05c0.381,0.99,0.771,1.97,1.182,2.96c-0.01-1.88-0.029-3.75-0.06-5.62
			c1.582-0.24,3.163-0.52,4.736-0.8c-1.813-0.21-3.637-0.35-5.438-0.64C361.582,211.08,361.571,208.97,361.441,206.87z"/>
		<path fill="#F05A61" d="M413.457,89.37c4.618-1.31,8.545,1.98,12.311,4.07c3.857,2.46,8.315,4.14,11.601,7.41
			c4.237,4.86-1.451,13.79-7.742,11.54c-4.758-1.94-8.935-5.05-13.491-7.41c-2.887-1.75-6.752-3.3-7.395-7.04
			C408.278,94.55,410.263,90.71,413.457,89.37 M414.038,93.83c-0.108,0.81-0.352,2.45-0.461,3.27c1.994,2.35,4.979,3.47,7.553,5.05
			c3.456,1.81,6.602,4.33,10.348,5.52c1.953,0.51,3.415-2.54,1.873-3.78c-2.174-1.96-4.879-3.17-7.383-4.65
			C422.132,97.16,418.566,94.22,414.038,93.83z"/>
		<path fill="#F05A61" d="M404.522,104.46c4.588-1.44,8.534,1.79,12.271,3.91c3.696,2.33,7.814,4.05,11.179,6.88
			c4.828,4.06,0.42,13.45-5.778,12.4c-2.978-0.3-5.39-2.3-7.945-3.64c-4.097-2.61-8.653-4.53-12.44-7.61
			C398.032,112.95,400.346,106.44,404.522,104.46 M405.555,109c-0.28,0.81-0.842,2.43-1.132,3.24c4.647,3.36,9.796,5.93,14.675,8.9
			c1.731,1.13,3.767,1.49,5.8,1.67c0.04-1.19,0.068-2.38,0.068-3.57c-2.533-2.3-5.72-3.67-8.614-5.43
			C412.887,111.93,409.662,109.22,405.555,109z"/>
		<path fill="#F05A61" d="M395.468,117.92c9.295,5.02,18.352,10.49,27.485,15.79c-0.781,1.4-1.552,2.8-2.324,4.21
			c-7.08-3.83-13.881-8.16-20.994-11.92c-0.591,1.1-1.182,2.19-1.763,3.29c-3.978-1.33-1.152-5.98-3.446-8.66
			C394.787,119.73,395.138,118.83,395.468,117.92z"/>
		<path fill="#F05A61" d="M52,235.57c12.02-42.5,34.768-81.89,65.618-113.54c59.599,59.688,119.317,119.27,178.885,178.979
			C215.02,279.16,133.465,257.5,52,235.57 M117.729,161.89c-10.808,1.81-20.904,8.08-26.904,17.29
			c-5.439,8.04-7.823,18.07-6.48,27.68c1.542,12.47,9.305,24.01,20.394,30.01c8.704,4.95,19.282,6.2,28.998,3.93
			c10.438-2.48,19.753-9.32,25.152-18.59c5.048-8.39,6.811-18.64,4.918-28.24c-2.174-11.59-9.706-22.09-20.164-27.62
			C135.839,161.93,126.564,160.5,117.729,161.89z"/>
		<path fill="#F05A61" d="M386.794,133.81c3.104-2.2,6.789-1.45,10.026,0.04c-0.682,1.3-1.362,2.61-2.055,3.91
			c-1.862,0.04-5.589-1.77-5.629,1.38c-0.021,2.42,2.846,3.69,4.958,3.45c3.776-0.43,7.211-2.71,11.127-2.31
			c4.939-0.01,9.257,4.53,8.585,9.52c0.37,0.3,1.093,0.91,1.452,1.21c-0.421,0.94-0.831,1.87-1.242,2.82
			c-0.631-0.02-1.893-0.05-2.533-0.07c-3.376,2.94-7.782,1.63-11.278-0.3c0.711-1.47,1.412-2.94,2.143-4.4
			c1.944,0.62,3.877,1.44,5.96,1.43c1.162-1.83,0.501-4.11-1.552-4.89c-4.007-1.24-7.753,1.2-11.59,1.9
			c-3.654,0.74-7.41-1.09-9.676-3.92c-1.19-2.33-1.394-5.04-2.333-7.47c0.301-0.67,0.899-2.01,1.213-2.68
			C384.971,133.53,386.183,133.72,386.794,133.81z"/>
		<path fill="#F05A61" d="M112.27,191.6c2.104-3.44,3.876-8.08,8.354-8.88c3.636,0.021,7.683,2.41,8.354,6.21
			c0.5,2.95-1.372,5.5-2.714,7.95c-1.352-0.91-2.715-1.82-4.066-2.72c0.821-1.49,1.612-3,2.424-4.5
			c-1.383-0.94-3.045-3.43-4.518-1.17c-2.154,2.87-4.467,6.09-4.928,9.71c1.333,2.76,4.327,1.04,5.609-0.77
			c1.282,0.81,2.584,1.57,3.866,2.39c-3.315,4.98-6.541,10.01-9.846,15c-3.676-2.15-7.342-4.31-11.079-6.35
			c0.641-1.41,1.313-2.8,1.963-4.188c2.514,1.37,5.019,2.79,7.482,4.26c1.172-1.85,2.354-3.7,3.546-5.54
			c-2.253-0.31-5.249-0.05-6.38-2.53C108.624,197.47,110.888,194.25,112.27,191.6z"/>
		<path fill="#F05A61" d="M138.042,192.2c0.341-0.45,1.032-1.34,1.373-1.79c0.721,0.43,2.173,1.29,2.895,1.72
			c-0.05,0.59-0.17,1.77-0.23,2.37c2.835,3.49,1.482,7.98-0.801,11.36c-1.372-0.85-2.725-1.69-4.086-2.53
			c0.841-1.97,1.422-4.04,1.542-6.18c-1.493,0.37-3.707-0.44-4.487,1.31c-2.945,5.15,2.854,10.32,1.412,15.68
			c-0.831,4.47-4.758,8.29-9.546,7.49c-0.331,0.37-0.991,1.11-1.322,1.48c-0.992-0.45-1.974-0.91-2.965-1.36
			c0.09-0.62,0.25-1.85,0.34-2.46c-2.394-3.16-1.803-6.99,0.15-10.19c1.333,0.69,2.674,1.39,4.017,2.09
			c-0.511,1.45-1.012,2.91-1.513,4.37c1.412,0.67,3.616,2.12,4.738,0.24c3.686-5.38-2.815-11.12-0.911-16.79
			C129.689,194.8,133.525,191.44,138.042,192.2z"/>
		<path fill="#F05A61" d="M317.52,312.99c81.484,21.88,163.039,43.52,244.504,65.47c-12.021,42.49-34.758,81.89-65.618,113.521
			C436.797,432.31,377.078,372.73,317.52,312.99 M486.879,369.84c-10.896,0.67-21.427,5.939-28.367,14.381
			c-6.649,7.949-10.127,18.521-9.255,28.869c0.831,12.09,7.462,23.69,17.63,30.353c6.312,4.31,13.895,6.607,21.506,6.96
			c10.879,0.17,21.847-4.093,29.51-11.86c8.232-8.14,12.649-19.96,11.679-31.49c-0.831-11.68-7.021-22.907-16.607-29.68
			C505.5,371.939,496.094,369.221,486.879,369.84z"/>
		<path fill="#F05A61" d="M121.816,496.14c59.729-59.737,119.478-119.47,179.326-179.1c-21.576,81.67-43.712,163.21-65.518,244.83
			C192.993,549.89,153.428,527.12,121.816,496.14 M251.42,393.77c0.02,1.871,0.01,3.73,0.07,5.603c-1.612,0.3-3.235,0.49-4.828,0.85
			c1.843,0.143,3.696,0.313,5.539,0.563c0.24,2.107,0.25,4.239,0.371,6.37c0.331-1.62,0.701-3.23,0.992-4.843
			c1.903,0.08,3.806,0.16,5.709,0.24c-0.982-0.45-1.953-0.89-2.925-1.317c0-0.893,0-2.66,0-3.553c0.831-0.93,1.663-1.85,2.484-2.777
			c-0.872,0.59-1.743,1.18-2.614,1.777c-1.212,0.021-2.414,0.03-3.626,0.04C252.201,395.73,251.811,394.75,251.42,393.77
			 M240.452,418.41c-1.823,0.21-3.625,0.45-5.429,0.75c1.934,0.147,3.867,0.25,5.81,0.357c0.37,2.19,0.571,4.41,0.771,6.643
			c0.291-1.63,0.651-3.25,0.931-4.87c2.173,0.05,4.348,0.1,6.521,0.14c-1.202-0.42-2.424-0.81-3.646-1.18c0-0.82,0-2.47,0-3.3
			c0.852-1.21,1.732-2.41,2.534-3.65c-0.701,0.73-1.402,1.46-2.093,2.2c-1.433,0.08-2.865,0.16-4.287,0.23
			c-0.361-1.28-0.722-2.553-1.102-3.82C240.432,414.07,240.432,416.24,240.452,418.41 M229.454,430.84
			c-0.03,2.17-0.01,4.353,0.02,6.53c-1.613,0.2-3.205,0.43-4.798,0.688c1.893,0.223,3.806,0.343,5.72,0.5
			c0.02,1.923,0.04,3.86,0.12,5.79c0.391-1.357,0.742-2.737,1.092-4.107c2.093,0.05,4.197,0.14,6.29,0.229
			c-1.352-0.737-2.685-1.52-4.036-2.26c0.821-2.09,1.763-4.12,3.145-5.89c-1.652,1.84-3.926,2.59-6.38,2.438
			C230.245,433.44,229.864,432.14,229.454,430.84 M190.389,450.87c-15.385,4.229-27.345,18.34-28.917,34.21
			c-1.522,12.86,3.636,26.29,13.422,34.81c7.392,6.41,17.128,10.28,26.974,9.933c12.631,0.17,24.972-6.37,32.274-16.603
			c5.879-8.067,8.594-18.37,7.362-28.29c-1.352-12.54-9.035-24.21-20.083-30.34C212.135,449.21,200.686,447.93,190.389,450.87z"/>
		<path fill="#F05A61" d="M487.961,390.38c0.301-0.37,0.9-1.12,1.2-1.5c1.014,0.47,2.034,0.931,3.065,1.38
			c-0.199,0.801-0.329,1.61-0.392,2.44c0.604,1.399,1.412,2.72,1.793,4.22c-0.04,2.17-1.132,4.12-1.912,6.09
			c-1.344-0.8-2.624-1.647-3.938-2.438c0.271-0.933,0.831-2.78,1.111-3.71c-0.691-2.041-4.036-2.28-4.758-0.12
			c-2.164,3.62,0.391,7.63,1.202,11.277c1.821,5.683-3.017,12.94-9.367,11.803c-0.341,0.447-1.012,1.34-1.352,1.79
			c-0.732-0.433-2.185-1.29-2.915-1.723c0.061-0.6,0.18-1.8,0.229-2.39c-2.784-3.44-1.372-7.78,0.501-11.27
			c1.45,0.857,3.016,1.537,4.468,2.397c-0.531,1.92-2.355,3.94-1.174,5.96c1.412,0.38,3.276,0.603,4.027-1
			c2.254-3.397-0.271-7.17-1.042-10.607C476.452,397.15,481.24,389.2,487.961,390.38z"/>
		<path fill="#F05A61" d="M489.373,411.18c3.325-4.97,6.541-10.01,9.846-14.987c3.706,2.17,7.423,4.34,11.188,6.42
			c-0.819,1.35-1.593,2.737-2.412,4.1c-2.364-1.5-4.819-2.83-7.323-4.06c-1.102,1.79-2.224,3.58-3.354,5.357
			c3.152-0.17,7.212,1.143,7.021,4.99c-0.912,4.67-3.877,8.66-6.439,12.57c-3.486,5.147-12.011,2.027-12.853-3.61
			c-0.48-2.92,1.413-5.41,2.705-7.83c1.352,0.9,2.714,1.813,4.086,2.72c-0.843,1.5-1.634,3.013-2.454,4.513
			c1.394,0.85,3.086,3.438,4.536,1.18c2.136-2.88,4.429-6.07,4.94-9.67c-1.253-2.83-4.389-1.16-5.611,0.729
			C491.957,412.78,490.655,411.99,489.373,411.18z"/>
		<path fill="#F05A61" d="M199.895,457.79c1.903,0.99,3.506-0.25,4.998-1.33c3.055-0.28,5.879,0.82,8.484,2.31
			c-0.731,1.353-1.442,2.723-2.173,4.093c-1.863-0.513-3.687-1.143-5.58-1.48c-1.172,1.521-1.612,3.45,0.281,4.603
			c5.89,2.938,11.899-3.91,17.839-0.803c3.806,1.32,6,5.013,5.509,8.98c0.38,0.38,1.152,1.14,1.532,1.52
			c-0.43,0.631-1.282,1.893-1.713,2.513c-3.996,0.47-8.664,3.107-12.06-0.421c0.44-1.229,1.072-2.382,1.643-3.539
			c1.954-0.063,5.379,1.81,5.729-1.19c0.26-3.15-4.057-4.271-6.521-3.32c-4.708,1.49-10.527,3.683-14.864,0.12
			c-3.425-2.05-3.025-6.43-4.377-9.7C198.933,459.55,199.575,458.38,199.895,457.79z"/>
		<path fill="#F05A61" d="M193.114,473.04c7.001,3.94,13.893,8.06,20.904,12.01c0.571-1.01,1.172-2,1.793-2.97
			c0.631,0.18,1.903,0.52,2.534,0.688c-0.651,3.5,0.861,6.883,0.461,10.37c-5.87-2.58-11.179-6.197-16.778-9.29
			c-3.656-2.26-7.633-4.027-11.038-6.67C191.611,475.75,192.372,474.4,193.114,473.04z"/>
		<path fill="#F05A61" d="M188.286,483.72c4.167-1.5,7.913,1.44,11.339,3.353c4.117,2.63,8.744,4.51,12.46,7.71
			c3.556,3.438,1.342,9.607-2.654,11.67c-2.645,0.87-5.58,0.3-7.913-1.15c-4.026-2.317-8.003-4.71-12.06-6.979
			c-2.164-1.34-4.758-2.723-5.499-5.353C182.907,489.33,185.17,485.52,188.286,483.72 M189.538,488.09
			c-0.331,0.82-0.992,2.46-1.323,3.271c4.248,3.37,9.185,5.67,13.763,8.527c1.733,0.933,3.556,2.29,5.649,1.893
			c1.403-0.61,2.063-2.353,0.842-3.513c-2.114-1.947-4.809-3.107-7.252-4.567C197.42,491.66,193.925,488.76,189.538,488.09z"/>
		<path fill="#F05A61" d="M180.122,498.57c3.696-0.99,6.932,1.42,9.967,3.107c4.297,2.73,9.055,4.771,13.051,7.95
			c3.847,3.392,1.573,9.99-2.634,11.95c-4.608,1.438-8.574-1.76-12.311-3.9c-3.706-2.34-7.823-4.04-11.188-6.88
			C172.93,507.29,175.524,500.21,180.122,498.57 M180.122,503.24c-0.05,1.188-0.08,2.39-0.08,3.6c2.494,2.271,5.66,3.63,8.524,5.38
			c3.486,1.9,6.751,4.62,10.898,4.8c0.281-0.789,0.842-2.39,1.122-3.188c-3.065-2.24-6.371-4.09-9.656-5.95
			C187.504,505.97,184.229,503.3,180.122,503.24z"/>
	</g>
	<g id="_x23_8781bdff">
		<path fill="#8781BD" d="M121.836,117.88c31.462-31.13,71.107-53.65,113.647-65.75c20.324,74.57,40.086,149.3,60.2,223.94
			c1.773,6.96,3.937,13.83,5.389,20.88C241.293,237.29,181.504,177.64,121.836,117.88 M195.217,84.57
			c-10.518,1.71-20.364,7.66-26.484,16.41c-6.761,9.37-9.135,21.71-6.4,32.93c3.806,16.69,19.322,29.89,36.5,30.67
			c13.773,1.12,27.786-5.64,35.619-16.96c6.01-8.47,8.474-19.29,6.851-29.53c-2.053-13.39-11.329-25.41-23.839-30.69
			C210.522,84.29,202.709,83.62,195.217,84.57 M231.197,173.56c-1.773,0.11-3.376-0.9-4.999-1.45c0.801,1.27,1.603,2.55,2.273,3.9
			c-0.51,1.42-1.583,2.54-2.454,3.75c1.532-0.08,3.075-0.17,4.608-0.229c0.831,1.229,1.702,2.43,2.543,3.65
			c0.131-1.48,0.261-2.97,0.391-4.45c1.473-0.38,2.955-0.76,4.427-1.14c-1.282-0.82-2.574-1.66-3.856-2.47
			c0.14-1.65,0.26-3.3,0.42-4.94C233.47,171.34,232.418,172.54,231.197,173.56 M241.974,192.8c-1.592-0.75-3.305-1.13-4.898-1.84
			c0.881,1.37,1.713,2.78,2.634,4.14c-1.252,1.41-2.534,2.79-3.816,4.16c1.983-0.34,3.977-0.69,5.98-1.02
			c0.49,1.32,0.981,2.65,1.482,3.97c0.41-1.61,0.811-3.23,1.222-4.84c1.442-0.38,2.915-0.7,4.367-1.06
			c-1.302-0.79-2.674-1.49-3.816-2.49c-0.301-1.28-0.541-2.58-0.712-3.88C243.597,190.89,242.776,191.84,241.974,192.8
			 M252.261,211.73c-1.442-0.82-2.875-1.64-4.317-2.45c0.852,1.61,1.673,3.24,2.524,4.86c-1.142,1.19-2.264,2.4-3.396,3.6
			c1.773-0.21,3.566-0.38,5.349-0.57c0.651,1.28,1.342,2.56,2.003,3.85c0.351-1.79,0.892-3.53,1.242-5.31
			c1.492-0.13,2.995-0.27,4.498-0.42c-1.493-0.78-2.935-1.63-4.417-2.4c-0.02-1.59-0.061-3.17-0.08-4.75
			C254.565,209.37,253.354,210.5,252.261,211.73z"/>
		<path fill="#8781BD" d="M197.241,99.53c6.17-4.03,13.322,4.88,9.625,10.438c-2.665,3.25-6.811,4.71-10.287,6.92
			c-3.535,1.86-6.751,4.51-10.667,5.51c-6.621,1.18-11.259-8.87-5.679-12.88C185.651,105.8,191.511,102.73,197.241,99.53
			 M190.008,109.28c-2.814,1.52-5.609,3.13-7.923,5.37c0.451,0.78,1.343,2.36,1.793,3.14c2.765-0.92,5.399-2.21,7.863-3.77
			c4.087-2.58,8.725-4.42,12.08-8.01c-0.932-0.93-1.914-1.79-2.945-2.59C197,104.87,193.635,107.34,190.008,109.28z"/>
		<path fill="#8781BD" d="M199.794,118.02c2.915-1.66,5.77-3.61,9.075-4.37c5.95-0.67,10.257,8.07,6.02,12.35
			c-1.412,1.38-3.205,2.23-4.868,3.25c-0.691-1.37-1.462-2.7-2.003-4.13c1.192-1.2,2.614-2.13,3.816-3.31
			c-0.05-1.41-1.082-2.54-1.632-3.78c-3.466,1.87-7.262,3.35-10.137,6.1c0.01,1.16,0.081,2.31,0.201,3.45
			c1.563-0.12,3.125-0.23,4.698-0.38c0.661,1.27,1.372,2.51,2.033,3.79c-5.309,2.65-10.538,5.47-15.906,7.99
			c-1.923-3.87-5.098-7.28-6.03-11.55c1.172-0.68,2.404-1.23,3.616-1.81c1.392,2.42,2.805,4.83,4.187,7.27
			c1.632-0.93,3.315-1.78,4.878-2.82c-1.202-1.94-3.526-3.49-3.436-5.98C194.676,121.1,197.48,119.45,199.794,118.02z"/>
		<path fill="#8781BD" d="M317.68,300.96c59.408-59.81,119.197-119.24,178.726-178.93c30.952,31.55,53.629,71,65.587,113.51
			C480.608,257.52,399.114,279.13,317.68,300.96 M477.714,160.74c-9.466,2.93-17.81,9.35-22.868,17.87
			c-5.81,9.62-7.292,21.72-3.957,32.45c2.978,9.81,9.818,18.42,18.821,23.38c9.837,5.56,22.067,6.72,32.745,2.99
			c9.994-3.37,18.5-10.88,23.098-20.35c4.528-9.13,5.4-19.99,2.355-29.71c-2.945-9.5-9.477-17.88-18.142-22.82
			C500.251,158.8,488.313,157.84,477.714,160.74z"/>
		<path fill="#8781BD" d="M210.131,133.26c1.703-2.71,4.988-3.58,7.743-4.82c1.523,0.72,3.056,1.45,4.568,2.19
			c0.802-0.13,1.603-0.26,2.404-0.39c0.431,0.81,0.861,1.63,1.292,2.44c-0.741,2.29-1.172,4.66-1.833,6.97
			c-1.082,2.31-3.626,3.28-5.72,4.41c-0.731-1.33-1.442-2.66-2.163-3.99c2.033-1.51,4.317-3.18,3.596-6.06
			c-1.813,0.43-4.237-0.09-5.429,1.68c-2.864,4.08-1.552,10.1-5.479,13.6c-2.214,1.77-5.289,3.85-8.164,2.48
			c-1.723-0.64-3.486-1.24-5.349-1.25c-0.471-0.74-0.952-1.47-1.422-2.21c1.793-3.72,1.613-9.21,6.571-10.36
			c0.781,1.13,1.542,2.29,2.233,3.49c-0.862,1.31-3.616,2.29-2.584,4.17c0.751,0.83,1.543,1.61,2.394,2.35
			c1.362-1.28,2.985-2.38,3.977-4.01C208.208,140.5,208.018,136.46,210.131,133.26z"/>
		<path fill="#8781BD" d="M495.463,177c2.654-1.16,5.96-0.23,7.654,2.11c2.611,3.54,4.457,7.56,6.78,11.3
			c1.492,2.76,3.535,5.4,3.978,8.59c0.9,6.09-8.173,10.51-12.271,5.8c-2.873-3.35-4.587-7.47-6.91-11.18
			c-1.683-3.09-3.977-6.02-4.528-9.58C489.833,180.72,492.608,178.12,495.463,177 M495.753,182.28c-0.17,0.42-0.511,1.26-0.681,1.68
			c1.401,3.49,3.626,6.56,5.409,9.84c1.62,2.72,2.925,5.7,5.147,8.02c1.613,0.36,4.077-0.73,3.205-2.71
			c-2.364-5.52-5.769-10.54-8.754-15.74C499.45,181.66,496.775,180.29,495.753,182.28z"/>
		<path fill="#8781BD" d="M478.996,192.05c2.604-2.44,2.033-6.73,5.179-8.64c5.259,9.24,10.729,18.36,15.876,27.66
			c-1.383,0.77-2.743,1.55-4.105,2.33c-4.108-6.72-7.954-13.59-11.9-20.4c-1.212,0.33-2.424,0.67-3.626,1.02
			C480.067,193.53,479.356,192.54,478.996,192.05z"/>
		<path fill="#8781BD" d="M467.537,191.22c0.51,0.45,1.031,0.91,1.563,1.37c4.035-0.27,7.08,2.24,9.097,5.49
			c-1.293,0.76-2.575,1.53-3.858,2.29c-1.479-1.38-2.823-3.91-5.197-2.47c-1.685,2.48,0.472,5.62,2.976,6.45
			c2.854,0.99,5.92,1.21,8.743,2.34c3.325,1.37,5.509,4.82,5.9,8.32c-0.761,3.21-0.941,7.3-4.107,9.17
			c-0.399-0.41-1.19-1.22-1.594-1.63c-1.552-0.13-3.152-0.03-4.637-0.54c-2.334-1.24-3.496-3.76-4.919-5.84
			c1.423-0.8,2.856-1.59,4.288-2.39c1.182,2.14,4.237,6.09,6.14,2.32c0-3.08-2.725-5.28-5.59-5.68c-4.247-0.87-9.324-1.63-11.417-6
			c-2.614-3.58-0.312-7.7,0.301-11.5C465.984,192.35,466.756,191.78,467.537,191.22z"/>
		<path fill="#8781BD" d="M52.03,378.48c81.405-21.99,162.919-43.603,244.364-65.44c-59.448,59.78-119.217,119.26-178.765,178.94
			C86.658,460.45,63.99,420.98,52.03,378.48 M117.238,372.689c-10.688,1.92-20.574,8.25-26.494,17.371
			c-5.499,8.188-7.752,18.42-6.35,28.157c1.663,11.38,8.374,22.03,18.2,28.11c9.526,6.18,21.716,7.89,32.625,4.84
			c9.024-2.65,17.258-8.32,22.437-16.22c6.27-9.21,8.414-21.063,5.809-31.88c-2.484-10.422-9.235-19.793-18.49-25.252
			C136.75,372.8,126.704,371.12,117.238,372.689z"/>
		<path fill="#8781BD" d="M312.901,317.04c59.817,59.64,119.576,119.34,179.286,179.1c-31.492,31.11-71.147,53.79-113.789,65.7
			c-12.54-46.62-25.013-93.26-37.522-139.89C331.603,386.96,321.906,352.09,312.901,317.04 M359.759,393.02
			c-0.461,1.67-0.821,3.393-1.542,4.99c-1.393,0.353-2.795,0.65-4.207,0.9c1.372,0.729,2.805,1.357,4.188,2.107
			c0.021,1.633,0.132,3.263,0.17,4.893c1.082-1.24,2.266-2.41,3.366-3.65c1.462,0.82,2.935,1.65,4.417,2.48
			c-0.882-1.62-1.753-3.24-2.624-4.853c1.132-1.197,2.282-2.39,3.415-3.59c-1.804,0.2-3.616,0.34-5.419,0.53
			C360.931,395.55,360.319,394.3,359.759,393.02 M368.884,416.81c-1.24,0.353-2.493,0.673-3.745,0.95
			c1.281,0.78,2.653,1.433,3.808,2.41c0.229,1.3,0.43,2.61,0.61,3.93c0.812-0.93,1.634-1.867,2.452-2.777
			c1.623,0.56,3.296,1,4.929,1.55c-0.899-1.271-1.691-2.62-2.595-3.88c1.185-1.45,2.414-2.86,3.647-4.271
			c-1.936,0.37-3.876,0.71-5.821,1.04c-0.501-1.277-1.001-2.567-1.492-3.85C370.116,413.55,369.625,415.23,368.884,416.81
			 M380.784,430.89c-0.092,1.44-0.17,2.88-0.251,4.33c-1.502,0.521-3.005,1.04-4.497,1.57c1.282,0.66,2.574,1.31,3.876,1.979
			c-0.15,1.69-0.28,3.4-0.42,5.11c1.172-1.29,2.361-2.55,3.546-3.82c1.582,0.66,3.215,1.25,4.798,1.94
			c-0.813-1.34-1.653-2.67-2.324-4.07c0.729-1.34,1.604-2.567,2.464-3.817c-1.352,0.21-2.694,0.43-4.027,0.647
			C382.896,433.46,381.826,432.18,380.784,430.89 M400.606,448.65c-8.535,2.67-16.276,8.04-21.365,15.43
			c-7.313,10.229-9.327,23.979-5.289,35.88c3.194,9.72,10.246,18.13,19.322,22.91c9.994,5.34,22.307,6.25,32.915,2.188
			c9.104-3.35,16.896-10.107,21.454-18.68c4.979-9.18,6.168-20.34,3.226-30.359c-2.995-10.421-10.387-19.528-20.083-24.471
			C421.651,446.6,410.532,446.07,400.606,448.65z"/>
		<path fill="#8781BD" d="M129.829,402.88c-3.997-4.18-2.654-11.53,1.453-15.06c0.42,0.41,1.252,1.22,1.672,1.63
			c1.542,0.13,3.146,0.021,4.638,0.55c2.354,1.23,3.506,3.76,4.928,5.87c-1.432,0.78-2.865,1.57-4.297,2.35
			c-1.302-1.54-2.164-4.05-4.578-4.01c-3.296,2.021-0.26,6.35,2.604,6.99c4.598,1.28,10.518,1.479,12.881,6.43
			c2.595,3.58,0.241,7.7-0.32,11.51c-0.702,0.433-1.382,0.88-2.073,1.33c-2.314-1-4.818-1.397-7.152-2.31
			c-1.573-1.23-2.654-2.93-3.886-4.46c1.282-0.51,2.514-1.183,3.876-1.49c1.712,0.771,3.095,2.92,5.229,1.95
			c1.803-2.44-0.38-5.67-2.884-6.49C137.873,406.2,132.804,406.49,129.829,402.88z"/>
		<path fill="#8781BD" d="M113.372,400.81c1.402-0.607,2.774-1.29,4.207-1.8c4.518,6.23,7.713,13.353,11.87,19.84
			c1.863-0.31,4.027-1.107,5.289,0.87c-1.893,2.08-3.215,4.563-3.145,7.44c-0.892,0.26-1.773,0.55-2.645,0.87
			C123.89,418.88,118.43,409.95,113.372,400.81z"/>
		<path fill="#8781BD" d="M105.068,405.59c2.454-0.8,5.479-0.35,7.082,1.84c3.135,4.103,5.249,8.86,8.003,13.21
			c1.532,2.86,3.826,5.92,3.015,9.343c-1.222,3.777-5.719,6.21-9.565,5.31c-3.747-1.63-5.269-5.73-7.262-8.99
			c-2.124-4.13-5.099-7.87-6.541-12.317C98.658,410.21,101.652,406.72,105.068,405.59 M103.976,411.66
			c2.584,5.58,5.85,10.81,8.905,16.14c0.832,0.933,1.232,2.73,2.755,2.71c2.113,0.771,3.556-2.229,2.253-3.76
			c-2.945-5.33-5.92-10.67-9.215-15.79C107.402,409.2,105.359,411.01,103.976,411.66z"/>
		<path fill="#8781BD" d="M402.96,464.83c2.545-4.271,8.635-6.771,12.802-3.24c0.831-0.147,1.663-0.29,2.504-0.42
			c0.319,0.85,0.699,1.68,1.143,2.49c-0.852,2.397-1.242,4.95-2.232,7.31c-1.001,1.62-2.864,2.38-4.407,3.38
			c-0.601-1.31-1.182-2.6-1.763-3.897c0.962-1.103,2.152-2.07,2.774-3.433c-0.792-1.027-1.604-2.027-2.455-2.987
			c-1.793,1.487-4.217,2.75-4.746,5.237c-1.192,4.343-1.395,9.763-5.86,12.19c-2.955,2.28-6.74,2-9.687-0.11
			c-0.472,0.133-1.422,0.4-1.894,0.53c-0.563-0.86-1.111-1.71-1.623-2.57c1.002-2.229,1.343-4.67,1.965-7.01
			c1.07-2.188,3.535-3.13,5.438-4.46c0.821,1.38,1.653,2.75,2.484,4.143c-1.282,0.987-2.574,1.979-3.736,3.107
			c-0.381,1.78,1.242,2.68,2.344,3.72c1.372-1.237,3.146-2.197,4.036-3.88C401.368,471.67,401.368,467.99,402.96,464.83z"/>
		<path fill="#8781BD" d="M406.556,481.02c5.32-2.688,10.519-5.64,16.018-7.97c2.034,3.74,4.168,7.433,6.319,11.11
			c-1.292,0.81-2.571,1.63-3.854,2.46c-1.503-2.521-3.015-5.03-4.558-7.521c-1.634,0.98-3.406,1.86-4.889,3.013
			c1.36,1.84,3.836,3.317,3.624,5.92c-0.431,2.75-2.975,4.34-5.127,5.737c-2.875,1.7-5.73,3.563-8.955,4.521
			c-6,1.15-10.787-7.54-6.689-12.03c1.359-1.58,3.345-2.38,5.138-3.35c0.702,1.34,1.393,2.7,2.094,4.06
			c-1.412,1.25-3.586,2.03-4.137,3.99c0.701,1,1.439,1.98,2.231,2.93c3.325-2.14,7.604-3.31,9.968-6.647
			c-0.271-0.762-0.803-2.29-1.063-3.05c-1.402,0.229-2.805,0.46-4.197,0.697C407.839,483.59,407.188,482.3,406.556,481.02z"/>
		<path fill="#8781BD" d="M425.588,490.38c5.899-3.53,12.631,4.18,9.855,9.83c-1.913,3.22-5.648,4.59-8.693,6.5
			c-4.188,2.17-7.983,5.21-12.531,6.61c-6.631,1.37-11.549-9.17-5.629-12.98C414.038,496.69,419.849,493.56,425.588,490.38
			 M411.465,504.4c-2.134,1.34,0.562,3.29,1.353,4.567c5.75-3.38,11.729-6.41,17.288-10.08c2.334-1.188,0.66-5.237-1.861-4.237
			C422.502,497.6,416.833,500.82,411.465,504.4z"/>
	</g>
</g>
</svg>
